<?xml version='1.0' encoding='utf-8'?>
<!DOCTYPE svg PUBLIC '-//W3C//DTD SVG 1.1//EN' 'http://www.w3.org/Graphics/SVG/1.1/DTD/svg11.dtd'>
<svg version="1.1" xmlns="http://www.w3.org/2000/svg" viewBox="0 0 512 512" style="fill:#1C2833" xmlns:xlink="http://www.w3.org/1999/xlink" enable-background="new 0 0 512 512">
  <g>
    <g>
      <path d="m476.3,43.1c-15.9-16-37.2-24.7-59.7-24.7-22.6,0-43.8,8.8-59.7,24.7-8,8-8,20.9 0,28.9l90.6,90.6c11.4,10.6 24,4.9 28.9,0 32.6-33.2 32.8-86.5-0.1-119.5zm-18,72.6l-54.5-54.5c14.9-4.6 32.3-0.5 43.7,10.9 11.7,11.7 15.3,28.6 10.8,43.6z"/>
      <path d="m64.5,162.6l90.6-90.6c8-8 8-20.9 0-28.9-15.9-16-37.2-24.7-59.7-24.7-22.6,0-43.8,8.8-59.7,24.7-33,33-32.7,86.3-0.1,119.5 4.9,4.9 17.5,10.5 28.9,0zm0-90.6c11.4-11.4 28.7-15.4 43.7-10.9l-54.5,54.5c-4.6-14.9-1-31.8 10.8-43.6z"/>
      <path d="m256,81.4c-113.6,0-206.1,92.4-206.1,206.1 0,113.6 92.4,206.1 206.1,206.1 113.6,0 206.1-92.4 206.1-206.1 0-113.6-92.5-206.1-206.1-206.1zm0,371.4c-91.1,5.68434e-14-165.3-74.1-165.3-165.3 0-91.1 74.1-165.2 165.3-165.2 91.1,0 165.3,74.1 165.3,165.2 0,91.1-74.2,165.3-165.3,165.3z"/>
      <path d="m332.8,267.1h-56.3v-94.9c0-11.3-9.1-20.4-20.4-20.4-11.3,0-20.4,9.1-20.4,20.4v115.3c0,11.3 9.1,20.4 20.4,20.4h76.8c11.3,0 20.4-9.1 20.4-20.4-0.1-11.3-9.3-20.4-20.5-20.4z"/>
    </g>
  </g>
</svg>
