<?xml version="1.0" encoding="UTF-8" standalone="no"?>
<!-- Generator: Adobe Illustrator 19.0.0, SVG Export Plug-In . SVG Version: 6.00 Build 0)  -->

<svg
   xmlns:dc="http://purl.org/dc/elements/1.1/"
   xmlns:cc="http://creativecommons.org/ns#"
   xmlns:rdf="http://www.w3.org/1999/02/22-rdf-syntax-ns#"
   xmlns:svg="http://www.w3.org/2000/svg"
   xmlns="http://www.w3.org/2000/svg"
   xmlns:sodipodi="http://sodipodi.sourceforge.net/DTD/sodipodi-0.dtd"
   xmlns:inkscape="http://www.inkscape.org/namespaces/inkscape"
   style="fill:#1C2833"
   version="1.1"
   id="Capa_1"
   x="0px"
   y="0px"
   viewBox="0 0 60 60" 
   xml:space="preserve"
   inkscape:version="0.91 r13725"
   sodipodi:docname="agenda-2.svg"><metadata
     id="metadata39"><rdf:RDF><cc:Work
         rdf:about=""><dc:format>image/svg+xml</dc:format><dc:type
           rdf:resource="http://purl.org/dc/dcmitype/StillImage" /><dc:title></dc:title></cc:Work></rdf:RDF></metadata><defs
     id="defs37" /><sodipodi:namedview
     pagecolor="#ffffff"
     bordercolor="#666666"
     borderopacity="1"
     objecttolerance="10"
     gridtolerance="10"
     guidetolerance="10"
     inkscape:pageopacity="0"
     inkscape:pageshadow="2"
     inkscape:window-width="1600"
     inkscape:window-height="838"
     id="namedview35"
     showgrid="false"
     inkscape:zoom="11.125147"
     inkscape:cx="25.089923"
     inkscape:cy="28.414548"
     inkscape:window-x="-8"
     inkscape:window-y="-8"
     inkscape:window-maximized="1"
     inkscape:current-layer="Capa_1" /><path
     d="M13,0c-1.547,0-3.033,0.662-4.078,1.817C7.895,2.954,7.389,4.476,7.525,6H7.5v48.958C7.5,57.738,9.762,60,12.542,60H52.5V11  V9V0H13z M9.5,54.958V9.998c0.836,0.629,1.875,1.002,3,1.002v46.996C10.842,57.973,9.5,56.621,9.5,54.958z M50.5,58h-36V11h3v25.201  c0,0.107,0.011,0.211,0.031,0.311c0.003,0.014,0.009,0.027,0.013,0.041c0.02,0.087,0.045,0.171,0.079,0.251  c0.004,0.01,0.011,0.019,0.016,0.029c0.038,0.084,0.083,0.164,0.135,0.238c0.003,0.005,0.008,0.009,0.011,0.013  c0.057,0.079,0.121,0.151,0.193,0.217c0.001,0.001,0.003,0.003,0.004,0.005c0.004,0.003,0.008,0.005,0.012,0.008  c0.265,0.239,0.616,0.386,1.01,0.386c0.412,0,0.791-0.171,1.069-0.461c0.08-0.079,0.151-0.168,0.21-0.267l4.217-7.028l4.217,7.029  c0.109,0.18,0.256,0.322,0.42,0.44c0.248,0.179,0.542,0.288,0.86,0.288c0.191,0,0.37-0.038,0.536-0.1  c0.005-0.002,0.011-0.003,0.017-0.005c0.173-0.066,0.328-0.165,0.462-0.286c0.002-0.002,0.005-0.002,0.006-0.004  c0.002-0.001,0.003-0.003,0.004-0.005c0.071-0.066,0.135-0.137,0.192-0.216c0.004-0.005,0.008-0.009,0.012-0.015  c0.052-0.074,0.097-0.154,0.135-0.237c0.005-0.01,0.011-0.019,0.016-0.03c0.034-0.079,0.058-0.162,0.078-0.247  c0.004-0.016,0.011-0.03,0.014-0.046c0.02-0.1,0.031-0.204,0.031-0.31V11h19V58z M32.118,9l2-4H19.882l-2,4h-4.67  c-1.894,0-3.516-1.379-3.693-3.14c-0.101-0.998,0.214-1.957,0.887-2.701C11.071,2.422,12.017,2,13,2h37.5v1h-5c-0.553,0-1,0.447-1,1  s0.447,1,1,1h5v1h-4c-0.553,0-1,0.447-1,1s0.447,1,1,1h4v1H32.118z"
     id="path3" /><g
     id="g5" /><g
     id="g7" /><g
     id="g9" /><g
     id="g11" /><g
     id="g13" /><g
     id="g15" /><g
     id="g17" /><g
     id="g19" /><g
     id="g21" /><g
     id="g23" /><g
     id="g25" /><g
     id="g27" /><g
     id="g29" /><g
     id="g31" /><g
     id="g33" /><g
     id="g4199" class="red" style="fill:red"><path
       inkscape:connector-curvature="0"
       id="path4167"
       d="m 19.505362,5.0793758 14.291945,0 -2.78648,5.3931872 0.08989,29.93219 L 24.08957,29.977924 17.348087,41.303617 16.988541,10.472563 Z"
       style="stroke-linecap:butt;stroke-linejoin:miter;stroke-opacity:1" /></g><path class="red" 
     style="stroke-width:0.09554859;stroke-linejoin:miter;stroke-miterlimit:4;stroke-dasharray:none;fill:red;stroke-opacity:1"
     d="m 26.361255,5.1977029 c -2.206058,0.023212 -4.420394,-0.015295 -6.621293,0.046377 -0.88728,0.1470708 -0.963754,1.2384247 -1.372808,1.8793442 -0.552956,1.2745058 -1.256442,2.4983071 -1.713428,3.8051509 -0.01482,4.381208 0.09777,8.775208 0.131941,13.161334 0.0819,5.211414 0.09244,10.42798 0.221076,15.63613 0.19726,0.855615 1.428822,0.892179 1.792813,0.140974 1.868205,-2.852942 3.506399,-5.849836 5.324895,-8.73461 1.892998,2.744342 3.682726,5.563621 5.66232,8.246204 0.536406,0.60595 1.614523,0.167058 1.601279,-0.632541 0.128758,-4.406464 0.01665,-8.817953 0.02594,-13.226266 -0.0227,-4.816956 -0.04626,-9.633908 -0.0693,-14.450862 0.783144,-1.5914965 1.682672,-3.1412083 2.393061,-4.7588051 0.248467,-0.7088032 -0.542083,-1.2801407 -1.201537,-1.1343291 -2.058319,0.0073 -4.116637,0.014599 -6.174956,0.021899 z"
     id="path4197"
     inkscape:connector-curvature="0" /></svg>