<?xml version="1.0" encoding="utf-8"?>
<!-- Generator: Adobe Illustrator 15.0.0, SVG Export Plug-In . SVG Version: 6.00 Build 0)  -->
<!DOCTYPE svg PUBLIC "-//W3C//DTD SVG 1.1//EN" "http://www.w3.org/Graphics/SVG/1.1/DTD/svg11.dtd">
<svg version="1.1" id="Capa_1" xmlns="http://www.w3.org/2000/svg" xmlns:xlink="http://www.w3.org/1999/xlink" x="0px" y="0px" style="fill:#1C2833"
	  viewBox="0 123.307 595.281 595.275" enable-background="new 0 123.307 595.281 595.275"
	 xml:space="preserve">
<g>
	<path d="M286.728,423.652v290.506c7.069-0.099,13.097-0.189,13.888-0.189c0.576,0,3.702-0.056,7.938-0.109V423.652
		c20.018-4.909,34.919-22.998,34.919-44.509c0-25.27-20.562-45.831-45.832-45.831c-25.271,0-45.832,20.561-45.832,45.831
		C251.809,400.655,266.709,418.741,286.728,423.652z M297.64,355.136c13.237,0,24.007,10.769,24.007,24.007
		s-10.77,24.007-24.007,24.007s-24.007-10.77-24.007-24.007S284.403,355.136,297.64,355.136z"/>
	<path  d="M297.64,124.307c-139.931,0-253.773,113.842-253.773,253.772c0,55.755,17.753,108.653,51.342,152.974
		c32.477,42.855,78.619,74.874,129.927,90.156c5.738,1.707,11.779-1.56,13.49-7.297c1.708-5.742-1.558-11.781-7.297-13.489
		c-46.92-13.979-89.122-43.263-118.836-82.471c-30.705-40.521-46.936-88.887-46.936-139.873
		c0-127.972,104.112-232.083,232.083-232.083c127.971,0,232.082,104.111,232.082,232.083c0,50.986-16.23,99.353-46.937,139.873
		c-29.711,39.208-71.914,68.492-118.833,82.471c-5.739,1.708-9.008,7.747-7.298,13.489c1.403,4.704,5.717,7.75,10.389,7.75
		c1.024,0,2.067-0.149,3.101-0.453c51.31-15.282,97.448-47.301,129.928-90.156c33.587-44.32,51.342-97.219,51.342-152.974
		C551.414,238.149,437.571,124.307,297.64,124.307z"/>
	<path  d="M297.64,284.813c51.426,0,93.269,41.839,93.269,93.267c0,26.361-11.337,51.645-31.1,69.371
		c-4.46,4-4.834,10.857-0.835,15.315c2.142,2.39,5.104,3.604,8.078,3.604c2.578,0,5.165-0.912,7.236-2.771
		c24.345-21.836,38.309-53.006,38.309-85.52c0-63.387-51.571-114.956-114.957-114.956c-63.387,0-114.958,51.569-114.958,114.956
		c0,32.514,13.964,63.684,38.311,85.52c4.459,3.999,11.314,3.628,15.313-0.833c4-4.458,3.627-11.315-0.832-15.315
		c-19.766-17.727-31.101-43.01-31.101-69.371C204.374,326.653,246.214,284.813,297.64,284.813z"/>
	<path class="red" style="fill:red" d="M367.053,547.915c1.45,0,2.926-0.294,4.34-0.914c67.195-29.378,110.61-95.686,110.61-168.921
		c0-101.66-82.703-184.365-184.363-184.365c-101.66,0-184.365,82.706-184.365,184.365c0,73.235,43.418,139.543,110.612,168.921
		c5.487,2.396,11.881-0.104,14.282-5.592c2.399-5.488-0.104-11.88-5.592-14.281c-59.297-25.927-97.611-84.43-97.611-149.048
		c0-89.699,72.975-162.675,162.674-162.675c89.7,0,162.677,72.976,162.677,162.675c0,64.618-38.317,123.121-97.613,149.051
		c-5.486,2.398-7.991,8.791-5.593,14.278C358.895,545.485,362.875,547.915,367.053,547.915z"/>
</g>
</svg>
