<?xml version="1.0" encoding="utf-8"?>
<!-- Generator: Adobe Illustrator 15.0.0, SVG Export Plug-In . SVG Version: 6.00 Build 0)  -->
<!DOCTYPE svg PUBLIC "-//W3C//DTD SVG 1.1 Tiny//EN" "http://www.w3.org/Graphics/SVG/1.1/DTD/svg11-tiny.dtd">
<svg version="1.1" baseProfile="tiny" id="Layer_1" xmlns="http://www.w3.org/2000/svg" xmlns:xlink="http://www.w3.org/1999/xlink" style="fill:#1C2833"
	 x="0px" y="0px" viewBox="0 123.304 595.281 595.281" xml:space="preserve">
<g>
	<g>
		<path d="M309.142,577.378c104.389,0,189.313-84.926,189.313-189.313c0-104.389-84.926-189.313-189.313-189.313
			c-33.761,0-66.197,8.785-94.936,25.511l0.012-1.651c-1.749,1.878-3.875,3.518-6.049,5.234
			c-5.104,4.029-10.781,8.009-14.979,12.984c-0.086,0.102-0.187,0.186-0.278,0.282l-0.061,8.32
			c2.531,3.347,4.372,7.122,6.023,10.814c4.746-4.016,9.81-7.616,15.136-10.669c0.004-0.002,0.008-0.004,0.013-0.006l0.001-0.152
			c28.051-19.302,60.817-29.494,95.117-29.494c92.715,0,168.141,75.428,168.141,168.142s-75.426,168.141-168.141,168.141
			c-92.712,0-168.141-75.427-168.141-168.141c0-34.296,10.198-67.064,29.498-95.117l0.258-0.002
			c-0.181-1.795,0.243-3.634,1.514-5.295c1.32-1.725,2.626-3.378,4.152-4.923c0.655-0.663,1.406-1.177,2.207-1.584
			c-0.876-1.472-1.435-3.2-1.656-5.031c-0.098-0.815-0.082-1.623-0.05-2.429c-1.534-0.459-2.919-1.099-4.181-1.925l-10.229,0.074
			c-1.796,2.274-4.694,3.45-7.571,3.398c-1.896,1.352-3.504,2.885-3.859,4.31c-1.392,5.589-2.679,9.829-6.229,13.593l0.488-0.003
			c-16.726,28.737-25.512,61.182-25.512,94.935C119.829,492.452,204.754,577.378,309.142,577.378z"/>
		<path d="M550.898,388.064c0-133.305-108.451-241.755-241.756-241.755c-42.77,0-84.496,11.23-121.224,32.545
			c-0.942,1.349-2.113,2.309-3.468,2.953c-0.24,2.594-1.607,5.106-4.516,6.84c-2.725,1.625-4.981,2.345-5.634,5.322
			c-0.077,0.35-0.182,0.683-0.301,1.009l11.275,11.275c0.898-0.781,1.772-1.672,2.612-2.245c1.719-1.173,3.581-1.98,5.461-2.859
			c3.692-1.726,5.049-2.589,7.459-4.908c2.021-1.944,4.365-3.495,6.957-4.079c31.194-16.167,65.878-24.681,101.376-24.681
			c121.629,0,220.582,98.953,220.582,220.582s-98.951,220.582-220.58,220.582c-121.63,0-220.583-98.953-220.583-220.582
			c0-37.156,9.305-73.428,26.971-105.726l1.123,1.123c-0.018-1.058,0.126-2.143,0.472-3.228c-0.847-0.792-1.603-1.695-2.224-2.735
			c-0.512-0.856-0.92-1.823-1.451-2.674c0.555,1.043-1.911-0.923-2.204-1.079c-2.64-1.402-4.866-3.119-6.964-5.235
			c-0.52-0.524-1.044-1.057-1.579-1.578c-0.078,0.001-0.151,0.011-0.23,0.011c-0.977,0-1.867-0.132-2.688-0.354l0.186,0.186
			c-21.342,36.739-32.583,78.488-32.583,121.288c0,82.662,41.709,155.754,105.18,199.369l-30.397,89.137
			c-2.737,8.031-2.185,16.646,1.557,24.258c3.74,7.615,10.222,13.316,18.254,16.053c3.319,1.133,6.768,1.705,10.251,1.705
			c13.59,0,25.669-8.646,30.058-21.513l27.501-80.646c24.869,8.666,51.567,13.393,79.354,13.393
			c27.785,0,54.486-4.728,79.354-13.393l27.502,80.646c4.387,12.867,16.467,21.513,30.059,21.513c3.482,0,6.932-0.573,10.252-1.705
			c8.031-2.736,14.51-8.439,18.254-16.053c3.74-7.612,4.293-16.229,1.557-24.258l-30.398-89.137
			C509.187,543.817,550.898,470.725,550.898,388.064z M182.247,690.239c-1.464,4.291-5.491,7.175-10.019,7.175
			c-1.155,0-2.307-0.193-3.418-0.572c-5.525-1.885-8.487-7.912-6.603-13.437l28.808-84.478c6.198,3.487,12.557,6.719,19.077,9.656
			L182.247,690.239z M456.076,683.405c1.885,5.524-1.078,11.553-6.602,13.437c-1.113,0.378-2.264,0.572-3.42,0.572
			c-4.529,0-8.557-2.884-10.02-7.175l-27.846-81.656c6.518-2.938,12.877-6.169,19.076-9.657L456.076,683.405z"/>
		<path d="M178.86,388.064c0,71.84,58.444,130.284,130.284,130.284c71.838,0,130.281-58.444,130.281-130.284
			S380.982,257.78,309.142,257.78c-32.117,0-61.55,11.688-84.287,31.024l-0.384-0.384c-0.357,0.589-0.776,1.172-1.281,1.742
			c-2.043,2.308-4.837,3.993-7.333,5.776c-1.249,0.892-1.517,1.014-2.295,1.695c-0.3,1.056-0.703,2.136-1.22,3.272
			c-0.638,1.402-1.602,2.449-2.739,3.204C190.437,326.802,178.86,356.103,178.86,388.064z M224.901,318.798l0.107,0.107
			c0.493-0.871,1.176-1.716,2.081-2.511c3.986-3.499,6.891-7.676,11.256-10.819c0.688-0.495,1.437-0.835,2.216-1.063l-0.688-0.688
			c18.854-15.532,42.989-24.872,69.269-24.872c60.162,0,109.109,48.948,109.109,109.111s-48.947,109.11-109.109,109.11
			c-60.164,0-109.112-48.947-109.112-109.11C200.03,361.788,209.369,337.651,224.901,318.798z"/>
		<path d="M264.967,332.304c-0.741,2.693-2.345,4.512-4.391,5.583c-0.553,1.021-1.183,1.899-2.053,2.941
			c-0.895,1.072-2.37,1.88-3.864,2.438c-1.33,2.254-3.23,3.561-5.408,4.148c-7.897,11.597-12.524,25.591-12.524,40.649
			c0.002,39.928,32.485,72.412,72.414,72.412c39.928,0,72.412-32.484,72.412-72.412s-32.484-72.413-72.412-72.413
			c-16.154,0-31.086,5.322-43.145,14.296l-0.716-0.716C265.344,330.233,265.253,331.266,264.967,332.304z M266.224,360.12
			l1.115,1.115c1.682-6.149,8.267-11.465,14.006-14.993c0.2-0.123,0.402-0.234,0.607-0.338l-0.755-0.755
			c8.044-5.257,17.641-8.325,27.945-8.325c28.252,0,51.238,22.986,51.238,51.24c0,28.253-22.986,51.239-51.238,51.239
			c-28.254,0-51.24-22.986-51.24-51.239C257.902,377.76,260.97,368.162,266.224,360.12z"/>
	</g>
</g>
<g>
	<g class="green" style="fill:red">
		<path d="M315.761,384.094c-11.357-11.214-22.682-22.462-33.968-33.749c-15.333-15.333-30.63-30.705-45.81-46.19
			c1.319,1.346-19.053-18.97-18.594-19.514c0.016-0.019,0.034-0.037,0.05-0.056l-6.817-6.816l0.039-5.357
			c-0.55-1.133-0.876-31.62-0.978-67.458c-12.11-12.14-24.197-24.304-36.2-36.549c1.195,1.22-15.97-15.832-18.324-19.01
			l-22.989-22.989c-3.02-3.02-7.556-3.929-11.501-2.31c-3.95,1.617-6.54,5.449-6.57,9.719l-0.45,61.955l-61.953,0.448
			c-4.267,0.031-8.099,2.621-9.719,6.57c-1.294,3.161-0.966,6.695,0.762,9.528c0.002,0.001,0.004,0.003,0.005,0.005
			c0.937,0.845,1.861,1.703,2.772,2.576c0.104,0.099,0.208,0.198,0.312,0.297c0.936,0.903,1.863,1.816,2.771,2.749
			c3.435,3.347,6.869,6.694,10.304,10.041c15.486,15.179,30.857,30.476,46.19,45.81c5.914,5.914,11.815,11.841,17.713,17.771
			c12.564,0.037,25.127,0.104,37.69,0.229c-1.982-0.02,26.959,0.594,26.946,0.65c-0.028,0.122-0.064,0.237-0.095,0.356l8.3-0.061
			l11.036,11.036c-0.027,0.032-0.053,0.065-0.08,0.097c1.794,1.639,3.546,3.325,5.245,5.07c3.435,3.347,6.869,6.694,10.304,10.041
			c15.486,15.179,30.857,30.476,46.19,45.81c0.042,0.042,0.083,0.083,0.125,0.125c0.042,0.042,0.083,0.083,0.125,0.125
			c0.097,0.097,0.192,0.194,0.289,0.291c10.425,10.426,20.816,20.886,31.181,31.372c0.133,0.133,0.266,0.266,0.397,0.399
			c1.682,1.021,3.581,1.542,5.484,1.542c2.709,0,5.418-1.034,7.486-3.1C316.529,392.452,317.304,387.915,315.761,384.094z
			 M131.972,272.031l-54.825-54.824l42.658-0.311l54.825,54.824L131.972,272.031z M189.603,256.75l-54.826-54.825l0.31-42.661
			l54.827,54.825L189.603,256.75z"/>
	</g>
</g>
</svg>
