<?xml version="1.0" encoding="utf-8"?>
<!-- Generator: Adobe Illustrator 15.0.0, SVG Export Plug-In . SVG Version: 6.00 Build 0)  -->
<!DOCTYPE svg PUBLIC "-//W3C//DTD SVG 1.1//EN" "http://www.w3.org/Graphics/SVG/1.1/DTD/svg11.dtd">
<svg version="1.1" id="Layer_1" xmlns="http://www.w3.org/2000/svg" xmlns:xlink="http://www.w3.org/1999/xlink" x="0px" y="0px" style="fill:#1C2833"
	  viewBox="0 140.307 595.281 595.275" enable-background="new 0 140.307 595.281 595.275"
	 xml:space="preserve">
<g>
	<path d="M40.129,679.734c1.563,1.059,3.379,1.599,5.214,1.599c1.163,0,2.334-0.218,3.452-0.663
		c84.874-33.889,165.088-33.922,245.229-0.068c0.088,0.037,0.184,0.043,0.272,0.078c0.368,0.143,0.747,0.227,1.128,0.319
		c0.364,0.092,0.72,0.193,1.09,0.238c0.375,0.046,0.75,0.032,1.126,0.032c0.379,0,0.752,0.014,1.125-0.032
		c0.379-0.045,0.744-0.151,1.117-0.244c0.367-0.092,0.73-0.171,1.09-0.31c0.094-0.036,0.195-0.041,0.289-0.082
		c80.105-33.858,160.32-33.835,245.223,0.068c1.117,0.445,2.289,0.663,3.451,0.663c1.834,0,3.65-0.54,5.213-1.599
		c2.563-1.734,4.088-4.619,4.088-7.702V337.099c0-3.664-2.152-6.988-5.504-8.488c-75.451-33.78-161.604-34.193-256.094-1.318
		c-94.491-32.866-180.653-32.48-256.093,1.318c-3.352,1.5-5.504,4.824-5.504,8.488v334.933
		C36.042,675.115,37.568,678,40.129,679.734z M540.636,343.2v315.343c-39.885-14.405-79.498-21.608-118.629-21.608
		c-38.902,0-77.342,7.121-115.066,21.363V343.713C393.232,314.342,471.785,314.165,540.636,343.2z M54.645,343.2
		c68.833-29.021,147.394-28.854,233.694,0.513v314.585c-75.691-28.571-154.17-28.485-233.694,0.245V343.2z"/>
	<path d="M585.98,338.349c-5.143,0-9.303,4.164-9.303,9.301v351.123H348.652c-0.449,0-0.836,0.195-1.268,0.256
		c-2.545-0.479-5.252,0.007-7.443,1.737c-27.195,21.404-54.981,21.31-84.928-0.24c-0.277-0.2-0.606-0.241-0.898-0.406
		c-0.551-0.316-1.098-0.58-1.714-0.777c-0.62-0.202-1.224-0.312-1.862-0.377c-0.331-0.034-0.618-0.192-0.958-0.192H18.603V347.65
		c0-5.137-4.16-9.301-9.301-9.301c-5.141,0-9.301,4.164-9.301,9.301v360.424c0,5.136,4.161,9.302,9.301,9.302h237.44
		c17.597,12.089,34.968,18.207,52.006,18.207c17.039,0,33.729-6.122,49.982-18.207h237.25c5.141,0,9.301-4.166,9.301-9.302V347.65
		C595.281,342.513,591.121,338.349,585.98,338.349z"/>
</g>
<g class="red" style="fill:red">
	<path d="M228.834,258.551c19.789-13.614,43.12-20.465,67.55-19.961c24.43,0.502,47.577,8.377,67.198,22.734
		c4.921,3.641,11.548,3.07,15.761-1.023c0.521-0.506,0.909-1.01,1.363-1.583c4.032-5.445,2.746-13.127-2.748-17.226
		c-23.711-17.403-51.858-26.92-81.304-27.53c-29.444-0.605-57.741,7.752-81.73,24.171c-5.562,3.872-6.911,11.433-3.1,17.041
		C215.636,260.786,223.273,262.423,228.834,258.551z"/>
	<g>
		<path d="M431.021,184.965c-39.05-28.649-85.281-44.332-133.883-45.331c-48.6-1.002-95.073,12.769-134.583,39.801
			c-5.559,3.745-6.844,11.37-3.035,16.979c3.941,5.613,11.517,7.055,17.142,3.247c35.242-24.161,76.881-36.423,120.274-35.593
			c43.459,0.896,84.816,14.931,119.647,40.537c4.922,3.635,11.546,3.065,15.761-1.029c0.517-0.504,0.907-1.008,1.363-1.577
			C437.739,196.679,436.515,188.937,431.021,184.965z"/>
	</g>
	<path fill="none" stroke-width="20" stroke-linecap="round" stroke-miterlimit="10" d="M334.36,299.834
		c-12.896-13.273-44.182-16.329-60.461-0.513"/>
</g>
</svg>
