<?xml version="1.0" encoding="utf-8"?>
<!-- Generator: Adobe Illustrator 15.0.0, SVG Export Plug-In . SVG Version: 6.00 Build 0)  -->
<!DOCTYPE svg PUBLIC "-//W3C//DTD SVG 1.1 Tiny//EN" "http://www.w3.org/Graphics/SVG/1.1/DTD/svg11-tiny.dtd">
<svg version="1.1" baseProfile="tiny" id="Capa_1" xmlns="http://www.w3.org/2000/svg" xmlns:xlink="http://www.w3.org/1999/xlink" style="fill:white"
	 x="0px" y="0px"  viewBox="0 0 174.661 174.661" xml:space="preserve">
<g>
	<g>
		<path class="blue" style="fill:red" d="M115.181,81.164c1.692,0.42,3.354-0.646,3.771-2.305c4.834-20.24,2.381-35.062-7.313-44.046
			c-12.823-11.874-32.906-8.687-37.588-7.191c-8.4,2.701-14.273,7.739-17.467,14.979c-7.624,17.278,3.038,40.91,3.504,41.899
			c0.505,1.111,1.617,1.82,2.832,1.82s2.326-0.709,2.832-1.814c3.809-8.299,8.777-12.72,14.386-12.793h0.137
			c5.298,0,10.104,3.821,11.411,6.497c4.812,9.794-7.934,23.684-13.25,28.208c-1.206,1.021-1.449,2.781-0.569,4.098
			c8.662,12.908,7.907,18.322,6.68,20.398c-2.177,3.689-9.204,3.215-9.81,3.215c-2.612-0.049-4.826-8.28-6.18-13.371
			c-1.976-7.479-3.69-13.938-8.455-15.01c-0.049-0.011-0.095-0.019-0.144-0.03c-0.257,2.047-0.523,4.448-0.797,6.669
			c1.215,1.813,2.543,6.808,3.379,9.975c2.308,8.727,5.045,18.518,12.178,17.981c0.441,0.024,10.979,0.895,15.202-6.242
			c3.338-5.626,1.564-13.761-5.4-24.802c5.449-5.235,19.352-20.44,12.775-33.836c-2.047-4.181-8.66-9.996-17.007-9.996H80.06
			c-4.713,0.061-11.049,2.058-16.593,10.324c-2.476-7.599-5.542-20.783-1.167-30.702c2.469-5.611,6.936-9.393,13.643-11.542
			c4.99-1.62,21.708-3.212,31.438,5.824c7.928,7.344,9.771,20.134,5.498,38.03C112.483,79.081,113.519,80.753,115.181,81.164z"/>
		<path  d="M142.395,29.698c-7.563-16.354-22.542-24.728-34.039-27.103C80.638-3.156,59.558,0.668,45.635,13.888
			C22.04,36.295,27.995,77.145,28.263,78.871c0.262,1.702,1.891,2.886,3.544,2.606c1.702-0.262,2.874-1.851,2.612-3.547
			c-0.063-0.393-5.711-39.391,15.524-59.537C62.301,6.678,81.537,3.417,107.083,8.7c10.012,2.07,23.055,9.365,29.644,23.617
			c8.312,17.991,4.213,43.014-11.862,72.373c-4.39,8.031-6.053,14.729-7.787,21.83c-1.938,7.867-4.111,16.781-10.576,29.715
			c-3.824,7.654-16.881,12.982-29.771,12.1c-5.967-0.396-20.389-2.881-25.525-17.713c-6.01-10.541-13.643-29.85-8.507-36.772
			c2.962-4,10.352-3.288,15.908-2.063c0.123,0.074,0.25,0.207,0.376,0.364c0.256-2.168,0.52-4.487,0.791-6.47
			c-10.71-2.361-18.15-0.857-22.08,4.459c-9.198,12.422,6.302,40.419,7.861,43.038c4.305,12.567,15.521,20.35,30.778,21.372
			c1.111,0.08,2.207,0.115,3.3,0.109c14.458,0,27.789-6.297,32.458-15.637c6.775-13.566,9.048-22.835,11.058-31.02
			c1.705-6.978,3.19-13.006,7.197-20.324C147.643,76.083,151.7,49.844,142.395,29.698z"/>
	</g>
</g>
</svg>
