<?xml version="1.0" encoding="iso-8859-1"?>
<!-- Generator: Adobe Illustrator 19.1.0, SVG Export Plug-In . SVG Version: 6.00 Build 0)  -->
<svg version="1.1" id="Capa_1" xmlns="http://www.w3.org/2000/svg" xmlns:xlink="http://www.w3.org/1999/xlink" x="0px" y="0px"  
	 viewBox="0 0 272.074 272.074" style="enable-background:new 0 0 272.074 272.074;" xml:space="preserve">
<g>
	<g>
		<path style="fill:red" d="M97.739,233.779c-7.731,0-14.994-3.014-20.45-8.471L7.706,155.661c-1.08-1.17-2.024-2.365-2.847-3.605
			c-0.373-0.553-0.701-1.176-1.022-1.8l-0.488-0.9c-0.418-0.733-0.823-1.478-1.15-2.275s-0.572-1.626-0.803-2.468l-0.244-0.816
			c-0.231-0.688-0.443-1.388-0.585-2.108c-0.366-1.844-0.559-3.734-0.566-5.604c0-1.902,0.193-3.811,0.566-5.707
			c0.129-0.662,0.328-1.33,0.553-1.992l0.283-0.951c0.231-0.823,0.469-1.632,0.797-2.429c0.341-0.816,0.733-1.536,1.138-2.256
			l0.469-0.88c0.328-0.643,0.662-1.279,1.073-1.889c0.977-1.472,2.095-2.847,3.31-4.107l0.283-0.289l68.825-68.819
			c5.463-5.463,12.725-8.471,20.45-8.471c7.731,0,14.994,3.008,20.45,8.477c5.463,5.456,8.471,12.719,8.471,20.45
			c0,7.725-3.008,14.987-8.471,20.45l-19.448,19.448h144.405c15.945,0,28.921,12.976,28.921,28.921s-12.976,28.921-28.921,28.921
			H98.742l19.454,19.454c5.463,5.463,8.471,12.719,8.471,20.45s-3.008,14.987-8.471,20.45
			C112.727,230.772,105.464,233.779,97.739,233.779z M17.931,147.775l68.452,68.439c6.067,6.067,16.646,6.08,22.719,0
			c3.033-3.04,4.704-7.07,4.704-11.363c0-4.293-1.671-8.323-4.704-11.363l-41.395-41.395h175.44c8.863,0,16.067-7.204,16.067-16.067
			c0-8.856-7.204-16.067-16.067-16.067H67.707l41.395-41.389c3.033-3.033,4.704-7.07,4.704-11.363s-1.671-8.329-4.704-11.363
			c-6.061-6.067-16.652-6.073-22.719,0l-68.819,68.825c-0.758,0.758-1.42,1.575-2.005,2.449l-1.054,1.973
			c-0.154,0.27-0.315,0.533-0.437,0.816c-0.109,0.27-0.186,0.611-0.283,0.945l-0.476,1.575c-0.353,1.523-0.463,2.584-0.463,3.605
			c0,1.054,0.116,2.108,0.321,3.149l0.623,2.044c0.084,0.321,0.154,0.643,0.283,0.945s0.296,0.566,0.443,0.835l0.791,1.472
			c0.81,1.317,1.452,2.082,2.14,2.796L17.931,147.775z"/>
	</g>
</g>
<g>
</g>
<g>
</g>
<g>
</g>
<g>
</g>
<g>
</g>
<g>
</g>
<g>
</g>
<g>
</g>
<g>
</g>
<g>
</g>
<g>
</g>
<g>
</g>
<g>
</g>
<g>
</g>
<g>
</g>
</svg>
