<?xml version="1.0" encoding="utf-8"?>
<!-- Generator: Adobe Illustrator 15.0.0, SVG Export Plug-In . SVG Version: 6.00 Build 0)  -->
<!DOCTYPE svg PUBLIC "-//W3C//DTD SVG 1.1//EN" "http://www.w3.org/Graphics/SVG/1.1/DTD/svg11.dtd">
<svg version="1.1" id="Calque_1" xmlns="http://www.w3.org/2000/svg" xmlns:xlink="http://www.w3.org/1999/xlink" x="0px" y="0px" style="fill:#1C2833"
	 viewBox="0 123.307 595.281 595.275" enable-background="new 0 123.307 595.281 595.275"
	 xml:space="preserve">
<g>
	<g>
		<path d="M414.72,382.888V138.885h-24.301v223.856C399.75,368.095,407.289,374.812,414.72,382.888z"/>
		<path d="M346.705,347.054V138.885h-24.301v208.404C330.706,346.91,338.411,348.809,346.705,347.054z"/>
		<path d="M264.156,542.702v51.596h24.299v-34.137C279.203,556.356,270.837,550.804,264.156,542.702z"/>
		<path d="M322.404,567.428v26.869h24.301V567.01C338.786,565.858,330.258,567.279,322.404,567.428z"/>
		<path class="red" style="fill:red" d="M549.705,596.39c-52.553-26.509-91.037-69.527-91.617-70.108l-0.117-0.116c-1.744-1.744-5.813-4.069-10.23-3.488
			c-2.326,0.349-5.697,1.628-8.256,5.93c-2.557,4.069-4.766,7.441-7.092,10.348l-13.836-14.185
			c14.533-18.486,23.137-41.855,23.137-67.201c0-27.555-10.23-52.785-26.973-71.969v-2.712
			c-7.432-8.076-14.971-14.793-24.301-20.147v2.28c-13.021-8.139-27.787-13.486-43.715-15.463v-2.504
			c-8.294,1.755-15.999-0.144-24.301,0.234v2.037c-11.975,1.279-23.484,4.419-33.949,9.302v-1.929
			c-7.658,5.463-17.042,9.243-24.299,15.74v1.652c-23.718,19.998-38.833,49.995-38.833,83.479s15.115,63.481,38.833,83.479v1.654
			c6.681,8.103,15.047,13.654,24.299,17.459v-3.649c10.58,4.883,21.974,8.021,33.949,9.301v1.616
			c7.854-0.149,16.382-1.57,24.301-0.418v-1.431c20.578-2.558,39.414-10.813,54.762-23.369l14.184,14.301
			c-3.488,2.674-7.209,4.999-10.93,7.324c-3.953,1.744-5.348,4.767-5.813,7.092c-0.93,4.535,1.279,9.65,3.256,11.627l0.115,0.116
			c0.465,0.465,36.625,31.159,70.574,94.989c4.766,10.348,39.414,48.599,82.664,21.625l0.232-0.116
			C584.351,680.334,600.628,623.713,549.705,596.39z M333.566,539.42c-44.995,0-81.386-36.623-81.386-81.851
			s36.391-81.852,81.386-81.852c44.996,0,81.387,36.624,81.387,81.852S378.445,539.42,333.566,539.42z M542.263,678.357
			c-22.555,16.277-44.182-4.302-48.482-11.975c-27.904-52.437-53.25-79.062-63.715-89.525c8.256-6.627,17.209-17.439,21.742-23.602
			c10.232,10.813,35.693,36.624,88.014,64.063C550.169,623.015,575.632,654.291,542.263,678.357z"/>
		<path d="M288.455,138.885h-24.299v233.553c7.258-6.497,16.641-10.277,24.299-15.74V138.885z"/>
		<rect x="13.022" y="138.885" width="24.299" height="455.413"/>
		<rect x="62.784" y="138.885" width="24.299" height="455.413"/>
		<rect x="125.799" y="138.885" width="24.3" height="455.413"/>
		<rect x="182.886" y="138.885" width="24.3" height="455.413"/>
		<rect x="448.669" y="138.885" width="24.299" height="274.735"/>
		<rect x="510.523" y="138.885" width="24.299" height="406.581"/>
	</g>
</g>
</svg>
