<?xml version="1.0" encoding="iso-8859-1"?>
<!-- Generator: Adobe Illustrator 19.0.0, SVG Export Plug-In . SVG Version: 6.00 Build 0)  -->
<svg version="1.1" id="Layer_1" xmlns="http://www.w3.org/2000/svg" xmlns:xlink="http://www.w3.org/1999/xlink" x="0px" y="0px"
	 viewBox="0 0 512 512" style="enable-background:new 0 0 512 512;fill:#1C2833" xml:space="preserve">
<g>
	<g>
		<path d="M226,0H15C6.716,0,0,6.716,0,15v211c0,8.284,6.716,15,15,15h211c8.284,0,15-6.716,15-15V15C241,6.716,234.284,0,226,0z
			 M211,211H30V30h181V211z"/>
	</g>
</g>
<g>
	<g>
		<path d="M497,0H286c-8.284,0-15,6.716-15,15v211c0,8.284,6.716,15,15,15h211c8.284,0,15-6.716,15-15V15C512,6.716,505.284,0,497,0
			z M482,211H301V30h181V211z"/>
	</g>
</g>
<g>
	<g>
		<path d="M437,60h-91c-8.284,0-15,6.716-15,15v91c0,8.284,6.716,15,15,15h91c8.284,0,15-6.716,15-15V75
			C452,66.716,445.284,60,437,60z M422,151h-61V90h61V151z"/>
	</g>
</g>
<g>
	<g>
		<path class="red" style="fill:red" d="M166,60H75c-8.284,0-15,6.716-15,15v91c0,8.284,6.716,15,15,15h91c8.284,0,15-6.716,15-15V75
			C181,66.716,174.284,60,166,60z M151,151H90V90h61V151z"/>
	</g>
</g>
<g>
	<g>
		<path d="M166,331H75c-8.284,0-15,6.716-15,15v91c0,8.284,6.716,15,15,15h91c8.284,0,15-6.716,15-15v-91
			C181,337.716,174.284,331,166,331z M151,422H90v-61h61V422z"/>
	</g>
</g>
<g>
	<g>
		<path d="M226,271H15c-8.284,0-15,6.716-15,15v211c0,8.284,6.716,15,15,15h211c8.284,0,15-6.716,15-15V286
			C241,277.716,234.284,271,226,271z M211,482H30V301h181V482z"/>
	</g>
</g>
<g>
	<g>
		<path d="M497,392h-60c-8.284,0-15,6.716-15,15v15h-76c-8.284,0-15,6.716-15,15v60c0,8.284,6.716,15,15,15h30
			c8.284,0,15-6.716,15-15s-6.716-15-15-15h-15v-30h76c8.284,0,15-6.716,15-15v-15h45c8.284,0,15-6.716,15-15S505.284,392,497,392z"
			/>
	</g>
</g>
<g>
	<g>
		<path  d="M497,452c-8.284,0-15,6.716-15,15v15h-45c-8.284,0-15,6.716-15,15s6.716,15,15,15h60c8.284,0,15-6.716,15-15v-30
			C512,458.716,505.284,452,497,452z"/>
	</g>
</g>
<g>
	<g>
		<path d="M438.832,271H407c-8.284,0-15,6.716-15,15v75.1l-91-0.003V301h30v15c0,8.284,6.716,15,15,15s15-6.716,15-15v-30
			c0-8.284-6.716-15-15-15h-60c-8.284,0-15,6.716-15,15v89.996V376v121c0,8.284,6.716,15,15,15s15-6.716,15-15V390.996l106-0.096
			c8.681,0,15-6.897,15-14.9v-75h16.832c8.284,0,15-6.716,15-15S447.116,271,438.832,271z"/>
	</g>
</g>
<g>
	<g>
		<path d="M497,271c-8.284,0-15,6.716-15,15v45h-15c-8.284,0-15,6.716-15,15s6.716,15,15,15h30c8.284,0,15-6.716,15-15v-60
			C512,277.716,505.284,271,497,271z"/>
	</g>
</g>
<g>
</g>
<g>
</g>
<g>
</g>
<g>
</g>
<g>
</g>
<g>
</g>
<g>
</g>
<g>
</g>
<g>
</g>
<g>
</g>
<g>
</g>
<g>
</g>
<g>
</g>
<g>
</g>
<g>
</g>
</svg>
