<?xml version="1.0" encoding="utf-8"?>
<!-- Generator: Adobe Illustrator 15.0.0, SVG Export Plug-In . SVG Version: 6.00 Build 0)  -->
<!DOCTYPE svg PUBLIC "-//W3C//DTD SVG 1.1 Basic//EN" "http://www.w3.org/Graphics/SVG/1.1/DTD/svg11-basic.dtd">
<svg version="1.1" baseProfile="basic" id="Calque_1" style="fill:#1C2833"
	 xmlns="http://www.w3.org/2000/svg" xmlns:xlink="http://www.w3.org/1999/xlink" x="0px" y="0px"  viewBox="0 123.307 595.281 595.275" xml:space="preserve">
<g>
	<g>
		<path d="M224.383,307.427c-11.783,0-21.004,8.307-21.004,18.92v191.505c0,10.613,9.221,18.92,21.004,18.92
			s21.003-8.307,21.003-18.92V326.346C245.386,315.733,235.653,307.427,224.383,307.427z"/>
		<path class="red" style="fill:red" d="M122.95,307.427c-11.783,0-21.004,8.307-21.004,18.92v191.505c0,10.613,9.221,18.92,21.004,18.92
			c11.782,0,21.003-8.307,21.003-18.92V326.346C143.953,315.733,134.22,307.427,122.95,307.427z"/>
		<path d="M21.004,607.836h444.155c11.782,0,21.004-8.307,21.004-18.92v-80.294h88.114c11.782,0,21.004-8.306,21.004-18.919V351.265
			c0-10.614-9.222-18.92-21.004-18.92h-88.114v-79.371c0-10.613-9.222-18.92-21.004-18.92H21.004C9.221,234.054,0,242.361,0,252.974
			v335.941C0,599.068,9.733,607.836,21.004,607.836L21.004,607.836z M486.163,370.184h67.11v101.06h-67.11V370.184z M42.008,271.894
			h402.146v79.371v138.438v80.293H42.008V271.894z"/>
	</g>
</g>
</svg>
