<?xml version="1.0" encoding="utf-8"?>
<!-- Generator: Adobe Illustrator 15.0.0, SVG Export Plug-In . SVG Version: 6.00 Build 0)  -->
<!DOCTYPE svg PUBLIC "-//W3C//DTD SVG 1.1//EN" "http://www.w3.org/Graphics/SVG/1.1/DTD/svg11.dtd">
<svg version="1.1" id="Capa_1" xmlns="http://www.w3.org/2000/svg" xmlns:xlink="http://www.w3.org/1999/xlink" x="0px" y="0px" style="fill:white"
	  viewBox="0 123.307 595.281 595.275" enable-background="new 0 123.307 595.281 595.275"
	 xml:space="preserve">
<g>
	<g>
		<g class="red" style="fill:red">
			
			<path d="M556.533,471.112c-9.471,7.359-18.615,13.394-27.031,17.642c-8.605,4.384-16.02,6.603-21.646,6.603
			c-9.633,0-19.697-5.763-38.504-21.052c-1.813-1.461-1.813-1.461-3.625-2.977c-27.33-22.297-40.398-30.09-59.854-30.09
			c-19.238,0-33.77,7.793-58.527,26.869c-1.975,1.516-1.975,1.516-3.896,3.03c-23.566,18.238-34.309,24.217-46.865,24.217
			c-11.716,0-22.188-5.683-42.184-21.457c-1.678-1.326-1.678-1.326-3.382-2.679c-27.762-21.998-42.075-29.981-63.695-29.981
			c-21.917,0-36.123,8.47-61.125,30.414c-2.49,2.192-2.49,2.192-4.924,4.303c-16.234,14.153-25.299,19.401-35.418,19.401
			c-4.464,0-9.632-1.136-15.396-3.383c-10.173-3.978-21.511-11.174-33.254-20.673c-3.331-2.705-6.581-5.514-9.761-8.372
			c0.078,10.126,0.086,24.152,0.023,35.055c11.225,8.377,22.316,14.932,33.143,19.183c8.713,3.409,17.128,5.249,25.246,5.249
			c18.751,0,32.28-7.82,53.196-26.031c2.517-2.191,2.517-2.191,5.005-4.383c20.212-17.751,30.197-23.703,43.266-23.703
			c13.258,0,23.946,5.952,46.918,24.136c1.705,1.354,1.705,1.354,3.437,2.705c24.623,19.429,39.045,27.275,58.906,27.275
			c20.834,0,34.932-7.875,63.397-29.899c1.949-1.488,1.949-1.488,3.842-2.977c20.133-15.478,30.875-21.241,42.049-21.241
			c10.662,0,20.592,5.927,42.725,24.001c1.84,1.488,1.84,1.488,3.68,3.003c23.648,19.238,37.449,27.113,55.578,27.113
			c10.525,0,21.781-3.384,33.85-9.499c8.352-4.214,16.985-9.694,25.8-16.172c-0.076-10.012-0.084-23.779-0.023-34.583
			C563.917,465.216,560.255,468.225,556.533,471.112z"/>
		</g>
		<path d="M148.685,170.657c-21.836,25.732-13.394,40.452,0,40.588C162.431,211.38,170.9,196.389,148.685,170.657z"/>
		<path d="M297.505,170.657c-21.809,25.732-13.394,40.452,0,40.588C311.25,211.38,319.718,196.389,297.505,170.657z"/>
		<path d="M446.326,170.657c-21.811,25.732-13.395,40.452,0,40.588C460.07,211.38,468.539,196.389,446.326,170.657z"/>
		<rect x="135.291" y="224.773" width="27.058" height="108.231"/>
		<rect x="432.931" y="224.773" width="27.059" height="108.231"/>
		<rect x="284.111" y="224.773" width="27.058" height="108.231"/>
		<path d="M541.408,346.535H53.873C24.109,346.535,0,370.941,0,400.868v216.006c0,30.035,24.082,54.36,53.873,54.36h487.535
			c29.764,0,53.873-24.406,53.873-54.359V400.868C595.281,370.861,571.199,346.535,541.408,346.535z M568.222,461.533
			c-0.029,0.025-0.061,0.05-0.09,0.075c0.063,10.724,0.057,24.545-0.018,34.688c0.035-0.025,0.07-0.05,0.105-0.076v120.653h0.002
			c0,15.071-12.096,27.302-26.814,27.302H53.873c-14.774,0-26.815-12.148-26.815-27.302V514.033c-0.382-6.379-0.382-57.297,0-63.676
			v-49.49c0-15.071,12.095-27.274,26.815-27.274h487.535c14.773,0.001,26.814,12.15,26.814,27.275V461.533z"/>
		
	</g>
</g>
</svg>
