<?xml version="1.0" encoding="iso-8859-1"?>
<!-- Generator: Adobe Illustrator 19.0.0, SVG Export Plug-In . SVG Version: 6.00 Build 0)  -->
<svg version="1.1" id="Layer_1" xmlns="http://www.w3.org/2000/svg" xmlns:xlink="http://www.w3.org/1999/xlink" x="0px" y="0px" 
	 viewBox="0 0 512 512" style="enable-background:new 0 0 512 512;fill:white" xml:space="preserve">
<g>
	<g class="red" style="fill:red">
		<path d="M309.53,195.011c-13.421-13.42-33.815-15.723-49.627-6.905c-15.813-8.814-36.207-6.514-49.628,6.905
			c-7.847,7.848-12.169,18.281-12.169,29.378c0,11.098,4.321,21.531,12.169,29.378l49.627,49.629l49.627-49.629
			c7.847-7.847,12.169-18.28,12.169-29.378C321.699,213.292,317.377,202.859,309.53,195.011z M288.316,232.553l-28.413,28.413
			l-28.413-28.413c-2.181-2.181-3.381-5.08-3.381-8.164c0-3.084,1.201-5.983,3.381-8.164c2.251-2.251,5.207-3.376,8.164-3.376
			c2.957,0,5.914,1.126,8.164,3.376l12.087,12.087l12.083-12.087c4.502-4.5,11.828-4.499,16.33,0
			c2.181,2.181,3.381,5.081,3.381,8.164C291.698,227.473,290.497,230.372,288.316,232.553z"/>
	</g>
</g>
<g>
	<g>
		<path d="M417.478,226.043v-46.164c0-17.342-14.108-31.45-31.449-31.45h-24.884v-11.768H190.112
			c-17.342,0-31.449,14.108-31.449,31.449v55.845c-35.504-5.799-63.166-35.184-66.337-71.493C127.466,145.337,154,114.21,154,76.998
			C153.999,34.542,119.457,0,76.999,0C34.542,0,0,34.542,0,76.999c0,37.408,26.817,68.655,62.233,75.563
			c3.384,52.824,44.38,95.575,96.428,101.691v57.659c0,17.342,14.108,31.45,31.449,31.45h171.033v-11.768h24.884
			c17.342,0,31.449-14.108,31.449-31.449v-43.694c36.698,7.037,64.52,39.363,64.52,78.081v1.057
			c0,43.848-35.673,79.521-79.521,79.521H205.701c-7.068-38.012-40.459-66.89-80.489-66.89H81.89C36.736,348.22,0,384.955,0,430.11
			C0,475.265,36.736,512,81.89,512h43.323c40.029,0,73.419-28.877,80.489-66.889h196.777C462.869,445.111,512,395.98,512,335.589
			v-1.057C511.999,279.231,470.796,233.378,417.478,226.043z M30.001,76.999c0-25.915,21.084-46.998,46.998-46.998
			s46.998,21.083,46.998,46.998s-21.084,46.998-46.998,46.998S30.001,102.915,30.001,76.999z M331.142,313.362h-141.03
			c-0.799,0-1.449-0.651-1.449-1.45v-143.8c0-0.799,0.65-1.448,1.448-1.448h141.031V313.362z M387.476,300.145
			c0,0.799-0.65,1.448-1.448,1.448h-24.884V178.43h24.884c0.798,0,1.448,0.65,1.448,1.449V300.145z M125.213,481.999H81.89
			c-28.611,0-51.888-23.278-51.888-51.889c0-28.611,23.277-51.888,51.888-51.888h43.323c28.611,0,51.888,23.277,51.888,51.889
			C177.101,458.723,153.824,481.999,125.213,481.999z"/>
	</g>
</g>
<g>
	<g>
		<polygon points="92,61.999 92,45.026 61.999,45.026 61.999,92 108.973,92 108.973,61.999 		"/>
	</g>
</g>
<g>
</g>
<g>
</g>
<g>
</g>
<g>
</g>
<g>
</g>
<g>
</g>
<g>
</g>
<g>
</g>
<g>
</g>
<g>
</g>
<g>
</g>
<g>
</g>
<g>
</g>
<g>
</g>
<g>
</g>
</svg>
