<?xml version="1.0" encoding="utf-8"?>
<!-- Generator: Adobe Illustrator 15.0.0, SVG Export Plug-In . SVG Version: 6.00 Build 0)  -->
<!DOCTYPE svg PUBLIC "-//W3C//DTD SVG 1.1//EN" "http://www.w3.org/Graphics/SVG/1.1/DTD/svg11.dtd">
<svg version="1.1" id="Layer_1" xmlns="http://www.w3.org/2000/svg" xmlns:xlink="http://www.w3.org/1999/xlink" x="0px" y="0px" style="fill:white"
	 viewBox="0 123.307 595.281 595.275" enable-background="new 0 123.307 595.281 595.275"
	 xml:space="preserve">
<g>
	<g>
		<path class="red" style="fill:red" d="M171.872,208.916c1.368-0.476,2.725-0.932,4.057-1.349c12.553,18.474,37.907,30.848,67.811,30.848
			c42.759,0,76.252-25.282,76.252-57.556c0.002-32.274-33.491-57.554-76.248-57.554c-34.372,0-62.739,16.342-72.553,39.513
			c-1.321,0.333-2.656,0.693-3.999,1.071C164.983,179.027,166.386,195.854,171.872,208.916z M243.744,167.706
			c20.556,0,31.852,9.88,31.852,13.155s-11.296,13.155-31.852,13.155s-31.852-9.88-31.852-13.155
			C211.891,177.586,223.186,167.706,243.744,167.706z"/>
		<path d="M564.705,276.492c-8.42-13.43-22.895-21.448-38.719-21.448H140.274c-15.824,0-30.299,8.018-38.719,21.448
			c-8.327,13.28-9.24,29.591-2.444,43.635c28.27,58.419,111.854,98.97,211.819,104.231v67.934l-12.178-1.073
			c-4.992-0.439-9.967-0.867-14.921-1.294c-48.398-4.159-94.11-8.085-131.076-21.689c-18.565-6.833-33.608-15.606-45.985-26.825
			c-13.669-12.391-24.157-27.792-32.057-47.079c-6.926-16.907-8.67-44.58-4.553-72.215c4.191-28.12,13.646-51.863,25.293-63.511
			l0.743-0.741l0.668-0.81c15.063-18.219,48.126-38.779,75.005-48.139c-5.485-13.062-6.888-29.889-4.679-45.026
			C130.457,174.216,86,201.049,63.309,227.973c-39.789,40.829-49.635,134.468-29.68,183.188
			c19.651,47.973,53.603,80.272,103.796,98.744c42.559,15.663,91.157,19.838,142.607,24.259c4.921,0.423,9.864,0.847,14.824,1.284
			l16.076,1.416v48.546l-81.533,8.204c-12.2,1.229-21.093,12.112-19.866,24.313c1.151,11.442,10.801,19.979,22.063,19.979
			c0.743,0,1.495-0.037,2.25-0.112l77.087-7.758v44.149h-98.284c-12.26,0-22.2,9.94-22.2,22.2s9.939,22.2,22.2,22.2h240.963
			c12.262,0,22.201-9.94,22.201-22.2c0-12.261-9.939-22.2-22.201-22.2H355.33v-48.617l51.338-5.166
			c30.852-3.103,54.115-28.825,54.115-59.834c0-31.394-23.584-57.146-54.855-59.903l-50.6-4.459v-71.846
			c99.965-5.262,183.549-45.813,211.818-104.231C573.945,306.084,573.031,289.772,564.705,276.492z M355.332,540.776l46.699,4.116
			c8.184,0.723,14.355,7.461,14.355,15.675c0,8.113-6.088,14.846-14.162,15.655l-46.893,4.719V540.776z M527.183,300.786
			c-22.365,46.216-103.977,79.761-194.051,79.761c-90.077,0-171.687-33.544-194.053-79.761c-0.088-0.183-0.152-0.314,0.094-0.708
			c0.398-0.635,0.874-0.635,1.101-0.635h385.711c0.229,0,0.705,0,1.102,0.635C527.335,300.471,527.271,300.603,527.183,300.786z"/>
	</g>
</g>
</svg>
