<?xml version="1.0" encoding="utf-8"?>
<!-- Generator: Adobe Illustrator 15.0.0, SVG Export Plug-In . SVG Version: 6.00 Build 0)  -->
<!DOCTYPE svg PUBLIC "-//W3C//DTD SVG 1.1//EN" "http://www.w3.org/Graphics/SVG/1.1/DTD/svg11.dtd">
<svg version="1.1" id="Capa_1" xmlns="http://www.w3.org/2000/svg" xmlns:xlink="http://www.w3.org/1999/xlink" x="0px" y="0px" style="fill:white"
	 viewBox="0 123.307 595.281 595.275" enable-background="new 0 123.307 595.281 595.275"
	 xml:space="preserve">
<g>
	<g>
		<path d="M133.469,123.325L0,256.762v461.803h595.281v-595.24H133.469z M580.806,704.092H14.485V262.757L139.463,137.8h441.343
			V704.092z"/>
		<path d="M158.857,165.58L44.029,280.417v396.729h511.557V165.58H158.857z M541.115,662.651H58.514v-376.24l106.357-106.378h376.24
			v440.352H108.677V305.282l94.273-89h294.153v83.914l-90.261,90.251c-0.781,6.898-0.729,13.797-0.205,20.696l104.94-104.931
			V201.788H197.175L95.215,298.037l-1.053,0.972v335.833h446.953V662.651z"/>
		<path class="red" style="fill:red" d="M404.312,344.969h-164.34v164.297h164.34v-95.797l2.325-2.325c-0.524-6.898-0.576-13.797,0.205-20.696l-2.53,2.53V344.969
			z M389.794,494.803H254.478v-135.35h135.316V494.803z"/>
	</g>
</g>
</svg>
