<?xml version="1.0" encoding="UTF-8" standalone="no"?>
<!-- Generator: Adobe Illustrator 15.0.0, SVG Export Plug-In . SVG Version: 6.00 Build 0)  -->

<svg
   xmlns:dc="http://purl.org/dc/elements/1.1/"
   xmlns:cc="http://creativecommons.org/ns#"
   xmlns:rdf="http://www.w3.org/1999/02/22-rdf-syntax-ns#"
   xmlns:svg="http://www.w3.org/2000/svg"
   xmlns="http://www.w3.org/2000/svg"
   xmlns:sodipodi="http://sodipodi.sourceforge.net/DTD/sodipodi-0.dtd"
   xmlns:inkscape="http://www.inkscape.org/namespaces/inkscape"
   version="1.1"
   id="Capa_1"
   x="0px"
   y="0px"
   style="fill:white"
   viewBox="0 123.307 595.281 595.275"
   enable-background="new 0 123.307 595.281 595.275"
   xml:space="preserve"
   inkscape:version="0.91 r13725"
   sodipodi:docname="chess.svg"><metadata
     id="metadata15"><rdf:RDF><cc:Work
         rdf:about=""><dc:format>image/svg+xml</dc:format><dc:type
           rdf:resource="http://purl.org/dc/dcmitype/StillImage" /></cc:Work></rdf:RDF></metadata><defs
     id="defs13" /><sodipodi:namedview
     pagecolor="#ffffff"
     bordercolor="#666666"
     borderopacity="1"
     objecttolerance="10"
     gridtolerance="10"
     guidetolerance="10"
     inkscape:pageopacity="0"
     inkscape:pageshadow="2"
     inkscape:window-width="852"
     inkscape:window-height="480"
     id="namedview11"
     showgrid="false"
     inkscape:zoom="0.3964554"
     inkscape:cx="297.6405"
     inkscape:cy="297.63751"
     inkscape:window-x="0"
     inkscape:window-y="0"
     inkscape:window-maximized="0"
     inkscape:current-layer="Capa_1" /><g
     id="g3"><path
       class="red" style="fill:red"
       d="M 311.29883 126.41016 C 299.93452 130.0831 289.46334 135.96742 278.34666 140.27357 C 260.56704 148.03394 242.78743 155.79432 225.00781 163.55469 C 245.91382 162.64593 266.88978 164.01031 287.76547 162.66462 C 297.99009 158.7471 307.56594 152.76524 318.40369 150.69487 C 359.35135 153.45562 400.37893 166.22744 433.19357 191.39017 C 463.11444 214.4289 482.87686 249.36582 489.47176 286.35913 C 495.56401 318.13709 493.24593 350.63371 493.78577 382.77994 C 493.84783 415.20599 493.97433 447.63825 493.1543 480.05664 C 491.06775 484.60175 485.21228 484.25378 481.01838 483.96159 C 473.58704 484.08393 466.15474 484.12158 458.72266 484.17188 C 457.96519 490.55074 457.77739 496.97863 457.69727 503.39648 C 474.24685 503.17399 490.8769 504.56329 507.36883 502.93842 C 513.11896 500.29747 514.22769 493.07472 513.35948 487.43794 C 513.87808 428.36154 515.44848 369.28056 514.61015 310.202 C 512.30026 268.67447 498.65705 226.72589 470.98542 195.08262 C 443.70411 163.6463 405.38495 143.20008 365.23489 133.49048 C 347.61793 129.05563 329.50968 126.15924 311.29883 126.41016 z "
       id="path5" /><path
       d="M 241.2832 169.34375 C 230.44998 169.62857 219.34493 168.45666 208.7473 171.06582 C 202.00015 177.02655 199.23977 185.97133 193.84225 192.98658 C 150.02484 263.96773 105.533 334.54737 61.756953 405.5433 C 59.661761 411.97499 64.185653 418.36884 69.27118 421.92157 C 88.106328 439.92697 106.02977 458.93598 125.60055 476.13241 C 131.50909 478.63561 137.65593 474.81151 142.05127 471.05353 C 167.71003 453.85608 192.95947 436.0373 219.04883 419.49023 C 223.55064 419.13839 229.11883 417.40372 232.75781 421.06445 C 235.53616 426.62944 232.96662 432.87085 233.10159 438.72606 C 230.75211 459.07137 220.16371 478.05065 204.85261 491.51495 C 176.09565 520.87616 154.0973 558.22489 148.00195 599.2793 C 146.29444 610.25039 146.30055 621.40191 146.61133 632.46484 C 145.80878 636.99075 140.55359 637.72676 137.65106 640.47219 C 127.89475 647.79185 121.5533 659.57683 121.45215 671.85465 C 120.55724 687.65038 129.06951 704.14268 143.73945 710.8243 C 152.22137 714.99331 161.8989 715.09367 171.13033 714.56251 C 279.90095 713.64237 388.67989 713.75792 497.45092 714.04878 C 517.7799 713.17856 534.49877 693.40751 533.20117 673.32031 C 533.48573 656.90559 522.80828 640.42835 506.88383 635.4916 C 499.63014 632.94552 491.81605 633.19442 484.27344 633.29883 C 478.58575 631.66435 476.88947 625.25726 473.70105 620.97381 C 455.45652 591.2422 446.00335 556.32207 446.322 521.46507 C 446.13281 501.19009 447.78564 480.95875 448.80243 460.72374 C 451.70495 418.52868 455.12361 376.23171 453.46425 333.90733 C 451.82652 300.83549 441.76095 267.70796 422.15493 240.79044 C 400.21816 210.93515 367.10266 190.82448 332.05021 180.0324 C 318.24336 175.84748 304.10619 172.68345 289.82812 170.61523 C 277.14284 168.84356 264.31197 169.63513 251.55067 169.28874 C 248.12844 169.28934 244.70386 169.22271 241.2832 169.34375 z M 244.32031 191.37695 C 285.45753 191.31967 327.6663 198.27711 363.87628 218.68806 C 395.4493 236.39101 419.05642 267.58742 427.53988 302.78193 C 435.66018 333.81126 433.95589 366.18932 433.05176 397.92569 C 431.52535 440.90823 427.01918 483.78807 427.3554 526.82939 C 428.16989 557.42102 434.30135 588.23443 448.26392 615.64204 C 449.65423 618.59308 452.06627 622.88285 449.13477 625.65039 C 445.08092 629.14345 439.38704 627.14795 434.57711 627.6028 C 368.6896 627.74875 302.79867 628.00889 236.91406 627.23828 C 232.25752 625.49495 232.16718 619.58841 232.7457 615.44215 C 234.1112 578.10021 251.43609 542.9088 275.38477 514.83789 C 279.98139 509.07746 286.02032 504.46468 289.81483 498.09896 C 293.44929 491.21099 284.58309 482.36637 277.70117 486.08008 C 270.90023 489.84303 266.88192 496.79806 261.40848 502.08167 C 236.78867 530.2907 218.70857 565.06394 213.72334 602.43873 C 212.87811 609.70648 213.12512 617.14081 211.7354 624.31348 C 208.85466 628.45954 203.1472 627.11842 198.86773 627.02283 C 189.27901 626.70735 179.39795 628.10479 170.04032 625.66209 C 165.93641 621.54153 168.07855 615.31234 168.16306 610.21897 C 170.64138 576.14821 186.34594 544.19818 207.77812 518.05175 C 220.33829 502.9223 236.23824 489.91128 244.03643 471.39307 C 251.8627 454.47912 253.66304 435.59316 254.21638 417.1968 C 255.59719 412.29913 261.45472 411.73132 265.37756 409.81573 C 289.26278 399.64561 306.69735 376.72623 311.54314 351.37708 C 315.98132 331.21639 315.62184 309.96357 310.51689 289.98025 C 307.13161 283.07886 295.67371 282.43771 292.11507 289.55252 C 288.88082 295.26192 292.27657 301.62534 292.71919 307.57638 C 295.66424 328.58153 294.24534 351.27369 283.15609 369.85965 C 273.10424 385.89642 254.84898 395.31538 236.39448 397.58508 C 228.20242 398.86972 219.76926 398.47032 211.65782 400.10072 C 204.91713 402.94473 199.63341 408.24169 193.2407 411.72428 C 173.21709 424.69926 153.58269 438.28396 133.20703 450.70898 C 127.65417 450.86369 125.09223 445.03383 121.34695 441.97199 C 110.58008 430.75621 99.217885 420.09409 89.068359 408.30078 C 88.799787 402.60635 93.861757 398.81399 95.988639 393.99964 C 99.537709 390.5635 105.62932 393.17364 108.91169 389.19264 C 113.28654 385.42053 114.05969 378.47528 110.89647 373.71933 C 110.00191 368.84707 114.50142 365.40981 116.40231 361.39257 C 151.47132 305.30017 186.71273 249.31343 222.04297 193.38672 C 229.11441 190.39942 236.92024 192.1912 244.32031 191.37695 z M 399.38477 653.45703 C 432.28634 653.74624 465.21195 653.29601 498.09519 654.37493 C 508.8033 656.87813 514.47264 669.73099 511.12465 679.78276 C 508.58263 688.86693 498.50102 694.66675 489.34026 692.90744 C 381.0607 693.63838 272.77401 693.48208 164.49777 692.49921 C 157.74281 692.85731 150.03696 690.64258 146.67674 684.26749 C 140.60503 674.83201 143.95036 659.94018 154.78168 655.61726 C 161.60741 653.00879 169.01409 654.94131 176.09949 654.27528 C 250.52573 653.59374 324.95549 653.30939 399.38477 653.45703 z "
       id="path7" /><path
       d="M 210.79297 283.7832 C 204.33452 283.92379 200.62423 290.0724 197.03906 294.57617 C 192.54374 299.21394 191.92875 308.14655 197.78516 311.9668 C 202.919 315.91066 211.2158 314.16585 214.23317 308.39644 C 217.9138 303.93 223.00469 298.88368 221.75907 292.55639 C 220.65048 287.64956 216.01614 283.33731 210.79297 283.7832 z "
       id="path9" /></g></svg>