<?xml version="1.0" encoding="utf-8"?>
<!-- Generator: Adobe Illustrator 15.0.0, SVG Export Plug-In . SVG Version: 6.00 Build 0)  -->
<!DOCTYPE svg PUBLIC "-//W3C//DTD SVG 1.1//EN" "http://www.w3.org/Graphics/SVG/1.1/DTD/svg11.dtd">
<svg version="1.1" id="Layer_1" xmlns="http://www.w3.org/2000/svg" xmlns:xlink="http://www.w3.org/1999/xlink" x="0px" y="0px" style="fill:#1C2833"
	  viewBox="0 123.307 595.281 595.275" enable-background="new 0 123.307 595.281 595.275"
	 xml:space="preserve">
<g>
	<g>
		<path class="red" style="fill:red" d="M308.989,221.985v-10.21h51.984c6.543,0,11.848-5.855,11.848-13.075v-46.116c0-7.222-5.305-13.074-11.848-13.074h-63.833
			c-6.542,0-11.847,5.853-11.847,13.074v69.186C292.912,219.95,301.371,222.814,308.989,221.985z M308.987,165.66h40.139v19.962
			h-40.139V165.66z"/>
		<path d="M582.645,409.792H404.156v-70.188c0-60.709-41.713-110.858-95.167-117.385v-0.234c-7.618,0.829-16.078-2.033-23.695-0.217
			v0.449c-53.454,6.528-95.168,56.679-95.168,117.387v70.188H11.635c-6.542,0-11.846,5.853-11.846,13.074v266.44
			c0,7.222,5.305,13.074,11.846,13.074h571.01c6.543,0,11.849-5.854,11.849-13.074v-266.44
			C594.494,415.644,589.188,409.792,582.645,409.792z M190.125,676.232H23.481V510.239h166.644V676.232L190.125,676.232
			L190.125,676.232z M190.125,484.088H23.481v-48.146h166.644V484.088L190.125,484.088L190.125,484.088z M297.141,247.641
			c41.922,0,76.712,34.35,82.481,78.889h-49.985h-64.991H214.66C220.428,281.99,255.217,247.641,297.141,247.641z M317.791,676.232
			h-41.3V600.92c0-12.565,9.263-22.79,20.65-22.79c11.387,0,20.65,10.223,20.65,22.79V676.232L317.791,676.232z M380.458,676.232
			h-38.974V600.92c0-26.985-19.892-48.943-44.344-48.943c-24.452,0-44.344,21.958-44.344,48.943v75.313h-38.978V352.68h38.978
			v149.606c0,7.223,5.305,13.076,11.846,13.076c6.542,0,11.847-5.854,11.847-13.076V352.68h41.299v94.523
			c0,7.223,5.304,13.075,11.846,13.075c6.541,0,11.847-5.854,11.847-13.075V352.68h38.978V676.232L380.458,676.232z
			 M570.799,676.232H404.156V510.239h166.644V676.232L570.799,676.232z M570.799,484.088H404.156v-48.146h166.644V484.088
			L570.799,484.088z"/>
	</g>
</g>
<g>
	<g>
		<path d="M329.636,475.12c-6.54,0-11.846,5.854-11.846,13.075v14.09c0,7.222,5.304,13.075,11.846,13.075
			c6.541,0,11.847-5.854,11.847-13.075v-14.09C341.485,480.973,336.179,475.12,329.636,475.12z"/>
	</g>
</g>
<g>
	<g>
		<path d="M85.913,531.483H54.576c-6.542,0-11.847,5.854-11.847,13.073v76.859c0,7.222,5.305,13.075,11.847,13.075h31.336
			c6.542,0,11.846-5.854,11.846-13.075v-76.859C97.758,537.337,92.456,531.483,85.913,531.483z M74.066,608.339h-7.643v-50.706
			h7.643V608.339z"/>
	</g>
</g>
<g>
	<g>
		<path d="M160.19,531.483h-31.335c-6.542,0-11.847,5.854-11.847,13.073v76.859c0,7.222,5.305,13.075,11.847,13.075h31.335
			c6.542,0,11.847-5.854,11.847-13.075v-76.859C172.037,537.337,166.733,531.483,160.19,531.483z M148.344,608.339h-7.643v-50.706
			h7.643V608.339z"/>
	</g>
</g>
<g>
	<g>
		<path d="M465.427,531.482h-31.335c-6.543,0-11.849,5.854-11.849,13.073v76.859c0,7.222,5.304,13.075,11.849,13.075h31.335
			c6.542,0,11.846-5.854,11.846-13.075v-76.858C477.273,537.336,471.969,531.482,465.427,531.482z M453.581,608.342h-7.643v-50.708
			h7.643V608.342z"/>
	</g>
</g>
<g>
	<g>
		<path d="M539.705,531.482H508.37c-6.542,0-11.848,5.854-11.848,13.073v76.859c0,7.222,5.306,13.075,11.848,13.075h31.335
			c6.543,0,11.846-5.854,11.846-13.075v-76.858C551.55,537.336,546.248,531.482,539.705,531.482z M527.859,608.342h-7.644v-50.708
			h7.644V608.342z"/>
	</g>
</g>
</svg>
