<?xml version='1.0' encoding='iso-8859-1'?>
<svg version="1.1" xmlns="http://www.w3.org/2000/svg" viewBox="0 0 44 44" xmlns:xlink="http://www.w3.org/1999/xlink" style="fill:#1C2833" enable-background="new 0 0 44 44">
  <g>
    <g>
      <path d="m31.692,18.471c-0.391-0.391-1.023-0.391-1.414,0l-9.606,9.606-4.95-4.95c-0.391-0.391-1.023-0.391-1.414,0-0.391,0.391-0.391,1.023 0,1.414l5.657,5.657c0.391,0.391 1.023,0.391 1.414,0l10.313-10.313c0.391-0.39 0.391-1.024 0-1.414z"/>
    </g>
  </g>
  <g>
    <g>
      <path d="m8.488,21.918l-.426,.103c0.155,0.001 0.296-0.04 0.426-0.103zm28.484-2.863c0.01-0.187 0.028-0.374 0.028-0.564 0-5.247-4.253-9.5-9.5-9.5-3.977,0-7.379,2.446-8.794,5.914-1.108-0.581-2.368-0.914-3.706-0.914-3.731,0-6.856,2.558-7.741,6.012-4.03,0.128-7.259,3.427-7.259,7.488 0,3.264 1.183,6.377 5,7.502v-0.002h33v0.019c4.011-0.795 6-4.292 6-8.019 0-4.089-3.069-7.455-7.028-7.936zm-.472,13.936h-29.5l-1.438,.012c-2.362-0.907-3.562-2.646-3.562-5.512 0-3.037 2.463-5.5 5.5-5.5l.988-.072c0.337-0.161 0.574-0.498 0.574-0.897 0-0.011-0.006-0.021-0.007-0.031 0.016-0.017 0.001,0.031 0.007,0 0.502-2.807 2.986-5 5.938-5 1.338,0 2.666,0.47 3.663,1.21 0.035,0.026-0.024,0.01 0.009,0.021 0.165,0.121 0.358,0.206 0.578,0.206 0.495,0 0.919-0.43 0.999-0.902 0.016-0.026 0.005,0.022 0.016-0.017 0.869-3.181 3.779-5.519 7.235-5.519 4.143,0 7.5,3.357 7.5,7.5 0,0.419-0.067,1.078-0.135,1.477l.01,.023c0,0.553 0.447,1 1,1 0.026,0 0.049-0.014 0.075-0.016 0.019,0.004 0.026,0.016 0.05,0.016 3.313,0 6,2.687 6,6s-2.187,6.001-5.5,6.001z"/>
    </g>
  </g>
</svg>
