<?xml version="1.0" encoding="utf-8"?>
<!-- Generator: Adobe Illustrator 15.0.0, SVG Export Plug-In . SVG Version: 6.00 Build 0)  -->
<!DOCTYPE svg PUBLIC "-//W3C//DTD SVG 1.1//EN" "http://www.w3.org/Graphics/SVG/1.1/DTD/svg11.dtd">
<svg version="1.1" id="Layer_1" xmlns="http://www.w3.org/2000/svg" xmlns:xlink="http://www.w3.org/1999/xlink" x="0px" y="0px" style="fill:#1C2833"
	  viewBox="0 123.307 595.281 595.275" enable-background="new 0 123.307 595.281 595.275"
	 xml:space="preserve">
<g>
	<g>
		<path d="M315.019,475.515c-12.279-17.374-32.002-27.99-53.148-28.793c-0.448-0.051-0.901-0.078-1.362-0.078
			c-26.898,0-49.124-20.328-52.155-46.425c7.745-5.641,14.89-12.798,21.223-21.371c12.807-17.339,21.12-39.004,24.202-62.433
			c0.944-1.026,1.739-2.222,2.31-3.582c5.423-12.912,8.172-26.698,8.172-40.974c0-54.902-41.509-99.566-92.528-99.566
			c-13.195,0-25.997,2.997-38.098,8.911c-4.524,0.382-8.957,1.195-13.213,2.428c-42.653,12.323-66.761,63.896-53.738,114.964
			c1.31,5.138,2.976,10.19,4.955,15.017c0.54,1.318,1.295,2.477,2.186,3.488c4.913,36.067,21.983,66.077,45.331,83.053
			c-3.001,26.13-25.244,46.492-52.165,46.492c-0.414,0-0.823,0.022-1.228,0.062C29.281,447.998,0,478.055,0,514.844v73.41
			c0,6.849,5.552,12.4,12.401,12.4h219.104c6.848,0,12.401-5.552,12.401-12.4c0-6.85-5.553-12.401-12.401-12.401H24.801v-61.01
			c0-23.934,19.47-43.402,43.402-43.402c0.414,0,0.823-0.022,1.228-0.062c8.933-0.279,17.486-2.076,25.414-5.149l0.681,0.983
			c6.929-4.286,14.585-7.845,22.336-11.309l-1.571-2.268c12.731-10.563,22.011-25.132,25.935-41.749
			c6.91,2.163,14.116,3.312,21.52,3.312c7.364,0,14.576-1.117,21.533-3.275c3.928,16.601,13.205,31.155,25.927,41.712l-0.85,1.227
			c8.076,2.902,13.58,9.647,20.557,13.88l1.741-2.513c7.928,3.073,16.48,4.87,25.413,5.149c0.405,0.039,0.814,0.062,1.228,0.062
			c14.074,0,27.335,6.874,35.473,18.388c2.416,3.418,6.246,5.243,10.136,5.243c2.475,0,4.973-0.739,7.148-2.275
			C317.642,488.846,318.97,481.107,315.019,475.515z M127.301,207.455c3.253-0.939,6.693-1.498,10.227-1.657
			c1.82-0.081,3.597-0.563,5.211-1.41c9.215-4.842,18.967-7.297,28.988-7.297c36.589,0,66.474,32.198,67.671,72.272
			c-7.458-5.639-16.734-8.99-26.782-8.99h-64.852c-3.23,0-6.297-1.014-8.865-2.932c-2.198-1.64-3.896-3.842-4.911-6.373
			c-2.343-5.83-8.138-9.472-14.397-9.076c-6.297,0.403-11.595,4.78-13.182,10.884c-3.164,12.153-9.07,23.472-17.101,33.083
			C82.877,250.003,99.073,215.61,127.301,207.455z M163.745,390.397c-15.792,0-31.167-8.158-43.292-22.971
			c-11.764-14.369-19.548-33.711-22.232-54.952c10.832-9.929,19.597-21.962,25.717-35.251c0.042,0.031,0.085,0.063,0.128,0.094
			c6.889,5.142,15.083,7.857,23.7,7.857h64.852c7.79,0,14.518,4.558,17.712,11.135c-0.083,25.761-7.422,49.824-20.702,67.8
			C197.103,381.061,180.809,390.397,163.745,390.397z"/>
		<path class="red" style="fill:red" d="M163.746,522.132l-45.885-66.227c-7.751,3.464-15.408,7.022-22.336,11.309l58.029,83.754
			c2.316,3.343,6.125,5.339,10.193,5.339c4.068,0,7.877-1.995,10.193-5.339l56.971-82.225c-6.977-4.232-12.48-10.978-20.557-13.88
			L163.746,522.132z"/>
	</g>
</g>
<g>
	<g>
		<path class="red" style="fill:red" d="M431.533,599.506c37.669,0,70.326-24.716,81.439-59.509c-7.454-2.848-15.656-6.445-23.081-9.264
			c-7.334,25.606-30.989,43.969-58.356,43.969c-27.082,0-50.52-17.979-58.114-43.161c-8.264,1.07-15.7,4.648-23.091,9.171
			C361.656,575.128,394.123,599.506,431.533,599.506z"/>
		<path d="M529.521,515.649c-0.404-0.04-0.814-0.063-1.229-0.063c-26.936,0-49.186-20.382-52.17-46.532
			c15.188-11.06,27.709-27.642,35.963-47.808c1.182,3.865,4.205,6.985,8.184,8.219c1.209,0.375,2.447,0.558,3.67,0.558
			c3.758,0,7.395-1.713,9.787-4.783c17.301-22.222,26.295-51.142,25.326-81.435c-0.949-29.717-11.396-57.615-29.418-78.552
			c-18.449-21.438-42.807-33.367-68.609-33.613c-1.369-0.057-4.773,0.062-5.322,0.095c-13.256-6.013-27.264-8.822-41.691-8.364
			c-29.793,0.952-57.197,15.802-77.164,41.813c-19.402,25.277-29.479,58.247-28.373,92.838c0.188,5.861,0.65,11.259,1.398,16.397
			c2.02,14.741,6.082,28.859,12.07,41.961c1.906,4.171,5.957,6.949,10.533,7.224c4.561,0.276,8.93-1.997,11.324-5.909
			c0.996-1.632,2.279-3.665,3.693-5.658c5.529,16.795,13.98,31.884,24.711,43.797c4.576,5.082,9.521,9.502,14.727,13.272
			c-3.006,26.124-25.246,46.479-52.164,46.479c-0.414,0-0.822,0.022-1.227,0.062c-36.478,1.293-65.758,31.354-65.758,68.14v73.41
			c0,6.85,5.553,12.401,12.401,12.401h302.693c6.848,0,12.4-5.552,12.4-12.401v-73.41
			C595.279,547.002,565.998,516.943,529.521,515.649z M337.3,385.629c-1.223-4.776-2.182-9.674-2.869-14.68
			c-0.627-4.311-1.008-8.799-1.166-13.718c-0.922-28.877,7.336-56.204,23.258-76.944c15.357-20.007,36.055-31.415,58.281-32.126
			c0.744-0.024,16.729-0.924,33.045,7.299c1.824,0.918,3.926,1.345,5.973,1.286c0.236-0.007,6.602-0.308,6.785-0.306
			c18.627,0.124,36.465,9,50.23,24.994c14.338,16.658,22.656,39.091,23.426,63.166c0.418,13.076-1.418,25.787-5.309,37.482
			c-1.172-3.123-2.479-6.198-3.918-9.223c-11.973-25.474-32.127-45.205-56.75-55.561c-3.121-1.312-6.639-1.292-9.742,0.055
			c-3.104,1.346-5.521,3.9-6.695,7.075c-1.65,4.46-3.65,8.805-5.947,12.912c-6.492,11.61-19.582,18.518-34.137,18.008
			c-2.186-0.074-4.402-0.077-6.588-0.008c-10.723,0.343-21.18,2.387-31.137,6.095C364.207,365.147,347.681,374.46,337.3,385.629z
			 M367.806,392.378c4.703-3.149,9.705-5.743,14.945-7.723c7.375-2.747,15.188-4.27,23.217-4.526
			c1.641-0.054,3.301-0.052,4.938,0.006c23.943,0.819,45.596-10.936,56.643-30.689c0.678-1.215,1.338-2.449,1.977-3.694
			c11.311,6.968,20.979,16.789,28.246,28.709c-0.063,0.367-0.115,0.735-0.146,1.114c-1.9,23.529-10.018,45.122-22.855,60.802
			c-12.125,14.813-27.5,22.971-43.291,22.971C402.283,459.344,376.312,431.593,367.806,392.378z M570.478,644.799H292.587v-61.01
			c0-23.932,19.469-43.402,43.401-43.402c0.414,0,0.824-0.022,1.229-0.062c4.27-0.134,8.457-0.604,12.527-1.405
			c0.184,0.603,0.39,1.195,0.586,1.792c7.391-4.522,14.827-8.101,23.091-9.171c-0.133-0.44-0.272-0.877-0.396-1.321
			c18.355-10.496,32.01-28.289,36.99-49.407c6.979,2.181,14.178,3.332,21.463,3.332c7.422,0,14.645-1.155,21.572-3.33
			c4.98,21.117,18.637,38.909,36.994,49.407c-0.048,0.172-0.104,0.341-0.153,0.512c7.425,2.818,15.627,6.416,23.081,9.264
			c0.114-0.36,0.241-0.714,0.352-1.076c4.068,0.802,8.256,1.271,12.525,1.404c0.404,0.039,0.814,0.062,1.227,0.062
			c23.934,0,43.402,19.47,43.402,43.402V644.799z"/>
	</g>
</g>
</svg>
