<?xml version="1.0" encoding="iso-8859-1"?>
<!-- Generator: Adobe Illustrator 19.0.0, SVG Export Plug-In . SVG Version: 6.00 Build 0)  -->
<svg version="1.1" id="Layer_1" xmlns="http://www.w3.org/2000/svg" xmlns:xlink="http://www.w3.org/1999/xlink" x="0px" y="0px"
	 viewBox="0 0 512 512" style="enable-background:new 0 0 512 512;fill:#1C2833" xml:space="preserve">
<g>
	<g>
		<g stroke-width="0">
			<path class="green" style="fill:red" d="M256,136.533c-75.281,0-136.533,61.252-136.533,136.533S180.719,409.6,256,409.6s136.533-61.252,136.533-136.533
				c0-61.252-41.19-115.379-100.164-131.635c-4.557-1.263-9.242,1.417-10.496,5.956c-1.254,4.548,1.417,9.242,5.956,10.496
				c51.601,14.225,87.637,61.585,87.637,115.183c0,65.877-53.589,119.467-119.467,119.467s-119.467-53.589-119.467-119.467
				c0-63.002,49.033-114.773,110.933-119.168v42.368c0,4.71,3.823,8.533,8.533,8.533s8.533-3.823,8.533-8.533v-51.2
				C264.533,140.356,260.71,136.533,256,136.533z"/>
			<path  d="M401.067,494.933h-358.4c-14.114,0-25.6-11.486-25.6-25.6v-25.6h51.2v25.6c0,4.71,3.823,8.533,8.533,8.533
				s8.533-3.823,8.533-8.533V8.533C85.333,3.823,81.51,0,76.8,0H42.667C19.14,0,0,19.14,0,42.667v426.667
				C0,492.86,19.14,512,42.667,512h358.4c4.71,0,8.533-3.823,8.533-8.533S405.777,494.933,401.067,494.933z M17.067,42.667
				c0-14.114,11.486-25.6,25.6-25.6h25.6v68.267h-51.2V42.667z M17.067,102.4h51.2v51.2h-51.2V102.4z M17.067,170.667h51.2v51.2
				h-51.2V170.667z M17.067,238.933h51.2v51.2h-51.2V238.933z M17.067,307.2h51.2v51.2h-51.2V307.2z M17.067,375.467h51.2v51.2
				h-51.2V375.467z"/>
			<path  class="green" style="fill:red" d="M224.973,193.545c4.386-1.715,6.554-6.665,4.847-11.051c-1.715-4.386-6.656-6.562-11.059-4.847
				c-39.578,15.454-65.161,52.915-65.161,95.42c0,56.465,45.935,102.4,102.4,102.4s102.4-45.935,102.4-102.4
				c0-42.496-25.574-79.949-65.143-95.411c-4.369-1.69-9.344,0.452-11.059,4.847c-1.707,4.386,0.461,9.336,4.847,11.051
				c32.981,12.885,54.289,44.1,54.289,79.514c0,47.053-38.281,85.333-85.333,85.333s-85.333-38.281-85.333-85.333
				C170.667,237.645,191.983,206.421,224.973,193.545z"/>
			<path d="M469.333,0h-358.4c-4.71,0-8.533,3.823-8.533,8.533s3.823,8.533,8.533,8.533h358.4c14.114,0,25.6,11.486,25.6,25.6
				v42.667h-51.2V42.667c0-4.71-3.823-8.533-8.533-8.533s-8.533,3.823-8.533,8.533v460.8c0,4.71,3.823,8.533,8.533,8.533h34.133
				C492.86,512,512,492.86,512,469.333V42.667C512,19.14,492.86,0,469.333,0z M494.933,469.333c0,14.114-11.486,25.6-25.6,25.6
				h-25.6v-51.2h51.2V469.333z M494.933,426.667h-51.2v-51.2h51.2V426.667z M494.933,358.4h-51.2v-51.2h51.2V358.4z
				 M494.933,290.133h-51.2v-51.2h51.2V290.133z M494.933,221.867h-51.2v-51.2h51.2V221.867z M494.933,153.6h-51.2v-51.2h51.2V153.6
				z"/>
			<path  d="M269.056,223.164c-3.994-2.492-9.259-1.289-11.759,2.714l-42.667,68.267c-1.647,2.628-1.732,5.948-0.23,8.661
				c1.51,2.714,4.361,4.395,7.467,4.395H256v8.533c0,4.71,3.823,8.533,8.533,8.533c4.71,0,8.533-3.823,8.533-8.533V307.2h8.533
				c4.71,0,8.533-3.823,8.533-8.533s-3.823-8.533-8.533-8.533h-8.533V281.6c0-4.71-3.823-8.533-8.533-8.533
				c-4.71,0-8.533,3.823-8.533,8.533v8.533h-18.739l34.509-55.211C274.27,230.929,273.058,225.664,269.056,223.164z"/>
		</g>
	</g>
</g>
<g>
</g>
<g>
</g>
<g>
</g>
<g>
</g>
<g>
</g>
<g>
</g>
<g>
</g>
<g>
</g>
<g>
</g>
<g>
</g>
<g>
</g>
<g>
</g>
<g>
</g>
<g>
</g>
<g>
</g>
</svg>
