<?xml version="1.0" encoding="utf-8"?>
<!-- Generator: Adobe Illustrator 15.0.0, SVG Export Plug-In . SVG Version: 6.00 Build 0)  -->
<!DOCTYPE svg PUBLIC "-//W3C//DTD SVG 1.1//EN" "http://www.w3.org/Graphics/SVG/1.1/DTD/svg11.dtd">
<svg version="1.1" id="Layer_1" xmlns="http://www.w3.org/2000/svg" xmlns:xlink="http://www.w3.org/1999/xlink" x="0px" y="0px" style="fill:white"
	 viewBox="0 123.307 595.281 595.275" enable-background="new 0 123.307 595.281 595.275"
	 xml:space="preserve">
<g>
	<g>
		<path class="red" style="fill:red" d="M455.958,599.051v-37.605c-12.468,0-25.576,0-37.994,0v77.177h-0.002l-18.998-9.048l-18.998,9.048v-77.177
			c-12.899,0-25.043,0-37.998,0v37.605h0.002h-0.002h-0.705c0.57,9.465-1.909,18.93,1.877,28.395
			c1.525,3.052-1.017,6.104-1.867,9.601h0.697V698.8l56.994-27.142l56.994,27.142v-61.754h2.031
			c-0.805-12.665-0.848-25.33-0.849-37.995H455.958z"/>
		<path d="M519.287,193.753V143.09H398.964c-42.492,0-79.91,22.141-101.324,55.493c-21.414-33.353-58.832-55.493-101.324-55.493
			H75.994v50.662H0v443.294h278.643h37.996h24.635c0.851-3.496,3.393-6.549,1.867-9.601c-3.786-9.465-1.307-18.93-1.877-28.395
			h-24.625v-37.997h25.33v0.392c12.955,0,25.099,0,37.998,0v-0.392h37.998v0.392c12.418,0,25.526,0,37.994,0v-0.392h63.328v-94.991
			v-18.998V231.75h37.996v367.301H457.141c0.001,12.665,0.044,25.33,0.849,37.995h137.291V193.753H519.287z M113.99,485.06h107.658
			c24.769,0,45.898,15.881,53.74,37.996H113.99V485.06z M278.643,599.051H37.997V231.75h37.997v215.313v18.998v94.991h202.649
			V599.051z M278.644,466.113L278.644,466.113c-15.889-11.953-35.628-19.05-56.996-19.05H113.99V181.087h82.327
			c45.395,0,82.327,36.932,82.327,82.326V466.113z M481.291,523.056h-25.332H436.96h-75.992H341.97h-22.076
			c7.84-22.114,28.971-37.996,53.74-37.996h107.656V523.056z M481.291,447.063H373.632c-21.369,0-41.107,7.097-56.994,19.05v-202.7
			c0-45.395,36.932-82.326,82.324-82.326h82.328V447.063z"/>
	</g>
</g>
</svg>
