<?xml version="1.0" encoding="utf-8"?>
<!-- Generator: Adobe Illustrator 15.0.0, SVG Export Plug-In . SVG Version: 6.00 Build 0)  -->
<!DOCTYPE svg PUBLIC "-//W3C//DTD SVG 1.1 Tiny//EN" "http://www.w3.org/Graphics/SVG/1.1/DTD/svg11-tiny.dtd">
<svg version="1.1" baseProfile="tiny" id="Layer_1" xmlns="http://www.w3.org/2000/svg" xmlns:xlink="http://www.w3.org/1999/xlink" style="fill:#1C2833"
	 x="0px" y="0px" viewBox="0 123.307 595.281 595.275" xml:space="preserve">
<g>
	<g>
		<path d="M174.987,473.263v56.387c-18.041,7.011-30.869,24.549-30.869,45.039c0,26.638,21.672,48.31,48.31,48.31
			s48.31-21.672,48.31-48.31c0-20.49-12.829-38.029-30.869-45.039v-56.387h8.817c-19.903-7.672-36.196-19.85-49.745-34.811
			c-0.31,0.013-0.62,0.026-0.93,0.038c5.759,7.668,6.106,23.072,6.127,34.772H174.987z M192.427,561.262
			c7.404,0,13.429,6.023,13.429,13.428c0,7.403-6.024,13.429-13.429,13.429c-7.405,0-13.428-6.023-13.428-13.429
			C179,567.286,185.023,561.262,192.427,561.262z"/>
		<path d="M427.497,438.502c1.495,12.058-8.149,22.531-6.379,34.762h1.22c50.408,0,91.418,41.011,91.418,91.417v119.025H81.528
			V564.68c0-50.407,41.011-91.417,91.417-91.417h1.193c-0.021-11.7-0.368-27.104-6.127-34.772
			c-67.363,2.601-121.367,58.201-121.367,126.188v153.905h501.99V564.68C548.636,496.769,494.754,441.218,427.497,438.502z"/>

		<path d="M297.642,123.305c-101.325,0-183.76,82.434-183.76,183.758c0,51.433,21.249,97.987,55.417,131.375
			c-0.12,0.004-0.238,0.01-0.357,0.015c13.549,14.961,29.842,27.139,49.745,34.811h0.5c20.322,9.622,41.849,15.314,64.203,17.01
			c0.265,0.021,0.531,0.035,0.795,0.055c1.269,0.091,2.537,0.178,3.812,0.241c0.709,0.038,1.422,0.059,2.132,0.087
			c0.87,0.034,1.737,0.076,2.609,0.1c1.63,0.043,3.264,0.066,4.904,0.066c1.641,0,3.276-0.024,4.907-0.066
			c0.865-0.022,1.727-0.064,2.59-0.099c0.717-0.029,1.436-0.05,2.15-0.088c1.271-0.064,2.539-0.15,3.807-0.241
			c0.266-0.02,0.535-0.034,0.799-0.055c21.112-1.602,41.488-6.771,60.807-15.448c-0.521,0.206-1.032,0.426-1.561,0.62
			c0.528-0.194,1.039-0.414,1.561-0.62c1.136-0.51,2.269-1.027,3.396-1.562h0.282c16.408-7.479,29.271-20.14,43.761-32.818
			c1.713-0.856,4.16-2.438,6.711-2.876c0.144-0.143,0.283-0.29,0.427-0.433c-0.045-0.23-0.084-0.46-0.138-0.691
			c0.054,0.231,0.093,0.461,0.138,0.691c33.401-33.291,54.122-79.299,54.122-130.072C481.4,205.739,398.966,123.305,297.642,123.305
			z M297.642,158.186c53.053,0,99.703,27.898,126.076,69.791c-20.674,14.17-45.246,21.876-70.557,21.876
			c-33.367,0-64.735-13-88.321-36.603l-11.482-11.49l-12.276,10.638c-17.205,14.911-39.237,23.123-62.036,23.123
			c-3.875,0-7.726-0.237-11.536-0.7C192.962,189.151,241.75,158.186,297.642,158.186z M312.97,455.156
			c-0.098,0.011-0.193,0.02-0.291,0.029c-1.08,0.109-2.164,0.203-3.25,0.289c-0.381,0.029-0.764,0.055-1.146,0.082
			c-0.871,0.062-1.744,0.119-2.619,0.166c-0.699,0.036-1.4,0.063-2.102,0.089c-0.609,0.024-1.219,0.054-1.832,0.07
			c-1.359,0.036-2.723,0.058-4.088,0.058s-2.729-0.021-4.088-0.058c-0.612-0.017-1.223-0.046-1.833-0.07
			c-0.7-0.026-1.399-0.052-2.098-0.089c-0.877-0.047-1.751-0.104-2.623-0.166c-0.381-0.027-0.763-0.053-1.144-0.082
			c-1.087-0.086-2.172-0.182-3.252-0.289c-0.097-0.01-0.192-0.02-0.289-0.029c-74.918-7.697-133.551-71.176-133.551-148.093
			c0-13.531,1.826-26.643,5.224-39.112c8.218,1.613,16.593,2.449,25.056,2.449c25.952,0,51.181-7.779,72.485-22.147
			c28.549,23.626,64.1,36.481,101.633,36.481c30.514,0,60.207-8.736,85.668-24.918c4.982,14.852,7.688,30.738,7.688,47.247
			C446.517,383.979,387.886,447.458,312.97,455.156z"/>
	</g>
	<g class="blue" style="fill:red">
			<path d="M174.987,473.263v56.387c-18.041,7.011-30.869,24.549-30.869,45.039c0,26.638,21.672,48.31,48.31,48.31
				s48.31-21.672,48.31-48.31c0-20.49-12.829-38.029-30.869-45.039v-56.387h8.817c-19.903-7.672-36.196-19.85-49.745-34.811
				c-0.31,0.013-0.62,0.026-0.93,0.038c5.759,7.668,6.106,23.072,6.127,34.772H174.987z M192.427,561.262
				c7.404,0,13.429,6.023,13.429,13.428c0,7.403-6.024,13.429-13.429,13.429c-7.405,0-13.428-6.023-13.428-13.429
				C179,567.286,185.023,561.262,192.427,561.262z"/>
			<path d="M427.497,438.502c-0.505-0.021-1.009-0.048-1.515-0.063c0.293-0.287,0.578-0.582,0.869-0.87
				c-2.551,0.438-4.998,2.02-6.711,2.876c-14.49,12.679-27.353,25.339-43.761,32.818h9.034v31.673
				c-38.012,8.053-66.629,41.861-66.629,82.237v44.774h-11.857v34.881h58.598v-34.881h-11.859v-44.774
				c0-27.122,22.066-49.188,49.189-49.188c27.121,0,49.188,22.066,49.188,49.188v44.774h-11.857v34.881h58.598v-34.881h-11.857
				v-44.774c0-40.377-28.615-74.185-66.631-82.237v-31.673h0.823C419.347,461.033,428.992,450.559,427.497,438.502z"/>
		</g>
</g>
</svg>
