<?xml version="1.0" encoding="UTF-8" standalone="no"?>
<svg
   xmlns:dc="http://purl.org/dc/elements/1.1/"
   xmlns:cc="http://creativecommons.org/ns#"
   xmlns:rdf="http://www.w3.org/1999/02/22-rdf-syntax-ns#"
   xmlns:svg="http://www.w3.org/2000/svg"
   xmlns="http://www.w3.org/2000/svg"
   xml:space="preserve"
   style="enable-background:new 0 0 491.52 491.52;fill:#1C2833"
   viewBox="0 0 491.52 491.52"
   y="0px"
   x="0px"
   id="Layer_1"
   version="1.1"><metadata
     id="metadata61"><rdf:RDF><cc:Work
         rdf:about=""><dc:format>image/svg+xml</dc:format><dc:type
           rdf:resource="http://purl.org/dc/dcmitype/StillImage" /><dc:title></dc:title></cc:Work></rdf:RDF></metadata><defs
     id="defs59" />
<g class="red" style="fill:red">
     <g
     id="g3"><path
         id="polygon7"
         d="M 183.60156 77.072266 C 179.49403 91.291958 175.76439 105.65965 171.13425 119.7032 C 168.80721 121.68077 166.09798 118.5844 165.99023 116.22461 C 163.87684 109.32162 161.8608 102.40349 159.55859 95.560547 C 154.21568 95.433251 148.86998 95.444031 143.52734 95.580078 C 140.74134 103.60649 138.85274 112.03067 135.61914 119.89453 C 133.18294 121.69521 130.71925 118.59464 130.5834 116.26345 C 126.42415 101.29369 122.04789 86.385674 117.79883 71.441406 C 112.63867 72.975911 107.47852 74.510417 102.31836 76.044922 C 110.11328 101.96029 117.9082 127.87565 125.70312 153.79102 C 130.90039 153.8457 136.09766 153.90039 141.29492 153.95508 C 144.15621 145.59819 146.32439 136.94462 149.75586 128.8125 C 152.28603 127.02987 154.76515 130.20748 154.97314 132.58248 C 157.24253 139.70359 159.42779 146.84529 161.87305 153.89453 C 167.06417 154.00418 172.25596 153.86292 177.44727 153.83984 C 185.26823 127.88607 193.08919 101.93229 200.91016 75.978516 C 195.69271 74.438151 190.47526 72.897786 185.25781 71.357422 C 184.70573 73.26237 184.15365 75.167318 183.60156 77.072266 z "
         style="" /></g><g
       id="g11"><path
         id="polygon13"
         d="M 296.41797 83.080078 C 292.93779 95.201824 289.54423 107.36085 285.88672 119.42383 C 283.88515 121.46586 280.78148 118.67127 281.0332 116.32031 C 278.6473 109.38294 276.71324 102.29277 274.43164 95.330078 C 268.96949 95.284322 263.50715 95.313302 258.04492 95.326172 C 255.29303 103.49528 253.49877 112.05547 249.94922 119.91211 C 247.25309 121.24717 245.45695 117.82707 245.34528 115.57842 C 241.0182 100.83101 236.80804 86.049739 232.57422 71.275391 C 227.33529 72.838542 222.09635 74.401693 216.85742 75.964844 C 224.66146 101.96159 232.46549 127.95833 240.26953 153.95508 C 245.55339 154.01693 250.83724 154.07878 256.12109 154.14062 C 259.0258 145.75381 261.07011 137.01273 264.73438 128.92383 C 267.26102 127.45038 269.40641 130.67159 269.45898 132.93359 C 271.88861 139.97241 274.03834 147.1033 276.33008 154.1875 C 281.65169 154.14844 286.97331 154.10938 292.29492 154.07031 C 300.13802 127.99935 307.98112 101.92839 315.82422 75.857422 C 310.49479 74.285807 305.16536 72.714193 299.83594 71.142578 C 298.69661 75.121745 297.55729 79.100911 296.41797 83.080078 z "
         style="" /></g><g
     id="g15"><path
         id="polygon19"
         d="M 400.56445 118.98828 C 399.06258 121.3078 395.67894 118.82545 395.94296 116.58094 C 393.77376 109.39472 391.52618 102.23252 389.31055 95.060547 C 383.73242 95.07487 378.1543 95.089193 372.57617 95.103516 C 369.8545 103.27472 367.9197 111.72775 364.59375 119.68164 C 362.15063 121.06261 360.24594 117.85938 360.31189 115.73081 C 355.92959 100.85754 351.67916 85.945947 347.39258 71.044922 C 342.03255 72.642578 336.67253 74.240234 331.3125 75.837891 C 339.12956 101.96354 346.94661 128.08919 354.76367 154.21484 C 360.17383 154.28255 365.58398 154.35026 370.99414 154.41797 C 373.88668 146.0006 376.05185 137.31715 379.50195 129.10352 C 381.8955 127.64188 383.89519 130.79725 383.89506 132.91973 C 386.27717 140.07989 388.53564 147.28022 390.82422 154.4707 C 396.28516 154.43294 401.74609 154.39518 407.20703 154.35742 C 415.07096 128.13997 422.9349 101.92253 430.79883 75.705078 C 425.32292 74.09375 419.84701 72.482422 414.37109 70.871094 C 409.76888 86.910156 405.16667 102.94922 400.56445 118.98828 z "
         style="" /></g></g><g
     id="g21">
     <g
       id="g23"><path
         id="path25"
         d="M 42.802734 32.552734 C 42.928209 61.904075 43.549257 91.277481 43.237319 120.61554 C 29.651515 139.93956 18.826494 161.32162 12.066876 184.00135 C 0.11860949 223.0338 -0.085961451 265.39027 11.19462 304.60883 C 20.922247 338.71861 39.283298 370.40607 64.335753 395.5966 C 96.734694 428.55057 140.03261 450.93494 185.96875 456.99023 C 240.58666 464.59341 298.22704 450.3094 342.15625 416.75586 C 387.9358 382.45568 419.60225 329.26591 426.15291 272.2366 C 429.36913 246.45699 427.7243 220.12377 421.70117 194.86523 C 422.29645 191.79027 426.15636 192.27872 428.48475 192.4574 C 448.83425 192.34591 469.18376 192.51858 489.5332 192.56445 C 489.76497 139.04557 489.99674 85.526693 490.22852 32.007812 C 341.08659 32.189453 191.94466 32.371094 42.802734 32.552734 z M 64.179688 49.109375 C 73.716536 49.486395 83.279472 49.092417 92.827635 49.212488 C 218.44164 49.324959 344.0657 49.562221 469.67321 49.773774 C 472.62723 49.382269 472.75484 53.29441 472.51329 55.346579 C 472.46826 68.783054 472.71162 82.222037 472.71327 95.660396 C 472.8184 121.76455 473.05233 147.90093 473.01104 173.98526 C 471.66852 177.18016 467.61568 175.91994 464.92036 176.1005 C 330.39139 176.55535 195.86189 176.91804 61.332031 176.875 C 57.939409 175.53685 58.490716 171.21822 58.781585 168.28423 C 58.644043 139.95377 59.032042 111.61886 59.190273 83.287201 C 59.335567 72.503187 59.291497 61.679098 59.55496 50.920091 C 60.515027 49.440013 62.528248 49.076501 64.179688 49.109375 z M 41.011719 156.38477 C 44.098573 157.315 43.996598 161.29113 43.693189 163.9137 C 43.811982 173.15028 43.803991 182.41679 43.851562 191.66602 C 62.465295 191.77767 81.110805 191.35257 99.703524 191.98108 C 102.80171 193.79839 101.55036 197.88225 101.05653 200.73402 C 99.831008 212.56942 99.355699 224.50534 98.456648 236.35516 C 96.007292 239.8059 91.376583 238.20993 87.853703 238.40772 C 67.482235 238.64475 47.107094 238.48025 26.734544 238.43071 C 24.411841 238.16856 21.801958 238.87165 19.671192 237.90263 C 16.559991 235.25487 18.599816 230.91768 18.579883 227.50608 C 20.636449 203.71171 27.208247 180.25255 38.048456 158.96037 C 38.625837 157.67132 39.378621 156.291 41.011719 156.38477 z M 122.47461 191.5625 C 136.38823 191.80076 150.30748 191.63808 164.22368 191.72389 C 177.81665 191.78237 191.43216 191.61947 205.01024 192.00248 C 208.21414 193.0316 207.62482 197.13267 207.62143 199.78196 C 207.40897 211.95184 208.03516 224.14104 207.33203 236.30078 C 205.12974 239.47732 200.80608 238.13014 197.55469 238.33398 C 176.90872 238.52863 156.24221 238.45334 135.5883 238.47445 C 128.90745 238.37974 122.17755 238.56711 115.52734 238.24414 C 112.1218 235.93928 113.64628 231.42996 113.70833 228.04951 C 114.16037 216.42591 114.98692 204.72845 117.29688 193.32812 C 118.52331 191.80333 120.65752 191.60581 122.47461 191.5625 z M 227.26953 191.80078 C 239.97994 192.00806 252.69582 191.80108 265.40879 191.9098 C 280.2344 191.99934 295.07046 191.82591 309.88867 192.25781 C 312.88386 192.24649 313.27922 195.69003 313.47322 197.9635 C 314.69617 210.41664 316.53808 222.89296 316.09766 235.44897 C 315.98175 238.03847 312.55887 238.41448 310.51343 238.17827 C 303.88861 238.02572 297.23779 238.23125 290.59942 238.17493 C 268.59521 238.20337 246.56188 238.50111 224.57574 238.0952 C 221.30002 235.84902 222.9634 231.47585 222.49805 228.24609 C 222.64029 216.69909 222.01519 205.0996 223.03516 193.5918 C 223.93857 192.21447 225.6985 191.71311 227.26953 191.80078 z M 333.12109 192.07617 C 355.4252 192.20871 377.73407 192.05469 400.03516 192.375 C 401.82399 192.46771 403.97431 192.31819 404.71875 194.3457 C 406.33301 197.57317 406.28377 201.31831 407.41749 204.71018 C 409.60956 214.9849 411.24958 225.43596 411.33398 235.96094 C 409.50276 238.97955 405.5597 237.4121 402.72149 237.82129 C 379.75557 237.90172 356.78136 238.21864 333.82031 237.83008 C 330.60622 236.24411 331.93086 232.14456 331.50949 229.31925 C 331.1797 217.55581 329.67192 205.85975 328.82617 194.12695 C 329.54263 192.49247 331.49012 191.9935 333.12109 192.07617 z M 117.91797 252.83984 C 145.29979 253.29493 172.6892 252.80184 200.07078 253.22973 C 202.48218 253.55457 206.15441 252.41355 207.24609 255.39062 C 208.25486 258.96345 207.30975 262.75219 207.61856 266.4159 C 207.60837 283.79891 207.84119 301.18909 207.2793 318.56641 C 205.05818 321.84161 200.55738 320.60334 197.25 321.13672 C 181.36428 322.6152 165.66573 325.56537 150.46433 330.43138 C 142.96691 332.73212 135.66344 335.66215 128.41992 338.61133 C 124.78265 338.28717 124.33488 333.98445 123.75775 331.16174 C 117.42059 307.149 114.13058 282.34979 113.55756 257.5361 C 113.2565 255.59203 114.05146 253.47693 116.17578 253.05273 C 116.74368 252.89444 117.32926 252.83157 117.91797 252.83984 z M 22.853516 252.89453 C 45.318878 253.16862 67.792088 252.87573 90.254004 253.05173 C 92.664944 253.16341 95.517184 252.72066 97.574219 254.12891 C 100.18549 257.40256 98.370057 261.78546 99.225334 265.54561 C 100.46511 292.43379 104.63474 319.253 111.48778 345.29568 C 110.08249 349.80925 104.62338 350.44873 101.45547 353.27834 C 90.540962 360.13284 80.611257 368.42653 70.768898 376.68103 C 67.136687 377.29065 65.323675 373.36997 63.319117 371.09203 C 47.908814 353.06405 36.190033 331.94495 28.392578 309.56641 C 22.446312 292.23889 18.796322 274.05929 18.091797 255.74609 C 18.631525 253.70055 20.926904 252.83124 22.853516 252.89453 z M 227.38086 253.19922 C 234.97773 253.36126 242.64687 253.14569 250.28032 253.23438 C 271.06923 253.33147 291.86593 253.1236 312.64919 253.60597 C 314.62712 253.39894 316.38549 254.87143 316.30078 256.90625 C 316.41943 260.31571 315.81797 263.68273 315.85216 267.07744 C 314.44052 290.68047 310.96126 314.23691 304.45117 336.98828 C 302.15929 339.45991 298.84756 337.06289 296.39876 336.15444 C 273.66716 326.8643 249.24862 321.86492 224.79102 320.4668 C 221.56573 318.94251 222.69523 314.87067 222.53521 312.03985 C 222.6342 293.10444 222.13338 274.12788 222.7207 255.21875 C 223.75119 253.69849 225.62992 253.17383 227.38086 253.19922 z M 335.7168 253.42578 C 357.92436 253.57912 380.13411 253.48422 402.34056 253.67891 C 404.89621 253.88825 407.68759 253.54234 410.0957 254.20117 C 412.58265 256.79646 410.61545 260.53103 410.84316 263.64562 C 407.26373 305.13761 389.82685 345.36317 361.73438 376.13477 C 358.37469 377.20829 356.49209 373.36549 354.11957 371.83155 C 343.46929 362.44697 331.57119 354.61859 319.56836 347.10938 C 318.06296 343.08144 321.10996 339.31906 321.38696 335.344 C 327.87039 309.26442 330.77967 282.39964 331.75977 255.57812 C 332.44306 254.06724 334.16779 253.46941 335.7168 253.42578 z M 226.11328 335.81445 C 250.72244 337.34767 275.26184 343.03766 297.44531 353.92969 C 299.50501 357.1893 296.33214 360.44414 295.61286 363.59283 C 286.1868 387.42537 273.10288 410.63484 253.19622 427.2713 C 244.93943 433.81596 235.40606 439.73787 224.73488 440.8426 C 221.95748 438.55278 223.85032 434.70978 223.2273 431.71526 C 223.0984 400.30928 222.57374 368.89617 222.83984 337.49414 C 223.30658 336.18328 224.83717 335.69415 226.11328 335.81445 z M 204.13086 335.9375 C 207.14206 335.50702 207.76257 339.35786 207.40625 341.59961 C 207.30838 352.1528 207.36974 362.74157 207.27631 373.30954 C 207.12491 395.33114 207.03718 417.37149 206.76953 439.38086 C 205.06447 442.1366 201.55597 440.40402 199.18544 439.71522 C 181.72126 434.2396 168.00078 420.96435 157.35815 406.54165 C 146.15216 391.22546 137.62769 373.99102 131.51838 356.07112 C 132.75133 351.93541 137.71707 351.46412 141.08751 349.86814 C 161.04772 341.5695 182.53228 336.80259 204.13086 335.9375 z M 115.80664 363.23438 C 119.48933 365.52035 119.31856 370.45993 121.37559 373.89395 C 129.34803 393.89078 140.31989 412.7948 154.59724 428.91246 C 155.25799 431.70724 151.40095 432.46869 149.55431 431.24018 C 136.14516 426.25318 123.05737 420.31129 110.94533 412.65489 C 100.62193 406.19868 90.758914 398.85534 82.058289 390.34363 C 81.250299 386.84117 85.043604 384.87764 87.271484 382.97266 C 95.909699 375.53162 104.91008 368.1971 115.19922 363.18359 C 115.40169 363.20052 115.60417 363.21745 115.80664 363.23438 z M 314.96484 363.45508 C 324.33603 368.41238 332.83686 374.88949 340.92188 381.70898 C 343.24029 383.94108 346.03798 385.9867 347.80664 388.60156 C 347.82371 392.04462 343.93035 393.25709 342.00737 395.52408 C 323.04625 411.55622 301.13756 424.31545 277.44336 431.875 C 274.78577 431.26925 275.7442 427.43936 277.75 426.58203 C 293.374 408.44456 304.46342 386.8608 312.76758 364.53711 C 313.33252 363.93599 314.10654 363.40275 314.96484 363.45508 z " /></g></g><g
     id="g27" /><g
     id="g29" /><g
     id="g31" /><g
     id="g33" /><g
     id="g35" /><g
     id="g37" /><g
     id="g39" /><g
     id="g41" /><g
     id="g43" /><g
     id="g45" /><g
     id="g47" /><g
     id="g49" /><g
     id="g51" /><g
     id="g53" /><g
     id="g55" /></svg>