<?xml version='1.0' encoding='iso-8859-1'?>
<svg version="1.1" xmlns="http://www.w3.org/2000/svg" viewBox="0 0 44 44" xmlns:xlink="http://www.w3.org/1999/xlink" style="fill:white" enable-background="new 0 0 44 44">
  <g>
    <g>
      <path fill-rule="evenodd" d="m42,2h-1c0-1.104-0.896-2-2-2h-4c-1.104,0-2,0.896-2,2h-1c-1.104,0-2,0.896-2,2v14c0,1.104 0.896,2 2,2h10c1.104,0 2-0.896 2-2v-14c0-1.104-0.896-2-2-2zm-7,0h4v6h-4v-6zm7,16h-10v-14h1v4c0,1.104 0.896,2 2,2h4c1.104,0 2-0.896 2-2v-4h1v14zm-39,11c0,0.553 0.448,1 1,1h30v-2h-30c-0.552,0-1,0.447-1,1z"/>
    </g>
  </g>
  <g>
    <g>
      <path d="M38,20v24h2V20H38z M34,32H2V6h28V4H2C0.896,4,0,4.896,0,6v26c0,1.104,0.896,2,2,2h11v5h-2c-0.552,0-1,0.447-1,1    c0,0.553,0.448,1,1,1h17c0.552,0,1-0.447,1-1c0-0.553-0.448-1-1-1h-2v-5h8v10h2V20h-2V32z M24,39h-9v-5h9V39z"/>
    </g>
  </g>
</svg>
