<?xml version="1.0" encoding="utf-8"?>
<!-- Generator: Adobe Illustrator 15.0.0, SVG Export Plug-In . SVG Version: 6.00 Build 0)  -->
<!DOCTYPE svg PUBLIC "-//W3C//DTD SVG 1.1//EN" "http://www.w3.org/Graphics/SVG/1.1/DTD/svg11.dtd">
<svg version="1.1" id="Layer_1" xmlns="http://www.w3.org/2000/svg" xmlns:xlink="http://www.w3.org/1999/xlink" x="0px" y="0px" style="fill:white"
	 viewBox="0 123.307 595.281 595.275" enable-background="new 0 123.307 595.281 595.275"
	 xml:space="preserve">
<g>
	<g>
		<g>
			<path class="red" style="fill:red" d="M322.521,327.281c-65.369,0-118.549,53.181-118.549,118.552c0,65.37,53.181,118.551,118.549,118.551
				c65.369,0,118.553-53.181,118.553-118.551C441.074,380.462,387.89,327.281,322.521,327.281z M322.521,545.778
				c-55.109,0-99.945-44.836-99.945-99.946s44.835-99.947,99.945-99.947c55.111,0,99.947,44.836,99.947,99.947
				C422.468,500.942,377.632,545.778,322.521,545.778z"/>
			<path d="M128.875,425.292c9.38-5.22,19.444-9.192,29.916-11.795c1.293-6.562,1.861-13.605,5.254-20.115
				c-15.987,2.779-31.306,8.33-45.285,16.271c-15.617-26.825-24.818-57.274-26.334-88.88h86.4v39.604
				c5.486-8.635,9.51-19.573,18.606-25.463v-14.139h15.344c7.377-7.871,17.808-11.901,25.502-18.605H197.43v-70.835h0.001
				c21.317-1.412,41.874-7.689,60.172-18.054c12.429,21.334,20.807,45.056,24.42,70.024c6.092-0.94,12.184-2.557,18.277-3.566
				c-4.08-27.36-13.385-53.335-27.124-76.67c8.485-6.406,16.27-13.805,23.182-22.077c2.18,1.812,4.327,3.678,6.424,5.606
				c27.554,25.313,45.771,58.646,52.234,95.035c6.473,1.386,12.945,2.75,19.418,3.706c-5.994-43.097-26.74-82.747-59.063-112.441
				c-34.787-31.956-79.976-49.557-127.244-49.557C84.394,123.341,0,207.736,0,311.471c0,47.275,17.604,92.47,49.571,127.257
				c29.964,32.61,70.061,53.43,113.607,59.207c-4.978-13.433-6.839-26.96-7.02-42.006
				C145.957,446.645,136.82,436.37,128.875,425.292z M281.388,169.885c-5.533,6.505-11.7,12.368-18.374,17.524
				c-11.031-15.47-24.138-29.499-39.048-41.65C244.425,150.167,263.877,158.331,281.388,169.885z M197.432,149.25
				c19.646,13.156,36.525,29.601,50.032,48.402c-15.283,8.475-32.344,13.677-50.032,15.026V149.25z M178.827,302.168H92.43
				c1.516-31.758,10.738-62.181,26.316-88.918c18.264,10.357,38.786,16.64,60.081,18.071V302.168z M178.827,212.667
				c-17.664-1.372-34.691-6.575-49.944-15.045c13.47-18.761,30.31-35.199,49.944-48.359V212.667z M152.316,145.766
				c-14.893,12.153-27.965,26.173-38.969,41.61c-6.655-5.148-12.807-11.004-18.328-17.497
				C112.201,158.543,131.554,150.249,152.316,145.766z M80.042,180.973c6.896,8.259,14.663,15.646,23.124,22.044
				c-17.512,29.741-27.818,63.701-29.362,99.15H18.863C21.508,253.508,44.767,210.241,80.042,180.973z M79.987,442.029
				c-5.886-4.884-11.475-10.185-16.717-15.89c-26.698-29.055-42.267-66.17-44.402-105.367h54.937
				c1.545,35.284,11.827,69.28,29.393,99.127C94.692,426.337,86.892,433.753,79.987,442.029z M94.96,453.121
				c5.529-6.512,11.698-12.399,18.385-17.579c10.993,15.437,24.074,29.479,39.004,41.663
				C131.833,472.796,112.402,464.618,94.96,453.121z"/>
			<path d="M579.867,628.562L471.175,519.871c11.154-22.305,17.445-47.448,17.445-74.039c0-73.323-47.76-135.693-113.803-157.655
				c-0.117-0.948-0.251-1.893-0.383-2.838c-6.473-0.955-12.945-2.319-19.418-3.706c0.079,0.45,0.166,0.898,0.242,1.349
				c-10.588-2.124-21.535-3.247-32.738-3.247c-7.457,0-14.797,0.503-21.996,1.459c-0.069-0.486-0.152-0.969-0.225-1.455
				c-6.093,1.01-12.185,2.626-18.277,3.566c0.067,0.462,0.144,0.921,0.208,1.384c-15.271,3.819-29.711,9.755-42.989,17.48h-0.964
				c-7.694,6.704-18.125,10.735-25.502,18.605h0.561c-5.65,4.939-10.966,10.255-15.905,15.908v-1.77
				c-9.096,5.891-13.12,16.828-18.606,25.463v2.229c-5.602,9.635-10.263,19.88-13.855,30.611c-0.31,0.052-0.617,0.111-0.926,0.165
				c-3.393,6.509-3.961,13.553-5.254,20.115c0.283-0.07,0.563-0.151,0.847-0.219c-2.101,10.531-3.212,21.415-3.212,32.556
				c0,3.584,0.128,7.14,0.352,10.669c-0.209-0.188-0.41-0.384-0.618-0.572c0.18,15.046,2.042,28.573,7.02,42.006
				c0.567,0.076,1.132,0.159,1.7,0.229c21.973,66.022,84.333,113.765,157.643,113.765c26.623,0,51.799-6.307,74.125-17.488
				l108.668,108.668c9.955,9.956,23.193,15.44,37.275,15.44c14.08,0,27.316-5.482,37.277-15.44
				C600.417,682.557,600.417,649.115,579.867,628.562z M322.521,593.325c-81.326,0-147.492-66.166-147.492-147.492
				c0-81.327,66.166-147.492,147.492-147.492c81.328,0,147.494,66.165,147.494,147.492
				C470.015,527.159,403.851,593.325,322.521,593.325z M413.345,584.827c19.199-12.59,35.645-29.042,48.223-48.25l73.658,73.657
				l-48.238,48.236L413.345,584.827z M566.708,689.953c-6.443,6.442-15.01,9.99-24.119,9.99c-9.111,0-17.676-3.547-24.117-9.99
				l-18.328-18.327l48.238-48.236l18.326,18.326c6.441,6.442,9.99,15.007,9.99,24.118
				C576.699,674.944,573.152,683.511,566.708,689.953z"/>
		</g>
	</g>
</g>
</svg>
