<?xml version="1.0" encoding="utf-8"?>
<!-- Generator: Adobe Illustrator 15.0.0, SVG Export Plug-In . SVG Version: 6.00 Build 0)  -->
<!DOCTYPE svg PUBLIC "-//W3C//DTD SVG 1.1 Tiny//EN" "http://www.w3.org/Graphics/SVG/1.1/DTD/svg11-tiny.dtd">
<svg version="1.1" baseProfile="tiny" id="Capa_1" xmlns="http://www.w3.org/2000/svg" xmlns:xlink="http://www.w3.org/1999/xlink" style="fill:white"
	 x="0px" y="0px"  viewBox="0 246.613 595.281 595.277" xml:space="preserve">
<g>
	<path d="M529.938,594.729c-6.078,0-12.023,0.714-17.725,2.11c-7.044-24.705-32.818-43.073-63.446-43.073
		c-36.035,0-65.352,25.427-65.352,56.68v40.771H211.872v-40.771c0-31.253-29.316-56.68-65.352-56.68
		c-30.628,0-56.401,18.37-63.446,43.073c-5.703-1.396-11.647-2.109-17.725-2.109C29.316,594.73,0,620.156,0,651.409v92.843
		c0,31.253,29.318,56.679,65.35,56.679c6.076,0,12.02-0.714,17.722-2.11c7.043,24.703,32.819,43.072,63.446,43.072
		c36.035,0,65.351-25.427,65.351-56.679v-40.77h171.545v40.77c0,31.252,29.316,56.679,65.349,56.679
		c30.627,0,56.402-18.369,63.447-43.072c5.701,1.396,11.648,2.11,17.722,2.11c36.035,0,65.35-25.426,65.35-56.679v-92.843
		C595.285,620.154,565.97,594.729,529.938,594.729z M81.172,771.688c-4.884,2.146-10.252,3.264-15.82,3.264
		c-19.518,0-35.397-13.771-35.397-30.7v-92.843c0-16.928,15.877-30.699,35.396-30.699c5.571,0,10.941,1.115,15.822,3.262
		L81.172,771.688L81.172,771.688z M181.919,785.213c0,16.928-15.88,30.699-35.397,30.699s-35.396-13.771-35.396-30.699V610.445
		c0-16.929,15.877-30.699,35.396-30.699c19.52,0,35.399,13.771,35.399,30.699v174.768H181.919z M383.416,718.464H211.872v-41.266
		h171.544V718.464L383.416,718.464z M484.165,616.777h-0.002v168.434c0,16.929-15.879,30.7-35.398,30.7
		c-19.519,0-35.397-13.771-35.397-30.7V610.445c0-16.929,15.881-30.7,35.4-30.7c19.519,0,35.397,13.771,35.397,30.7V616.777z
		 M565.335,744.25h-0.002c0,16.928-15.881,30.699-35.397,30.699c-5.566,0-10.936-1.115-15.82-3.264V623.969
		c4.883-2.146,10.254-3.262,15.824-3.262c19.518,0,35.396,13.771,35.396,30.7V744.25z"/>

	<path d="M462.943,598.404c-7.174,0-12.988,5.813-12.988,12.988v5.012c0,7.175,5.814,12.989,12.988,12.989
		c7.176,0,12.99-5.814,12.99-12.989v-5.012C475.933,604.219,470.119,598.404,462.943,598.404z"/>
</g>
<g class="blue" style="fill:red">
	<path d="M191.961,496.294h23.437c7.175,0,12.99-5.813,12.99-12.989c0-7.175-5.815-12.988-12.99-12.988h-23.437
		c-7.174,0-12.989,5.813-12.989,12.988C178.972,490.48,184.787,496.294,191.961,496.294z"/>
	<path d="M191.961,454.427h23.437c7.175,0,12.99-5.814,12.99-12.988c0-7.176-5.815-12.99-12.99-12.99h-23.437
		c-7.174,0-12.989,5.814-12.989,12.99C178.972,448.612,184.787,454.427,191.961,454.427z"/>
	<path d="M116.299,540.648c7.174,0,12.989-5.815,12.989-12.99V498.56c17.132-10.044,28.135-28.725,28.135-48.965
		c0-20.238-11.003-38.921-28.135-48.965v-0.963c0-16.928,13.772-30.701,30.7-30.701h87.383c15.114,0,27.711,10.975,30.241,25.374
		c-18.65,18.31-32.605,47.923-32.605,70.429c0,27.472,15.159,44.348,33.068,49.796v97.358c0,7.174,5.815,12.989,12.989,12.989
		c7.176,0,12.99-5.815,12.99-12.989v-97.357c17.908-5.446,33.068-22.324,33.068-49.797c0-22.818-14.35-52.95-33.393-71.19
		c-2.541-23.664-19.708-43.02-42.252-48.813v-39.57c0-7.176-5.815-12.989-12.989-12.989h-6.775v-32.604
		c0-7.175-5.815-12.988-12.989-12.988h-50.089c-7.175,0-12.99,5.813-12.99,12.988v32.604h-6.776c-7.175,0-12.99,5.813-12.99,12.989
		v39.57c-24.447,6.287-42.57,28.521-42.57,54.903v9.089c0,5.389,3.328,10.218,8.364,12.138
		c11.826,4.509,19.771,16.042,19.771,28.701c0,12.66-7.945,24.193-19.771,28.699c-5.037,1.92-8.364,6.749-8.364,12.138v37.225
		C103.31,534.832,109.125,540.648,116.299,540.648z M291.063,418.046c11.358,13.581,20.079,33.093,20.079,46.723
		c0,17.791-10.084,25.755-20.078,25.755c-9.995,0-20.08-7.967-20.08-25.755C270.986,451.136,279.705,431.625,291.063,418.046z
		 M191.625,272.59h24.11v19.614h-24.11V272.59z M171.859,318.182h63.64v24.807h-63.64V318.182z"/>
</g>
</svg>
