<?xml version="1.0" encoding="iso-8859-1"?>
<!-- Generator: Adobe Illustrator 18.0.0, SVG Export Plug-In . SVG Version: 6.00 Build 0)  -->
<!DOCTYPE svg PUBLIC "-//W3C//DTD SVG 1.1//EN" "http://www.w3.org/Graphics/SVG/1.1/DTD/svg11.dtd">
<svg version="1.1" id="Capa_1" xmlns="http://www.w3.org/2000/svg" xmlns:xlink="http://www.w3.org/1999/xlink" x="0px" y="0px" 
	 viewBox="0 0 474.474 474.474" style="enable-background:new 0 0 474.474 474.474;fill:white" xml:space="preserve">
<g>
	<path d="M336.566,103.862V10c0-5.523-4.478-10-10-10H147.909c-5.522,0-10,4.477-10,10v93.862
		c-19.477,2.857-34.479,19.671-34.479,39.928v186.891c0,20.257,15.003,37.071,34.479,39.929v93.863c0,5.523,4.478,10,10,10h178.657
		c5.522,0,10-4.477,10-10V370.61c19.476-2.857,34.479-19.671,34.479-39.928V143.791C371.044,123.534,356.042,106.72,336.566,103.862
		z M316.566,20v83.429H157.909V20H316.566z M157.909,454.474v-83.43h158.657v83.43H157.909z M351.044,330.682
		c0,11.228-9.135,20.362-20.362,20.362H143.792c-11.228,0-20.362-9.134-20.362-20.362V143.791c0-11.228,9.135-20.362,20.362-20.362
		h186.891c11.228,0,20.362,9.134,20.362,20.362V330.682z"/>
	<path d="M326.565,137.909H147.91c-5.522,0-10,4.477-10,10v178.655c0,5.523,4.478,10,10,10h178.655c5.522,0,10-4.477,10-10V147.909
		C336.565,142.386,332.087,137.909,326.565,137.909z M316.565,316.563H157.91V157.909h158.655V316.563z"/>
	<path class="red" style="fill:red" d="M172.982,247.236h23.508c4.053,0,7.704-2.445,9.247-6.192l8.297-20.151l11.754,75.86c0.712,4.6,4.505,8.1,9.146,8.442
		c0.248,0.018,0.495,0.027,0.74,0.027c4.35,0,8.24-2.829,9.546-7.037l20.161-64.966l3.41,7.956c1.576,3.677,5.191,6.061,9.191,6.061
		h21.941c5.522,0,10-4.477,10-10s-4.478-10-10-10h-15.348l-11.507-26.85c-1.649-3.852-5.533-6.265-9.711-6.047
		c-4.185,0.218-7.789,3.021-9.031,7.022l-15.396,49.607l-10.62-68.548c-0.687-4.435-4.244-7.868-8.7-8.399
		c-4.455-0.525-8.72,1.973-10.429,6.123l-19.391,47.092h-16.811c-5.522,0-10,4.477-10,10S167.459,247.236,172.982,247.236z"/>
</g>
<g>
</g>
<g>
</g>
<g>
</g>
<g>
</g>
<g>
</g>
<g>
</g>
<g>
</g>
<g>
</g>
<g>
</g>
<g>
</g>
<g>
</g>
<g>
</g>
<g>
</g>
<g>
</g>
<g>
</g>
</svg>
