<?xml version="1.0" encoding="utf-8"?>
<!-- Generator: Adobe Illustrator 15.0.0, SVG Export Plug-In . SVG Version: 6.00 Build 0)  -->
<!DOCTYPE svg PUBLIC "-//W3C//DTD SVG 1.1//EN" "http://www.w3.org/Graphics/SVG/1.1/DTD/svg11.dtd">
<svg version="1.1" id="Capa_1" xmlns="http://www.w3.org/2000/svg" xmlns:xlink="http://www.w3.org/1999/xlink" x="0px" y="0px" style="fill:white"
	 viewBox="0 123.307 595.281 595.275" enable-background="new 0 123.307 595.281 595.275"
	 xml:space="preserve">
<path  d="M547.273,678.931c-1.906,0-3.791-0.113-5.641-0.327c-0.717,0.214-1.477,0.327-2.26,0.327H57.694
	C25.883,678.931,0,653.048,0,621.237V170.825c0-4.345,3.521-7.865,7.865-7.865h499.181c4.344,0,7.865,3.521,7.865,7.865v64.405
	c0.016,0,0.031,0,0.047,0h64.633c8.65,0,15.689,7.038,15.689,15.692v380.001C595.281,657.395,573.746,678.931,547.273,678.931z
	 M579.55,250.923l-64.596,0.038l0.039,379.963c0,17.798,14.479,32.276,32.275,32.276c17.799,0,32.277-14.479,32.277-32.276V250.923
	H579.55z M15.731,178.69v442.547c0,23.137,18.823,41.963,41.963,41.963h453.989c-7.814-8.604-12.506-20-12.506-32.276V178.69H15.731
	z M370.707,602.152H312.31c-4.344,0-7.865-3.521-7.865-7.865s3.521-7.865,7.865-7.865h58.4c4.344,0,7.865,3.521,7.865,7.865
	S375.052,602.152,370.707,602.152z M474.783,601.583h-68.068c-4.344,0-7.865-3.521-7.865-7.865v-79.303
	c0-4.345,3.521-7.865,7.865-7.865h68.068c4.344,0,7.865,3.521,7.865,7.865v79.303C482.648,598.062,479.126,601.583,474.783,601.583z
	 M414.58,585.851h52.338V522.28H414.58V585.851z M275.375,601.583h-95.552c-4.345,0-7.865-3.521-7.865-7.865
	s3.521-7.866,7.865-7.866h95.552c4.345,0,7.866,3.521,7.866,7.866S279.72,601.583,275.375,601.583z M353.318,562.095H312.31
	c-4.344,0-7.865-3.521-7.865-7.866s3.521-7.865,7.865-7.865h41.008c4.346,0,7.865,3.521,7.865,7.865
	S357.664,562.095,353.318,562.095z M246.921,561.525h-67.099c-4.345,0-7.865-3.521-7.865-7.865s3.521-7.865,7.865-7.865h67.099
	c4.345,0,7.865,3.521,7.865,7.865S251.266,561.525,246.921,561.525z M370.707,522.035H312.31c-4.344,0-7.865-3.521-7.865-7.865
	s3.521-7.865,7.865-7.865h58.4c4.344,0,7.865,3.521,7.865,7.865S375.052,522.035,370.707,522.035z M275.375,521.466h-95.552
	c-4.345,0-7.865-3.521-7.865-7.865s3.521-7.866,7.865-7.866h95.552c4.345,0,7.866,3.521,7.866,7.866S279.72,521.466,275.375,521.466
	z M447.724,481.978h-41.01c-4.344,0-7.865-3.521-7.865-7.866s3.521-7.865,7.865-7.865h41.01c4.346,0,7.867,3.521,7.867,7.865
	S452.07,481.978,447.724,481.978z M353.318,481.978H312.31c-4.344,0-7.865-3.521-7.865-7.866s3.521-7.865,7.865-7.865h41.008
	c4.346,0,7.865,3.521,7.865,7.865S357.664,481.978,353.318,481.978z M246.921,481.408h-67.099c-4.345,0-7.865-3.521-7.865-7.865
	s3.521-7.865,7.865-7.865h67.099c4.345,0,7.865,3.521,7.865,7.865S251.266,481.408,246.921,481.408z M468.619,441.921h-61.9
	c-4.346,0-7.865-3.521-7.865-7.865s3.52-7.865,7.865-7.865h61.9c4.346,0,7.865,3.521,7.865,7.865S472.964,441.921,468.619,441.921z
	 M374.212,441.921H312.31c-4.344,0-7.865-3.521-7.865-7.865s3.521-7.865,7.865-7.865h61.902c4.344,0,7.865,3.521,7.865,7.865
	S378.556,441.921,374.212,441.921z M273.619,441.348h-93.797c-4.345,0-7.865-3.521-7.865-7.865s3.521-7.866,7.865-7.866h93.797
	c4.345,0,7.865,3.521,7.865,7.866S277.964,441.348,273.619,441.348z M445.576,385.821H314.654c-4.344,0-7.865-3.521-7.865-7.865
	s3.521-7.865,7.865-7.865h130.922c4.346,0,7.865,3.521,7.865,7.865S449.921,385.821,445.576,385.821z M280.132,385.821H50.854
	c-4.345,0-7.865-3.521-7.865-7.865V217.721c0-4.345,3.521-7.865,7.865-7.865h229.277c4.345,0,7.865,3.521,7.865,7.865v160.234
	C287.997,382.301,284.477,385.821,280.132,385.821z M58.72,370.091h213.546V225.587H58.72V370.091z M462.185,345.764H314.652
	c-4.346,0-7.865-3.521-7.865-7.865s3.52-7.866,7.865-7.866h147.533c4.344,0,7.865,3.521,7.865,7.866
	S466.529,345.764,462.185,345.764z M445.576,305.704H314.654c-4.344,0-7.865-3.521-7.865-7.865s3.521-7.865,7.865-7.865h130.922
	c4.346,0,7.865,3.521,7.865,7.865S449.921,305.704,445.576,305.704z M426.035,265.647H314.654c-4.344,0-7.865-3.521-7.865-7.865
	s3.521-7.866,7.865-7.866h111.381c4.346,0,7.865,3.521,7.865,7.866S430.38,265.647,426.035,265.647z M462.185,225.587H314.652
	c-4.346,0-7.865-3.521-7.865-7.865s3.52-7.865,7.865-7.865h147.533c4.344,0,7.865,3.521,7.865,7.865
	S466.529,225.587,462.185,225.587z"/>
<g class="red" style="fill:red">
	<path  d="M133.527,441.348v144.503H58.72V441.348H133.527 M133.527,426.348H58.72c-8.284,0-15,6.716-15,15v144.503
		c0,8.284,6.716,15,15,15h74.807c8.284,0,15-6.716,15-15V441.348C148.527,433.064,141.811,426.348,133.527,426.348L133.527,426.348z
		"/>
</g>
</svg>
