<?xml version="1.0" encoding="utf-8"?>
<!-- Generator: Adobe Illustrator 15.0.0, SVG Export Plug-In . SVG Version: 6.00 Build 0)  -->
<!DOCTYPE svg PUBLIC "-//W3C//DTD SVG 1.1 Tiny//EN" "http://www.w3.org/Graphics/SVG/1.1/DTD/svg11-tiny.dtd">
<svg version="1.1" baseProfile="tiny" id="Capa_1" xmlns="http://www.w3.org/2000/svg" xmlns:xlink="http://www.w3.org/1999/xlink" style="fill:white"
	 x="0px" y="0px"  viewBox="0 123.307 595.281 595.275" xml:space="preserve">
<path d="M385.646,239.383c-31.213,0-56.605,25.392-56.605,56.604c0,31.213,25.395,56.604,56.605,56.604s56.604-25.394,56.604-56.604
	C442.25,264.776,416.857,239.383,385.646,239.383z M385.646,324.012c-15.455,0-28.025-12.573-28.025-28.026
	s12.572-28.025,28.025-28.025s28.025,12.571,28.025,28.025C413.671,311.441,401.099,324.012,385.646,324.012z"/>
<path d="M578.275,403.944c0-154.685-125.795-280.541-280.46-280.633c-0.276-0.01-0.551-0.008-0.827,0
	c-154.444,0.353-279.98,126.106-279.98,280.631c0,66.809,23.874,131.532,67.224,182.249
	c42.243,49.422,100.403,82.728,164.027,94.035c1.755,1.813,3.972,3.153,6.561,3.683c5.733,1.173,10.651,1.086,16.374-0.17
	c1.463-0.321,2.902-0.785,4.346-1.184c0.427-0.116,0.861-0.206,1.292-0.306c-2.148,0.559,0.739,0.356,0.08-0.019
	c0.202-0.046,0.403-0.101,0.606-0.144c7.362,0.377,14.237-2.717,16.421-10.655c1.945-7.073-2.357-17.354-10.477-18.451
	c-5.623-0.761-10.343-0.767-15.898,0.646c-1.455,0.37-2.891,0.813-4.346,1.184c-0.052,0.01-0.085,0.018-0.133,0.027
	c-1.169-0.081-2.769-0.366-0.495,0.102c-0.009,0.002-0.015,0.003-0.024,0.005c-0.407-0.078-0.813-0.147-1.22-0.197
	c-1.629-1.086-3.501-1.86-5.557-2.204C133.989,632.195,45.585,527.644,45.585,403.942c0-120.88,85.542-222.159,199.266-246.492
	c-11.583,12.179-19.762,25.849-24.454,40.922c-19.444,62.465,23.352,138.555,64.736,212.139
	c12.117,21.547,24.647,43.824,35.243,65.129c0.216,0.435,0.452,0.854,0.705,1.256c0.232,1.932,0.905,3.8,2.106,5.454
	c3.38,4.655,6.28,9.427,8.667,14.666c0.975,2.141,2.395,3.994,3.807,5.858c0.894,1.179,1.771,2.358,2.612,3.575
	c0.263,0.38,0.456,0.631,0.604,0.803c0.034,0.147,0.076,0.313,0.132,0.515c2.169,7.879,10.57,12.645,18.451,10.477
	c7.877-2.166,12.646-10.572,10.477-18.451c-1.834-6.661-6.195-11.021-9.606-16.751c-3.17-5.324-5.555-10.76-9.238-15.832
	c-0.755-1.04-1.601-1.983-2.507-2.839c-0.18-0.489-0.382-0.974-0.619-1.451c-10.918-21.959-23.629-44.56-35.922-66.418
	c-38.416-68.305-78.141-138.935-62.359-189.635c6.938-22.292,24.311-40.292,53.064-54.959
	c137.561,1.667,248.947,114.088,248.947,252.035c0,14.118-1.178,28.271-3.494,42.069c-0.071,0.425-0.115,0.848-0.148,1.269
	c-0.128,0.28-0.261,0.558-0.378,0.845c1.157-2.829-0.662,1.426-0.751,1.62c-0.777,1.688-1.623,3.343-2.472,4.995
	c-1.467,2.856-3.04,5.66-4.599,8.467c-3.97,7.15-1.783,16.326,5.381,20.523c6.936,4.063,16.56,1.758,20.523-5.381
	c4.031-7.26,7.697-14.558,10.845-22.25c1.06-2.589,0.991-5.327,0.181-7.896C577.091,433.653,578.275,418.779,578.275,403.944z"/>
<path d="M153.027,511.899c0,31.211,25.392,56.604,56.604,56.604c31.212,0,56.604-25.393,56.604-56.604
	c0-31.213-25.392-56.604-56.604-56.604C178.421,455.295,153.027,480.688,153.027,511.899z M237.657,511.899
	c0,15.453-12.573,28.025-28.026,28.025c-15.453,0-28.025-12.571-28.025-28.025c0-15.455,12.573-28.026,28.025-28.026
	C225.086,483.873,237.657,496.446,237.657,511.899z"/>
<path class="green" style="fill:red" d="M559.037,499.562c-54.113-36.243-130.031-31.727-188.914,11.241c-55.816,40.732-83.398,106.581-70.773,166.646l-5.963,4.352
	c-6.374,4.652-7.771,13.591-3.119,19.966c4.652,6.376,13.592,7.774,19.965,3.119l5.967-4.353
	c22.418,12.749,47.965,19.049,74.205,19.049c36.207,0,73.723-12.003,106.082-35.62c58.881-42.966,86.34-113.888,68.33-176.479
	C563.884,504.245,561.837,501.439,559.037,499.562z M479.64,660.881c-42.613,31.099-95.367,38.464-137.436,20.677l34.813-25.403
	l38.393,5.999c7.783,1.219,15.105-4.115,16.322-11.913c1.221-7.797-4.115-15.104-11.912-16.322l-10.158-1.588l26.566-19.386
	l37.121,5.637c7.805,1.193,15.088-4.18,16.271-11.982c1.186-7.804-4.18-15.088-11.98-16.272l-8.625-1.31l23.193-16.927
	c6.373-4.651,7.771-13.591,3.119-19.965c-4.65-6.376-13.59-7.771-19.965-3.12l-24.027,17.533l1.588-10.158
	c1.219-7.797-4.113-15.105-11.91-16.324c-7.801-1.225-15.105,4.113-16.324,11.91l-6,38.396l-25.879,18.885l1.588-10.163
	c1.221-7.797-4.113-15.105-11.91-16.325c-7.789-1.216-15.105,4.112-16.324,11.911l-6.002,38.403l-34.807,25.399
	c-4.104-45.487,19.002-93.487,61.613-124.584c47.598-34.732,107.846-39.858,151.719-13.406
	C550.494,570.334,527.236,626.147,479.64,660.881z"/>
</svg>
