<?xml version="1.0" encoding="utf-8"?>
<!-- Generator: Adobe Illustrator 15.0.0, SVG Export Plug-In . SVG Version: 6.00 Build 0)  -->
<!DOCTYPE svg PUBLIC "-//W3C//DTD SVG 1.1//EN" "http://www.w3.org/Graphics/SVG/1.1/DTD/svg11.dtd">
<svg version="1.1" id="Capa_1" xmlns="http://www.w3.org/2000/svg" xmlns:xlink="http://www.w3.org/1999/xlink" x="0px" y="0px" style="fill:#1C2833"
	 viewBox="0 126.536 595.281 588.816" enable-background="new 0 126.536 595.281 588.816"
	 xml:space="preserve">
<path id="XMLID_1375_" d="M12.513,634.982c0.123,2.034,0.671,3.946,1.557,5.652c0.831,1.604,1.983,3.072,3.444,4.301
	c0.191,0.164,0.388,0.319,0.589,0.472c17.675,13.548,59.858,18.379,93.503,18.379c3.608,0,7.278-0.054,10.904-0.162
	c7.804-0.229,13.945-6.744,13.716-14.55c-0.229-7.807-6.766-13.979-14.548-13.715c-3.35,0.099-6.738,0.149-10.072,0.149
	c-36.009,0-60.171-5.211-71.104-9.766L29.267,279.881c3.577,1.353,7.478,2.611,11.704,3.775c20.911,5.758,48.464,8.929,77.588,8.929
	c7.954,0,15.793-0.235,23.411-0.697l-5.574,183.135c-0.237,7.805,5.896,14.324,13.702,14.563
	c7.811,0.268,14.326-5.896,14.563-13.703l5.688-186.909c9.342-1.396,18.031-3.177,25.798-5.316c4.238-1.167,8.15-2.432,11.736-3.789
	l-4.094,131.04c-0.244,7.806,5.886,14.33,13.689,14.572c7.826,0.31,14.329-5.886,14.574-13.689l5.021-160.721
	c0.027-0.457,0.04-0.917,0.04-1.381c0-12.01-8.744-21.734-25.99-28.905c-7.204-2.999-15.483,0.416-18.484,7.625
	c-2.999,7.211,0.417,15.485,7.625,18.485c2.581,1.073,4.479,2.051,5.858,2.871c-5.669,3.364-17.489,7.463-34.902,10.449
	l3.626-119.109c0.237-7.805-5.896-14.324-13.702-14.563c-7.77-0.201-14.325,5.899-14.563,13.704l-2.052,67.409
	c-8.458-0.571-17.147-0.862-25.974-0.862c-29.124,0-56.677,3.172-77.588,8.931C13.87,223.186,0.088,234.566,0,249.548
	c0,0.081,0,0.163,0,0.245c0.001,0.4,0.013,0.798,0.035,1.193l12.456,383.501C12.496,634.654,12.501,634.817,12.513,634.982z
	 M118.556,235.071c8.562,0,16.965,0.292,25.113,0.872l-0.839,27.57c-7.509,0.507-15.607,0.795-24.274,0.795
	c-47.25,0-77.579-8.539-87.692-14.618C40.977,243.61,71.308,235.071,118.556,235.071z M64.879,464.53
	c-5.522-5.522-5.52-14.474,0.001-19.995c5.524-5.519,14.475-5.521,19.996,0.002l5.135,5.137c5.522,5.521,5.521,14.473-0.001,19.995
	c-2.76,2.76-6.378,4.141-9.996,4.141c-3.62,0-7.237-1.381-9.998-4.143L64.879,464.53z M326.435,287.043
	c2.246-16.013,10.582-32.81,18.645-49.053c18.936-38.147,22.203-51.483,5.768-60.592c-6.83-3.786-9.297-12.393-5.514-19.221
	c3.785-6.829,12.393-9.293,19.221-5.513c19.021,10.543,27.504,27.39,24.529,48.717c-2.24,16.066-10.596,32.9-18.676,49.182
	c-18.871,38.02-22.143,51.3-5.854,60.328c6.828,3.786,9.297,12.392,5.51,19.221c-2.582,4.658-7.404,7.288-12.379,7.288
	c-2.318,0-4.67-0.572-6.842-1.777C331.894,325.118,323.455,308.318,326.435,287.043z M197.02,691.802
	c1.678,7.625-3.143,15.169-10.769,16.849c-19.64,4.321-45.336,6.701-72.355,6.701c-37.067,0-83.488-4.744-102.615-18.055
	c-6.41-4.462-7.988-13.271-3.527-19.682c4.46-6.407,13.273-7.986,19.681-3.526c9.046,6.297,42.421,12.987,86.461,12.987
	c25.037,0,48.574-2.145,66.279-6.042C187.799,679.362,195.342,684.177,197.02,691.802z M584.699,521.722
	c-3.307-2.864-7.756-4.037-12.045-3.174c-10.803,2.175-21.891,4.176-33.211,6.003c-2.518-4.282-5.578-8.231-9.16-11.815
	l-24.896-24.893c23.209-7.35,44.703-21.757,61.184-42.223c33.602-41.731,38.146-98.425,11.307-141.074
	c-1.678-2.668-4.197-4.697-7.162-5.769c-47.389-17.117-101.807-0.586-135.41,41.145c-31.313,38.885-37.398,90.752-16.373,132.145
	l-2.934,3.642c-4.898,6.081-3.938,14.982,2.145,19.879c6.082,4.9,14.984,3.936,19.879-2.145l2.934-3.64
	c9.877,2.573,19.965,3.758,30.035,3.631l35.816,35.816c-47.41,6.037-98.148,9.168-149.738,9.168s-102.329-3.133-149.739-9.168
	l127.774-127.773c9.701-9.702,24.91-11.848,36.988-5.214c6.842,3.76,15.439,1.26,19.199-5.586c3.758-6.843,1.258-15.439-5.586-19.2
	c-23.029-12.647-52.061-8.535-70.598,10.005L183.853,512.736c-3.581,3.582-6.641,7.533-9.156,11.814
	c-11.32-1.827-22.407-3.83-33.21-6.003c-4.289-0.858-8.736,0.308-12.044,3.173c-3.309,2.866-5.103,7.1-4.862,11.469
	c4.155,75.324,65.993,138.049,151.496,162.721c-0.662,1.636-1.026,3.424-1.026,5.296c0,7.81,6.329,14.139,14.139,14.139h135.756
	c7.809,0,14.139-6.329,14.139-14.139c0-1.872-0.363-3.66-1.025-5.296c85.502-24.672,147.344-87.396,151.502-162.721
	C589.8,528.82,588.005,524.586,584.699,521.722z M461.123,464.762l56.648-70.353c4.898-6.081,3.938-14.982-2.145-19.879
	c-6.08-4.896-14.982-3.937-19.879,2.145l-56.648,70.353c-9.436-29.172-3.01-62.989,18.23-89.367
	c24.918-30.946,64.191-44.153,99.109-33.818c17.553,31.914,13.023,73.102-11.891,104.045
	c-17.541,21.779-42.188,34.776-67.426,36.957C476.072,464.803,465.396,465.183,461.123,464.762z M500.101,634.84
	c-38.488,28.399-89.285,44.04-143.031,44.04c-53.748,0-104.543-15.641-143.031-44.04c-31.422-23.187-51.801-52.828-58.746-84.898
	c8.302,1.477,16.735,2.859,25.295,4.147c0.253,0.044,0.504,0.083,0.756,0.113c54.893,8.213,114.768,12.497,175.726,12.497
	c60.963,0,120.842-4.287,175.74-12.499c0.242-0.031,0.482-0.067,0.725-0.108c8.566-1.288,17.008-2.67,25.314-4.15
	C551.902,582.011,531.523,611.653,500.101,634.84z M101.529,413.907c-2.76,2.761-6.378,4.14-9.996,4.14
	c-3.62,0-7.238-1.381-10-4.143c-5.52-5.523-5.52-14.475,0.003-19.997l5.139-5.137c5.522-5.521,14.475-5.519,19.995,0.003
	c5.52,5.523,5.52,14.475-0.003,19.997L101.529,413.907z M65.052,352.266l-5.135-5.138c-5.522-5.521-5.521-14.473,0.001-19.995
	c5.522-5.521,14.473-5.521,19.995,0.002l5.135,5.137c5.522,5.522,5.521,14.474-0.001,19.995c-2.76,2.761-6.378,4.142-9.996,4.142
	C71.43,356.407,67.812,355.026,65.052,352.266z"/>
<path class="green" style="fill:red" stroke-miterlimit="10" d="M415.998,475.709c-4.898,6.081-3.938,14.982,2.145,19.879
	c6.082,4.9,14.984,3.936,19.879-2.145l2.934-3.64c9.389,2.446,18.969,3.623,28.543,3.625c0.857-0.299,1.813-0.377,2.787-0.205
	l33.102-5.38c23.209-7.35,44.703-21.757,61.184-42.223c33.602-41.731,38.146-98.425,11.307-141.074
	c-1.678-2.668-4.197-4.697-7.162-5.769c-47.389-17.117-101.807-0.586-135.41,41.145c-31.313,38.885-37.398,90.752-16.373,132.145
	L415.998,475.709z M457.33,357.661c24.918-30.946,64.191-44.153,99.109-33.818c17.553,31.914,13.023,73.102-11.891,104.045
	c-17.541,21.779-42.188,34.776-67.426,36.957c-1.051-0.041-11.727,0.339-16-0.082l56.648-70.353
	c4.898-6.081,3.938-14.982-2.145-19.879c-6.08-4.896-14.982-3.937-19.879,2.145l-56.648,70.353
	C429.664,417.856,436.089,384.039,457.33,357.661z"/>
<path d="M-129.187,487.267l-17.427-17.424"/>
</svg>
