<?xml version="1.0" encoding="utf-8"?>
<!-- Generator: Adobe Illustrator 15.0.0, SVG Export Plug-In . SVG Version: 6.00 Build 0)  -->
<!DOCTYPE svg PUBLIC "-//W3C//DTD SVG 1.1 Basic//EN" "http://www.w3.org/Graphics/SVG/1.1/DTD/svg11-basic.dtd">
<svg version="1.1" baseProfile="basic" id="Calque_1" style="fill:white"
	 xmlns="http://www.w3.org/2000/svg" xmlns:xlink="http://www.w3.org/1999/xlink" x="0px" y="0px"  viewBox="0 123.307 595.281 595.275" xml:space="preserve">

<g >
	<path d="M374.095,678.007h-32.559c-5.371,0-9.74-4.383-9.74-9.776v-46.313c-7.275-17.332-11.156-36.088-11.156-55.137
		s3.881-37.805,11.156-55.137V180.333c0-5.479,4.279-9.778,9.74-9.778h39.072c5.365,0,9.734,4.386,9.734,9.778v263.989
		c6.256-3.709,12.783-6.932,19.521-9.646V277.899h29.273v148.441c6.434-1.107,12.951-1.771,19.521-1.979V180.333
		c0-5.479,4.275-9.778,9.738-9.778h39.068c5.371,0,9.74,4.386,9.74,9.778v254.661c6.74,2.764,13.268,6.041,19.52,9.803V277.899
		h39.033c5.395,0,9.764-4.364,9.764-9.759v-58.553c0-5.395-4.369-9.758-9.764-9.758h-39.033v-19.499
		c0-16.153-13.119-29.296-29.258-29.296H468.4c-16.135,0-29.258,13.142-29.258,29.296v19.499h-29.275v-19.499
		c0-16.153-13.123-29.296-29.258-29.296h-39.072c-16.133,0-29.256,13.142-29.256,29.296v19.499h-29.276v-19.499
		c0-16.153-13.123-29.296-29.257-29.296h-39.072c-16.134,0-29.257,13.142-29.257,29.296v19.499h-29.275v-19.499
		c0-16.153-13.123-29.296-29.257-29.296H87.81c-16.134,0-29.257,13.142-29.257,29.296v19.499H19.518v-29.275H0v136.623h19.518
		v-29.275h39.035v390.329c0,16.151,13.123,29.295,29.257,29.295h39.074c16.134,0,29.257-13.144,29.257-29.295v-19.5h29.276v19.5
		c0,16.151,13.123,29.295,29.257,29.295h39.074c16.134,0,29.257-13.144,29.257-29.295v-19.5h29.276v19.5
		c0,16.151,13.123,29.295,29.258,29.295h39.072c5.9,0,11.395-1.765,15.996-4.783C388.677,688.56,381.136,683.632,374.095,678.007
		z M536.728,219.347h29.275v39.035h-29.275V219.347z M409.865,219.347h29.277v39.034h-29.277V219.347z M58.553,258.383H19.518
		v-39.034h39.035V258.383z M136.623,209.59L136.623,209.59l-0.001,458.641c0,5.479-4.279,9.776-9.74,9.776H87.81
		c-5.37,0-9.739-4.383-9.739-9.776V180.333c0-5.479,4.278-9.778,9.739-9.778h39.074c5.37,0,9.739,4.386,9.739,9.778V209.59z
		 M185.415,629.214H156.14v-39.034h29.275V629.214z M185.415,570.662H156.14V277.899h29.275V570.662z M185.415,258.383H156.14
		v-39.034h29.275V258.383z M263.486,209.59L263.486,209.59l-0.001,458.641c0,5.479-4.279,9.776-9.74,9.776h-39.072
		c-5.37,0-9.739-4.383-9.739-9.776V180.333c0-5.479,4.278-9.778,9.739-9.778h39.074c5.37,0,9.739,4.386,9.739,9.778V209.59z
		 M312.279,629.214h-29.276v-39.034h29.276V629.214z M312.279,570.662h-29.276V277.899h29.276V570.662z M312.279,258.383h-29.276
		v-39.034h29.276V258.383z"/>

	<path d="M462.126,432.279c-73.42,0-133.152,59.729-133.152,133.152c0,73.42,59.732,133.151,133.152,133.151
		c73.422,0,133.154-59.731,133.154-133.151C595.281,492.009,535.548,432.279,462.126,432.279z M462.126,686.75
		c-66.895,0-121.316-54.422-121.316-121.317s54.422-121.316,121.316-121.316c66.896,0,121.318,54.422,121.318,121.316
		C583.445,632.326,529.023,686.75,462.126,686.75z"/>
</g>

<g class="red" style="fill:red">
	<path d="M398.01,556.821c18.827,3.16,35.928,12.07,49.58,25.723c13.654,13.653,22.491,30.756,25.726,49.582
		c0.789,4.743,4.885,8.049,9.556,8.049c0.575,0,1.078-0.072,1.654-0.145c5.317-0.861,8.838-5.893,7.976-11.209
		c-3.88-22.777-14.66-43.544-31.113-60.001c-16.455-16.454-37.223-27.232-59.999-31.112c-5.317-0.862-10.277,2.657-11.21,7.902
		C389.246,550.857,392.693,555.958,398.01,556.821z"/>
	<path d="M554.082,626.019c-6.396-37.509-24.071-71.643-51.234-98.804c-27.16-27.161-61.293-44.837-98.801-51.233
		c-5.246-0.933-10.202,2.659-11.138,7.904c-0.862,5.318,2.658,10.275,7.978,11.21c33.483,5.678,64.022,21.558,88.309,45.772
		c24.287,24.287,40.097,54.827,45.771,88.312c0.792,4.741,4.887,8.047,9.559,8.047c0.573,0,1.076-0.072,1.651-0.143
		C551.421,636.295,555.014,631.263,554.082,626.019z"/>
	<path fill="none"  stroke-width="17" stroke-linecap="round" stroke-miterlimit="10" d="M428.81,629.532
		c0-15.581-13.809-28.192-30.874-28.192"/>
</g>
</svg>
