<?xml version="1.0" encoding="utf-8"?>
<!-- Generator: Adobe Illustrator 15.0.0, SVG Export Plug-In . SVG Version: 6.00 Build 0)  -->
<!DOCTYPE svg PUBLIC "-//W3C//DTD SVG 1.1 Basic//EN" "http://www.w3.org/Graphics/SVG/1.1/DTD/svg11-basic.dtd">
<svg version="1.1" baseProfile="basic" id="Calque_1"
	 xmlns="http://www.w3.org/2000/svg" xmlns:xlink="http://www.w3.org/1999/xlink" x="0px" y="0px" style="fill:#1C2833"  viewBox="0 123.307 595.281 595.275" xml:space="preserve">
<g>
	<g>
		<rect x="17.12" y="205.139" width="28.839" height="431.613"/>
		<path d="M95.14,495.445c0-10.756,1.422-21.229,4.08-31.246v-259.06H70.381v431.613H99.22V526.691
			C96.563,516.675,95.14,506.201,95.14,495.445z"/>
		<path d="M136.476,587.659v49.093h28.838v-29.313C154.811,602.192,145.104,595.513,136.476,587.659z"/>
		<path d="M165.314,371.06V205.139h-28.838v197.235C146.698,392.496,155.965,381.745,165.314,371.06z"/>
		<path d="M198.43,607.728v29.023h28.838V614.18C216.556,616.036,206.362,615.18,198.43,607.728z"/>
		<path d="M198.43,205.139v158.139c6.217-8.008,12.204-16.158,18.71-24.833c3.627-2.721,7.247-5.45,10.128-8.916v-124.39H198.43z"/>
		<path d="M308.14,576.445c-7.368,6.141-15.117,11.146-23.471,15.487v44.819h28.84V573.5
			C311.294,574.14,309.178,574.888,308.14,576.445z"/>
		<path d="M313.509,241.857v-36.718h-28.84v56.843C293.281,254.008,302.986,247.207,313.509,241.857z"/>
		<path d="M348.004,636.752h28.838V515.617c-9.739,9.284-19.188,18.846-28.838,28.418V636.752z"/>
		<path d="M369.14,228.445c2.585,0,5.151,0.092,7.702,0.253v-23.56h-28.838V230.3C354.89,229.086,361.952,228.445,369.14,228.445z"
			/>
		<path d="M450.25,258.971v-53.833h-28.838v35.074C431.863,245.14,441.563,251.476,450.25,258.971z"/>
		<path d="M421.412,468.717v19.116c8.287-4.368,15.869-10.356,21.729-17.388l6-3c0.37-0.432,0.74-0.863,1.109-1.296v-16.996
			C441.607,456.929,431.905,463.541,421.412,468.717z"/>
		<path d="M449.14,467.445c-2,1-4,2-6,3c-5.859,7.031-13.441,13.02-21.729,17.388v148.919h28.838V466.149
			C449.88,466.582,449.51,467.013,449.14,467.445z"/>
		<path d="M481.709,205.139v94.633c7.95,16.335,12.431,34.563,12.431,53.673s-4.48,37.337-12.431,53.673v229.634h28.839V205.139
			H481.709z"/>
		<rect x="549.322" y="205.139" width="28.838" height="431.613"/>
		<g class="red" style="fill:red">
			<g>
				<path d="M447.14,272.867c-18.093-18.093-42.233-28.056-67.976-28.056c-25.741,0-49.882,9.963-67.976,28.056L150.985,433.073
					c-18.093,18.092-28.057,42.232-28.057,67.974c0,25.743,9.964,49.885,28.057,67.977c18.092,18.092,42.233,28.056,67.976,28.056
					c25.742,0,49.882-9.964,67.976-28.056l160.206-160.205C484.622,371.336,484.622,310.348,447.14,272.867z M267.787,549.875
					C254.81,562.852,237.469,570,218.959,570s-35.85-7.147-48.828-20.125c-12.978-12.978-20.124-30.318-20.124-48.828
					c0-18.508,7.146-35.849,20.124-48.827l70.875-70.876L338.663,479L267.787,549.875z M357.811,459.851l-97.656-97.655
					l70.182-70.181c12.978-12.978,30.319-20.125,48.828-20.125s35.85,7.146,48.827,20.125c26.923,26.923,26.924,70.73,0.001,97.654
					L357.811,459.851z"/>
			</g>

			<g>
				<path d="M422.417,299.067c-5.286-5.287-13.86-5.287-19.147,0c-5.288,5.288-5.288,13.86,0,19.148
					c13.208,13.208,13.208,34.7,0,47.909c-5.286,5.288-5.286,13.86,0,19.148c2.644,2.644,6.109,3.965,9.573,3.965
					s6.931-1.321,9.574-3.966C446.184,361.506,446.184,322.834,422.417,299.067z"/>
			</g>
		</g>
	</g>
</g>
</svg>
