<?xml version="1.0" encoding="iso-8859-1"?>
<!-- Generator: Adobe Illustrator 19.1.0, SVG Export Plug-In . SVG Version: 6.00 Build 0)  -->
<svg version="1.1" id="Capa_1" xmlns="http://www.w3.org/2000/svg" xmlns:xlink="http://www.w3.org/1999/xlink" x="0px" y="0px"
	 viewBox="0 0 438 438" style="enable-background:new 0 0 438 438;fill:white" xml:space="preserve">
<g>
	<path d="M406.5,388.5v42c0,4.14-3.36,7.5-7.5,7.5H39c-4.15,0-7.5-3.36-7.5-7.5v-42c0-4.14,3.35-7.5,7.5-7.5h21.5V224H52
		c-4.15,0-7.5-3.36-7.5-7.5V38.53C37.18,35.55,32,28.38,32,20C32,8.97,40.97,0,52,0s20,8.97,20,20c0,8.38-5.18,15.55-12.5,18.53V59
		h319V38.53C371.18,35.55,366,28.38,366,20c0-11.03,8.97-20,20-20s20,8.97,20,20c0,8.38-5.18,15.55-12.5,18.53V216.5
		c0,4.14-3.36,7.5-7.5,7.5h-8.5v157H399C403.14,381,406.5,384.36,406.5,388.5z M391.5,423v-27h-345v27H391.5z M391,20
		c0-2.76-2.25-5-5-5c-2.76,0-5,2.24-5,5s2.24,5,5,5C388.75,25,391,22.76,391,20z M378.5,209v-22.5h-319V209H378.5z M378.5,171.5V149
		h-319v22.5H378.5z M378.5,134v-22.5h-319V134H378.5z M378.5,96.5V74h-319v22.5H378.5z M362.5,381V224h-11v136.5
		c0,4.14-3.36,7.5-7.5,7.5H234.43c-4.15,0-7.5-3.36-7.5-7.5V224h-15.86v136.5c0,4.14-3.36,7.5-7.5,7.5H94c-4.15,0-7.5-3.36-7.5-7.5
		V224h-11v157H362.5z M336.5,353v-52.82L253.81,353H336.5z M336.5,282.38V224h-94.57v118.79L336.5,282.38z M196.07,353v-52.81
		L113.41,353H196.07z M196.07,282.39v-16.2l-94.57,60.42v16.2L196.07,282.39z M196.07,248.39V224H101.5v84.81L196.07,248.39z M57,20
		c0-2.76-2.25-5-5-5c-2.76,0-5,2.24-5,5s2.24,5,5,5C54.75,25,57,22.76,57,20z"/>
	<path style="fill:none;" d="M386,15c2.75,0,5,2.24,5,5s-2.25,5-5,5c-2.76,0-5-2.24-5-5S383.24,15,386,15z"/>
	<rect x="59.5" y="186.5" style="fill:red ;" width="319" height="22.5"/>
	<rect x="59.5" y="149" style="fill:red;" width="319" height="22.5"/>
	<rect x="59.5" y="111.5" style="fill:red;" width="319" height="22.5"/>
	<rect x="59.5" y="74" style="fill:red;" width="319" height="22.5"/>
	<path style="fill:none;" d="M52,15c2.75,0,5,2.24,5,5s-2.25,5-5,5c-2.76,0-5-2.24-5-5S49.24,15,52,15z"/>
</g>
<g>
</g>
<g>
</g>
<g>
</g>
<g>
</g>
<g>
</g>
<g>
</g>
<g>
</g>
<g>
</g>
<g>
</g>
<g>
</g>
<g>
</g>
<g>
</g>
<g>
</g>
<g>
</g>
<g>
</g>
</svg>
