<?xml version="1.0" encoding="utf-8"?>
<!-- Generator: Adobe Illustrator 15.0.0, SVG Export Plug-In . SVG Version: 6.00 Build 0)  -->
<!DOCTYPE svg PUBLIC "-//W3C//DTD SVG 1.1//EN" "http://www.w3.org/Graphics/SVG/1.1/DTD/svg11.dtd">
<svg version="1.1"
	 id="svg2" xmlns:svg="http://www.w3.org/2000/svg" xmlns:dc="http://purl.org/dc/elements/1.1/" style="fill:white" xmlns:rdf="http://www.w3.org/1999/02/22-rdf-syntax-ns#" xmlns:cc="http://creativecommons.org/ns#"
	 xmlns="http://www.w3.org/2000/svg" xmlns:xlink="http://www.w3.org/1999/xlink" x="0px" y="0px"  viewBox="0 123.307 595.281 595.275" enable-background="new 0 123.307 595.281 595.275" xml:space="preserve">
<g id="g4">
	<circle id="circle6" cx="539.306" cy="302.236" r="9.5"/>
	<circle id="circle8" cx="539.306" cy="248.497" r="9.5"/>
	<path class="red" style="fill:red" d="M112.303,634.238l-5.277,5.277c-20.111,20.113-52.838,20.112-72.952,0.001c-20.112-20.113-20.112-52.84,0-72.952
		l178.42-178.421c27.521-27.522,27.521-72.301,0-99.822c-27.521-27.52-72.3-27.52-99.82,0L2.757,398.238l13.434,13.435
		l109.917-109.917c20.114-20.111,52.84-20.112,72.951,0c20.113,20.112,20.113,52.839,0,72.951L20.641,553.129
		c-27.521,27.521-27.521,72.299,0,99.821c13.76,13.759,31.835,20.64,49.909,20.64c18.075,0,36.15-6.881,49.911-20.641l3.439-3.44
		C120.137,644.058,117.723,638.044,112.303,634.238z"/>
	<path d="M565.333,368.82c19.375-22.41,29.947-50.709,29.947-80.632c0-32.988-12.846-63.999-36.172-87.324
		c-23.324-23.324-54.336-36.17-87.322-36.17c-29.918,0-58.213,10.567-80.619,29.935l-2.543-2.505
		c-3.738-3.683-9.752-3.638-13.434,0.1c-3.682,3.736-3.637,9.752,0.1,13.434l2.484,2.447c-19.076,22.321-29.48,50.4-29.48,80.082
		c0,3.821,0.18,7.614,0.52,11.373L85.197,594.192c-3.361,3.758-3.203,9.485,0.362,13.053l26.869,26.868l-0.125,0.125
		c5.42,3.806,7.833,9.82,11.597,15.271l1.961-1.962l26.87,26.868c1.85,1.85,4.281,2.782,6.718,2.782
		c2.261,0,4.525-0.804,6.333-2.421l252.678-226.08c0.037-0.033,41.951-37.535,41.951-37.535c3.76,0.341,7.553,0.521,11.375,0.521
		c29.676,0,57.75-10.401,80.07-29.471l2.492,2.507c1.857,1.865,4.295,2.798,6.732,2.798c2.424,0,4.85-0.923,6.701-2.768
		c3.719-3.701,3.734-9.717,0.031-13.434L565.333,368.82z M159.812,654.626l-27.223-27.222c-0.018-0.018-27.24-27.24-27.24-27.24
		L315.56,365.221c8.381,17.027,19.461,32.496,33.078,46.116c13.619,13.617,29.088,24.696,46.115,33.077L159.812,654.626z
		 M410.177,430.614c-17.957-7.749-34.121-18.729-48.105-32.712c-13.984-13.985-24.963-30.15-32.713-48.105l23.912-26.724
		c5.742,19.611,16.338,37.585,31.191,52.439c14.854,14.854,32.826,25.449,52.438,31.191L410.177,430.614z M551.867,355.294
		L451.65,254.618c-3.703-3.722-9.717-3.734-13.434-0.03c-3.719,3.7-3.732,9.716-0.031,13.434l100.217,100.673
		c-18.701,15.527-42.006,23.988-66.615,23.988c-27.912-0.001-54.152-10.87-73.889-30.605
		c-19.736-19.736-30.607-45.979-30.607-73.889c0-24.649,8.49-47.988,24.064-66.702l20.027,19.73c1.85,1.823,4.258,2.732,6.666,2.732
		c2.455,0,4.908-0.946,6.768-2.832c3.682-3.736,3.637-9.752-0.1-13.434l-19.947-19.654c18.768-15.746,42.227-24.336,67.018-24.336
		c27.91,0,54.152,10.868,73.889,30.606c19.736,19.734,30.605,45.976,30.605,73.889C576.281,313.017,567.662,336.511,551.867,355.294
		z"/>
</g>
</svg>
