<?xml version="1.0" encoding="utf-8"?>
<!-- Generator: Adobe Illustrator 15.0.0, SVG Export Plug-In . SVG Version: 6.00 Build 0)  -->
<!DOCTYPE svg PUBLIC "-//W3C//DTD SVG 1.1 Tiny//EN" "http://www.w3.org/Graphics/SVG/1.1/DTD/svg11-tiny.dtd">
<svg version="1.1" baseProfile="tiny" id="Capa_1" xmlns="http://www.w3.org/2000/svg" xmlns:xlink="http://www.w3.org/1999/xlink"
	 x="0px" y="0px" style="fill:white" viewBox="0 123.307 595.281 595.275" xml:space="preserve">
<g>
	<g>
		<path d="M186.078,333.963l0.69-0.317c13.852-6.356,49.206-15.829,89.832-15.866h0.223c35.272,0,71.817,8.017,90.915,15.482
			l0.094,0.04c1.162,0.512,3.885,1.707,7.506,1.707c3.945,0,9.754-1.415,15.008-8.151l0.363-0.49
			c13.121-18.501,20.057-42.761,20.057-70.159c-0.002-73.283-59.623-132.902-132.905-132.902
			c-73.283,0-132.903,59.619-132.903,132.902c0,25.155,7.073,49.653,20.45,70.844c3.182,5.044,8.555,8.057,14.375,8.057
			c1.864,0,3.74-0.306,5.574-0.909L186.078,333.963z M277.86,150.199c58.454,0,106.009,47.555,106.009,106.009
			c0,2.826-0.098,5.597-0.273,8.319c-26.754-8.551-66.592-16.104-105.879-16.104c-0.094,0-0.196,0-0.292,0
			c-41.193,0.039-80.456,7.81-105.218,16.355c-0.229-2.843-0.355-5.701-0.355-8.572C171.851,197.754,219.406,150.199,277.86,150.199
			z M177.818,291.315c22.268-8.321,60.977-15.96,99.631-15.996c37.931,0.019,77.177,7.792,101.114,15.861
			c-1.807,5.375-4.055,10.379-6.752,14.935c-22.801-7.888-59.189-15.23-94.992-15.23h-0.248
			c-36.556,0.035-71.383,7.198-92.46,14.845C181.652,301.078,179.553,296.259,177.818,291.315z"/>
		<path d="M292.249,649.11v-0.322c25.893-4.155,54.665-18.72,54.665-39.641l-0.002-161.78c0.42-7.381,13.904-43.804,26.154-73.316
			l0.303-0.801c1.625-4.746,0.791-9.942-2.289-14.253c-9.516-13.317-50.852-23.748-94.106-23.748h-0.262
			c-42.16,0.039-82.594,10.45-92.055,23.7c-3.092,4.332-3.932,9.544-2.304,14.299l0.303,0.8
			c12.25,29.509,25.733,65.931,26.153,73.183v161.915c0,21.429,30.188,36.186,56.548,39.918v0.344
			C274.632,647.576,283.071,647.489,292.249,649.11z M235.701,608.077V447.233c0-12.273-15.095-51.333-24.553-74.599
			c10.598-4.427,34.198-10.461,65.586-10.49h0.238c32.34,0,56.666,6.111,67.561,10.59c-9.461,23.277-24.514,62.243-24.514,74.499
			v160.846c-3.471,5.295-23.018,15.032-42.158,15.032C258.723,623.111,239.173,613.374,235.701,608.077z"/>
		<path d="M262.732,437.971h30.255c5.571,0,10.084-4.515,10.084-10.085c0-5.569-4.514-10.085-10.084-10.085h-30.255
			c-5.57,0-10.085,4.516-10.085,10.085C252.646,433.457,257.162,437.971,262.732,437.971z"/>
		<path d="M262.732,406.371h30.255c5.571,0,10.084-4.515,10.084-10.085c0-5.569-4.514-10.085-10.084-10.085h-30.255
			c-5.57,0-10.085,4.516-10.085,10.085C252.646,401.856,257.162,406.371,262.732,406.371z"/>
	</g>
	<g class="red" style="fill:red">
		<path d="M307.925,497.328v-9.402c0-16.578-13.487-30.065-30.065-30.065c-16.579,0-30.066,13.487-30.066,30.065v9.402
			c0,16.579,13.487,30.064,30.066,30.064C294.438,527.392,307.925,513.907,307.925,497.328z M287.755,497.328
			c0,5.457-4.439,9.895-9.896,9.895c-5.457,0-9.896-4.439-9.896-9.895v-9.402c0-5.456,4.439-9.896,9.896-9.896
			c5.457,0,9.896,4.439,9.896,9.896V497.328z"/>
	
		<path d="M446.677,502.065c-5.084-5.413-13.592-5.681-19.006-0.596l-22.785,21.399c-17.553,16.487-27.023,56.094-27.023,84.989
			v43.492c0,22.244-18.098,40.341-40.342,40.341h-4.932c-23.088,0-40.34-11.005-40.34-20.843V649.11
			c-9.178-1.621-17.617-1.534-26.893,0.297v21.438c0,26.77,29.532,47.737,67.235,47.737h4.932c37.072,0,67.234-30.162,67.234-67.235
			v-43.492c0-27.455,9.789-57.165,18.543-65.386l22.785-21.399C451.496,515.988,451.763,507.479,446.677,502.065z"/>
	</g>

</g>
</svg>
