<?xml version="1.0" encoding="utf-8"?>
<!-- Generator: Adobe Illustrator 15.0.0, SVG Export Plug-In . SVG Version: 6.00 Build 0)  -->
<!DOCTYPE svg PUBLIC "-//W3C//DTD SVG 1.1 Tiny//EN" "http://www.w3.org/Graphics/SVG/1.1/DTD/svg11-tiny.dtd">
<svg version="1.1" baseProfile="tiny" id="Capa_1" xmlns="http://www.w3.org/2000/svg" xmlns:xlink="http://www.w3.org/1999/xlink"
	 x="0px" y="0px" style="fill:white"  viewBox="0 123.307 595.281 595.275" xml:space="preserve">
<g>
	<g>
		<path d="M297.633,123.305C133.51,123.305,0,256.817,0,420.938c0,164.12,133.512,297.647,297.633,297.647
			c164.123,0,297.646-133.525,297.646-297.646C595.279,256.819,461.755,123.305,297.633,123.305z M277.514,679.422
			C149.785,669.563,47.896,566.961,39.046,438.949h58.549c8.552,95.752,84.445,172.399,179.918,181.934V679.422z M277.514,582.392
			c-74.409-9.224-133.374-68.743-141.649-143.443h141.649V582.392z M277.514,400.816h-141.32
			c9.141-73.693,67.625-132.175,141.32-141.317V400.816z M277.514,220.998c-94.772,9.472-170.347,85.046-179.804,179.816H39.164
			c9.811-127.03,111.317-228.534,238.35-238.359V220.998z M315.646,259.17c21.035,2.331,40.87,8.634,58.73,18.212
			c4.925-8.593,16.027-14.923,21.764-23.937c1.586-1.586,3.447-2.896,4.854-4.515c-25.388-15.306-54.304-25.252-85.348-28.036
			v-58.539c128.012,8.846,230.617,110.734,240.482,238.461H497.58c-2.198-21.948-8.094-42.777-16.802-62.077
			c-11.913,5.076-21.421,14.907-31.883,22.219c5.012,12.59,8.462,25.949,10.204,39.858H315.646V259.17z M315.644,438.949h143.777
			c-8.365,75.407-68.369,135.41-143.777,143.778V438.949z M315.644,679.533v-58.537c96.447-8.628,173.42-85.599,182.033-182.045
			h58.563C547.33,567.67,444.365,670.632,315.644,679.533z"/>
		<path class="yellow" style="fill:red" d="M369.531,302.299c0,33.543,27.27,60.821,60.797,60.821c6.379,0,12.424-1.259,18.209-3.09
			c0.124,0.307,0.236,0.62,0.358,0.928c10.462-7.312,19.97-17.143,31.883-22.219c-0.243-0.538-0.479-1.078-0.726-1.613
			c6.928-9.879,11.098-21.852,11.098-34.816c0-33.533-27.283-60.81-60.822-60.81c-10.527,0-20.297,2.941-28.936,7.665
			c-0.132-0.08-0.267-0.155-0.398-0.234c-1.406,1.619-3.268,2.929-4.854,4.515c-5.736,9.014-16.839,15.343-21.764,23.937
			c0.163,0.087,0.328,0.17,0.49,0.258C371.49,285.186,369.531,293.515,369.531,302.299z M397.617,292.69
			c1.877-6.344,5.463-11.898,10.342-16.13c5.461-4.742,12.361-7.739,20.033-8.272c0.795-0.056,1.551-0.242,2.357-0.242
			c18.916,0,34.26,15.337,34.26,34.253c0,2.061-0.262,4.064-0.621,6.027c-1.34,7.522-5.139,14.144-10.541,19.115
			c-4.701,4.333-10.6,7.373-17.18,8.515c-1.936,0.341-3.91,0.596-5.945,0.596c-18.906,0-34.246-15.343-34.246-34.253
			C396.076,298.939,396.71,295.752,397.617,292.69z"/>
	</g>
</g>
</svg>
