<?xml version="1.0" encoding="UTF-8" standalone="no"?>
<!-- Generator: Adobe Illustrator 15.0.0, SVG Export Plug-In . SVG Version: 6.00 Build 0)  -->

<svg
   xmlns:dc="http://purl.org/dc/elements/1.1/"
   xmlns:cc="http://creativecommons.org/ns#"
   xmlns:rdf="http://www.w3.org/1999/02/22-rdf-syntax-ns#"
   xmlns:svg="http://www.w3.org/2000/svg"
   xmlns="http://www.w3.org/2000/svg"
   xmlns:sodipodi="http://sodipodi.sourceforge.net/DTD/sodipodi-0.dtd"
   xmlns:inkscape="http://www.inkscape.org/namespaces/inkscape"
   version="1.1"
   id="Capa_1"
   x="0px"
   y="0px"
   style="fill:#1C2833"
   viewBox="0 123.307 595.281 595.275"
   enable-background="new 0 123.307 595.281 595.275"
   xml:space="preserve"
   inkscape:version="0.91 r13725"
   sodipodi:docname="loisirs.svg"><metadata
     id="metadata17"><rdf:RDF><cc:Work
         rdf:about=""><dc:format>image/svg+xml</dc:format><dc:type
           rdf:resource="http://purl.org/dc/dcmitype/StillImage" /></cc:Work></rdf:RDF></metadata><defs
     id="defs15" /><sodipodi:namedview
     pagecolor="#ffffff"
     bordercolor="#666666"
     borderopacity="1"
     objecttolerance="10"
     gridtolerance="10"
     guidetolerance="10"
     inkscape:pageopacity="0"
     inkscape:pageshadow="2"
     inkscape:window-width="1600"
     inkscape:window-height="838"
     id="namedview13"
     showgrid="false"
     inkscape:zoom="0.3964554"
     inkscape:cx="297.6405"
     inkscape:cy="297.63751"
     inkscape:window-x="-8"
     inkscape:window-y="-8"
     inkscape:window-maximized="1"
     inkscape:current-layer="Capa_1" /><g
     id="g3"><path
       d="M585.018,151.138H482.383H112.899H10.265c-5.666,0-10.264,5.244-10.264,11.731v129.038v129.039v129.039v129.037   c0,6.488,4.598,11.73,10.264,11.73h102.634h369.484h102.635c5.666,0,10.264-5.242,10.264-11.73V549.986v-129.04V291.908V162.869   C595.282,156.382,590.684,151.138,585.018,151.138z M102.636,409.215H20.528V303.638h82.108V409.215z M20.528,432.677h82.108   v105.578H20.528V432.677z M123.163,549.986v-129.04V291.908V174.601H472.12v117.307v129.039v129.038v117.309H123.163V549.986z    M574.754,409.215h-82.107V303.638h82.107V409.215z M492.647,432.677h82.107v105.578h-82.107V432.677z M574.754,174.601v105.577   h-82.107V174.601H574.754z M20.528,174.601h82.108v105.577H20.528V174.601z M20.528,667.293V561.717h82.108v105.576H20.528z    M574.754,667.293h-82.107V561.717h82.107V667.293z"
       id="path5" /></g><g
     id="g7"
     transform="matrix(0.93847973,0,0,0.93847973,18.310883,25.896628)"><g
       id="g9"><path
         class="red"
         stroke-miterlimit="10"
         d="m 424.745,261.918 c -7.405,-5.175 -16.884,-6.396 -25.352,-3.27 l -139.27,51.417 c -10.813,3.991 -18.078,14.434 -18.078,25.979 l 0,157.111 c -7.945,-5.652 -18.142,-7.881 -29.324,-6.279 -12.614,1.805 -25.094,8.342 -35.136,18.406 -10.044,10.066 -16.567,22.574 -18.37,35.215 -1.917,13.443 1.648,25.477 10.038,33.883 6.907,6.922 16.264,10.566 26.843,10.566 2.269,0 4.597,-0.168 6.965,-0.508 12.614,-1.807 25.094,-8.344 35.137,-18.41 10.043,-10.064 16.568,-22.57 18.37,-35.213 0.285,-2.006 0.435,-3.973 0.479,-5.906 0.005,-0.117 0.017,-136.235 0.017,-136.235 l 164.488,-60.728 0,98.937 c -7.944,-5.653 -18.143,-7.882 -29.322,-6.284 -12.617,1.807 -25.095,8.346 -35.141,18.413 -10.041,10.064 -16.566,22.572 -18.368,35.211 -1.917,13.445 1.648,25.477 10.038,33.885 6.907,6.922 16.264,10.566 26.844,10.566 2.27,0 4.595,-0.166 6.966,-0.508 12.614,-1.805 25.093,-8.342 35.139,-18.408 10.04,-10.066 16.566,-22.572 18.368,-35.215 0.284,-2.004 0.495,-179.915 0.495,-179.915 -0.001,-9.045 -4.423,-17.534 -11.826,-22.71 z M 242.043,524.072 c -0.006,1.496 -0.12,3.035 -0.344,4.615 -1.347,9.439 -6.361,18.922 -14.123,26.703 -7.76,7.777 -17.222,12.801 -26.641,14.152 -8.618,1.23 -16.101,-0.828 -21.064,-5.801 -4.965,-4.977 -7.021,-12.475 -5.788,-21.113 1.345,-9.438 6.361,-18.922 14.121,-26.699 7.76,-7.777 17.222,-12.803 26.641,-14.154 1.633,-0.232 3.223,-0.35 4.765,-0.35 6.598,0 12.277,2.119 16.301,6.152 4.007,4.018 6.118,9.678 6.135,16.256 l -0.003,0.239 0,0 z M 421.55,311.91 l -164.486,60.725 0,-36.587 c 0,-5.271 3.315,-10.035 8.25,-11.856 l 139.27,-51.417 c 3.922,-1.449 8.14,-0.906 11.571,1.493 3.431,2.395 5.395,6.175 5.395,10.363 l 0,27.279 0,0 z m 0,145.881 c -0.008,1.496 -0.119,3.041 -0.343,4.627 -1.347,9.439 -6.363,18.92 -14.125,26.699 -7.761,7.777 -17.222,12.803 -26.641,14.154 -8.62,1.234 -16.099,-0.828 -21.064,-5.803 -4.963,-4.975 -7.021,-12.473 -5.789,-21.109 1.345,-9.439 6.361,-18.922 14.122,-26.701 7.761,-7.775 17.223,-12.803 26.641,-14.15 1.634,-0.236 3.225,-0.352 4.768,-0.352 6.595,0 12.276,2.117 16.297,6.152 4.013,4.02 6.12,9.686 6.138,16.27 l -0.004,0.213 0,0 z"
         id="path11"
         inkscape:connector-curvature="0"
         style="stroke-width:10;stroke-miterlimit:10;fill:red" /></g></g></svg>