<?xml version="1.0" encoding="iso-8859-1"?>
<!-- Generator: Adobe Illustrator 19.0.0, SVG Export Plug-In . SVG Version: 6.00 Build 0)  -->
<svg version="1.1" id="Layer_1" xmlns="http://www.w3.org/2000/svg" xmlns:xlink="http://www.w3.org/1999/xlink" x="0px" y="0px"
	 viewBox="0 0 511.99 511.99" style="enable-background:new 0 0 511.99 511.99;fill:white" xml:space="preserve">
<g>
	<g class="yellow" style="fill:red">
		<path d="M437.335,127.938c-5.89,0-10.671,4.781-10.671,10.672s4.78,10.664,10.671,10.664s10.656-4.773,10.656-10.664
			S443.225,127.938,437.335,127.938z"/>

		<path d="M266.667,170.61c-5.891,0-10.672,4.773-10.672,10.663c0,5.891,4.781,10.664,10.672,10.664s10.671-4.773,10.671-10.664
			C277.338,175.382,272.558,170.61,266.667,170.61z"/>

		<path d="M458.663,191.937c-5.891,0-10.672,4.781-10.672,10.672s4.781,10.664,10.672,10.664s10.672-4.773,10.672-10.664
			C469.335,196.718,464.554,191.937,458.663,191.937z"/>
		<path d="M415.992,42.612h-10.656V32.057c0-5.898-4.781-10.672-10.672-10.672s-10.671,4.773-10.671,10.672v10.555h-10.656
			c-5.891,0-10.672,4.773-10.672,10.664s4.781,10.663,10.672,10.663h10.656v10.672c0,5.891,4.78,10.664,10.671,10.664
			s10.672-4.773,10.672-10.664V63.939h10.656c5.906,0,10.672-4.772,10.672-10.663S421.898,42.612,415.992,42.612z"/>

		<path d="M373.337,149.274h-10.672v-10.555c0-5.891-4.766-10.664-10.672-10.664c-5.891,0-10.656,4.773-10.656,10.664v10.555
			h-10.672c-5.891,0-10.672,4.774-10.672,10.664c0,5.898,4.781,10.672,10.672,10.672h10.672v10.663
			c0,5.891,4.766,10.664,10.656,10.664c5.906,0,10.672-4.773,10.672-10.664V170.61h10.672c5.891,0,10.656-4.773,10.656-10.672
			C383.993,154.047,379.227,149.274,373.337,149.274z"/>
	</g>
</g>
<g>
	<g>
		<path d="M511.99,277.272c0-35.344-81.171-63.999-181.325-63.999s-181.34,28.655-181.34,63.999c0,19.327,24.28,36.655,62.655,48.39
			l-5.328,140.467c0,13.516,57.312,24.476,127.997,24.476c70.702,0,128.014-10.96,128.014-24.476l-5.422-143.037
			C491.022,311.467,511.99,295.24,511.99,277.272z M410.07,464.355c-21.312,3.172-48.093,4.914-75.421,4.914
			c-27.312,0-54.093-1.742-75.404-4.914c-16.562-2.461-25.938-5.156-30.906-6.992l4.781-126.131
			c28.156,6.352,61.624,10.039,97.545,10.039c39.344,0,75.749-4.422,105.467-11.938l4.843,128.03
			C436.006,459.199,426.617,461.894,410.07,464.355z M484.085,285.803c-4.938,4.117-14.547,10.344-32.297,16.609
			c-15.375,5.422-33.437,9.711-53.687,12.734c-21.327,3.18-44.015,4.789-67.437,4.789c-23.437,0-46.124-1.609-67.436-4.789
			c-20.25-3.023-38.312-7.312-53.687-12.734c-17.75-6.266-27.359-12.492-32.297-16.609c-5.203-4.343-6.578-7.476-6.578-8.53
			c0-1.047,1.375-4.188,6.578-8.531c4.938-4.117,14.547-10.344,32.297-16.609c15.374-5.422,33.437-9.703,53.687-12.727
			c21.312-3.188,43.999-4.797,67.436-4.797c23.422,0,46.109,1.609,67.437,4.797c20.25,3.023,38.312,7.305,53.687,12.727
			c17.75,6.266,27.359,12.492,32.297,16.609c5.203,4.344,6.578,7.484,6.578,8.531C490.663,278.327,489.288,281.46,484.085,285.803z"
			/>
	</g>
</g>
<g>
	<g>
		<path d="M330.665,245.272c-64.795,0-117.341,14.328-117.341,32c0,17.671,52.546,31.999,117.341,31.999
			c64.796,0,117.326-14.328,117.326-31.999C447.991,259.6,395.461,245.272,330.665,245.272z M398.289,281.663
			c-19.046,4.046-43.062,6.272-67.624,6.272c-24.562,0-48.577-2.227-67.639-6.272c-6.719-1.438-12.172-2.945-16.484-4.391
			c4.312-1.445,9.766-2.953,16.484-4.391c19.062-4.047,43.077-6.273,67.639-6.273s48.578,2.227,67.624,6.273
			c6.734,1.438,12.172,2.945,16.5,4.391C410.461,278.718,405.023,280.225,398.289,281.663z"/>
	</g>
</g>
<g>
	<g>
		<path d="M295.603,51.183L0,221.851l31.999,55.421l295.604-170.661L295.603,51.183z M39.811,248.132l-10.656-18.477
			l184.747-106.662l10.655,18.477L39.811,248.132z M232.37,112.322l55.421-32l10.672,18.477l-55.421,31.999L232.37,112.322z"/>
	</g>
</g>
<g>
</g>
<g>
</g>
<g>
</g>
<g>
</g>
<g>
</g>
<g>
</g>
<g>
</g>
<g>
</g>
<g>
</g>
<g>
</g>
<g>
</g>
<g>
</g>
<g>
</g>
<g>
</g>
<g>
</g>
</svg>
