<?xml version="1.0" encoding="UTF-8" standalone="no"?>
<!-- Generator: Adobe Illustrator 15.0.0, SVG Export Plug-In . SVG Version: 6.00 Build 0)  -->

<svg
   xmlns:dc="http://purl.org/dc/elements/1.1/"
   xmlns:cc="http://creativecommons.org/ns#"
   xmlns:rdf="http://www.w3.org/1999/02/22-rdf-syntax-ns#"
   xmlns:svg="http://www.w3.org/2000/svg"
   xmlns="http://www.w3.org/2000/svg"
   xmlns:sodipodi="http://sodipodi.sourceforge.net/DTD/sodipodi-0.dtd"
   xmlns:inkscape="http://www.inkscape.org/namespaces/inkscape"
   version="1.1"
   id="Layer_1"
   x="0px"
   y="0px"
   style="fill:white"
   viewBox="0 123.307 595.281 595.275"
   enable-background="new 0 123.307 595.281 595.275"
   xml:space="preserve"
   inkscape:version="0.91 r13725"
   sodipodi:docname="medicine.svg"><metadata
     id="metadata17"><rdf:RDF><cc:Work
         rdf:about=""><dc:format>image/svg+xml</dc:format><dc:type
           rdf:resource="http://purl.org/dc/dcmitype/StillImage" /></cc:Work></rdf:RDF></metadata><defs
     id="defs15" /><sodipodi:namedview
     pagecolor="#ffffff"
     bordercolor="#666666"
     borderopacity="1"
     objecttolerance="10"
     gridtolerance="10"
     guidetolerance="10"
     inkscape:pageopacity="0"
     inkscape:pageshadow="2"
     inkscape:window-width="1600"
     inkscape:window-height="838"
     id="namedview13"
     showgrid="false"
     inkscape:zoom="0.79291081"
     inkscape:cx="150.24421"
     inkscape:cy="312.41475"
     inkscape:window-x="-8"
     inkscape:window-y="-8"
     inkscape:window-maximized="1"
     inkscape:current-layer="g5" /><g
     id="g3"><g
       id="g5"><path
         d="m 280.94117,146.85496 c -74.93849,1.15308 -148.78013,36.31998 -196.422018,94.26236 -42.010588,50.64147 -63.37402,117.70318 -58.953526,183.30732 3.761703,58.85544 27.41029,116.86711 68.397563,159.6151 33.988091,35.53189 78.687041,60.6419 126.662491,71.30643 2.24676,0.0626 2.56246,-2.72821 3.70631,-4.12798 7.02521,-11.03688 14.3492,-21.88482 21.66428,-32.73337 C 208.38855,610.78342 173.1248,593.33204 142.88638,569.86296 110.84022,544.45054 86.009371,509.54245 74.335545,470.20618 58.251078,418.14042 62.64539,359.67972 87.985022,311.26159 117.37619,254.58322 172.98672,212.35344 235.42212,199.08647 c 51.71248,-11.41565 107.4303,-3.65672 153.95415,21.67371 47.75159,25.66065 86.09246,68.95246 104.40788,120.10815 2.9878,8.26726 5.45981,16.72364 7.34587,25.31037 10.06219,-8.72074 20.30801,-18.05137 33.23572,-22.21499 1.08638,-0.38701 2.17277,-0.77402 3.25916,-1.16103 -16.94409,-73.87595 -69.56175,-138.77744 -138.51656,-170.37471 -36.77641,-17.32503 -77.517,-26.11416 -118.16717,-25.57301 z"
         id="path9"
         inkscape:connector-curvature="0" /><path
         d="m 284.84017,251.68162 c -11.87521,-0.2554 -22.03873,11.76811 -20.16134,23.42122 0.64304,8.85405 0.86253,17.75112 1.25877,26.62534 1.39275,36.10617 1.95065,72.25055 3.17615,108.35391 1.98204,7.56343 10.15286,12.13667 17.66887,11.72327 6.24925,-0.15751 12.49461,-0.45263 18.74813,-0.35365 19.63275,-0.0586 39.3197,0.86401 58.8828,-0.75816 9.49667,-2.44746 14.59053,-15.16392 9.06549,-23.3787 -3.29341,-5.11895 -9.26194,-8.08121 -15.21728,-8.19163 -5.29016,-0.14759 -10.70711,0.39728 -16.05735,0.38327 -10.89346,0.25559 -21.89696,0.67545 -32.69055,-1.06719 -5.7027,-1.7722 -8.6541,-8.11012 -8.43683,-13.75879 0.0671,-5.92065 0.46532,-11.75837 0.49798,-17.67678 0.72056,-29.83613 2.34632,-59.65447 2.47383,-89.50178 -0.70571,-6.14257 -5.46913,-11.17862 -10.86061,-13.78993 -2.5939,-1.24923 -5.50232,-1.96217 -8.34806,-2.0304 z"
         id="path11"
         inkscape:connector-curvature="0" /><path
         class="red"
         style="fill:red"
         d="m 506.9555,352.9357 c -15.28968,0.88706 -30.50627,5.74721 -43.2437,14.20401 -6.34518,5.44463 -11.92266,11.72253 -17.85075,17.58586 -3.55064,6.38231 -9.48774,10.89445 -14.18508,16.29439 -52.88119,55.44621 -107.13608,109.62669 -163.69374,161.33154 -2.53156,1.93184 -5.46622,3.55235 -7.01336,6.46599 -6.78576,9.30443 -14.25892,18.09357 -20.63387,27.6971 -0.80138,6.42173 -4.03362,12.24115 -4.49361,18.7129 -4.13743,25.74589 5.18153,53.59916 25.07267,70.7357 21.03724,18.50007 51.90981,25.62668 78.68384,16.93025 16.17983,-5.30174 29.64587,-16.55262 40.94922,-28.99144 57.9566,-59.93416 116.37298,-119.41839 175.18819,-178.51012 6.56753,-6.79893 13.79093,-13.02123 18.80636,-21.13089 15.70676,-24.51624 16.4201,-57.56338 1.79696,-82.7237 -13.99257,-24.0631 -41.56636,-39.38069 -69.38313,-38.60159 z m -0.21828,29.46585 c 17.76654,0.44404 35.54531,10.03028 44.22556,25.78916 10.05598,18.17003 7.57188,42.78312 -6.89528,57.92433 -16.55654,17.92655 -34.33159,34.66637 -51.3574,52.13764 -10.78306,10.66753 -21.3691,21.56569 -32.50065,31.86031 -4.9292,1.94237 -10.39138,-1.03909 -13.31511,-5.03847 -19.63628,-18.93377 -39.55201,-37.59507 -58.73578,-56.98587 -2.96798,-5.47317 0.0595,-12.48612 5.01477,-15.66746 28.28046,-27.72955 55.94415,-56.16682 85.9371,-82.07071 8.16994,-5.25764 17.8955,-8.15618 27.62679,-7.94893 z M 365.43771,504.31616 c 6.4185,1.09091 10.66127,6.52273 14.79234,11.04552 17.27542,18.16005 34.92848,35.97488 51.60495,54.69292 2.47662,3.98577 0.21191,9.19282 -3.23616,11.81118 -28.83019,27.50694 -56.82698,55.92812 -86.61424,82.41887 -18.44738,12.66793 -45.79906,10.20156 -61.43499,-5.90418 -15.15548,-15.33533 -18.62714,-41.16737 -7.22765,-59.62984 8.05379,-12.5442 19.69135,-22.13442 29.42972,-33.24719 19.12468,-20.14103 38.10781,-40.44146 57.95518,-59.87112 1.44458,-0.77953 3.05543,-1.44065 4.73085,-1.31616 z"
         id="path7"
         inkscape:connector-curvature="0" /></g></g></svg>