<?xml version="1.0" encoding="utf-8"?>
<!-- Generator: Adobe Illustrator 15.0.0, SVG Export Plug-In . SVG Version: 6.00 Build 0)  -->
<svg version="1.2" baseProfile="tiny" id="Layer_1" xmlns="http://www.w3.org/2000/svg" xmlns:xlink="http://www.w3.org/1999/xlink"
	 x="0px" y="0px"  viewBox="0 123.307 595.281 595.275" xml:space="preserve" style="fill:#1C2833">
<g>
	<g>
		<path d="M479.146,321.825c-7.717,0-13.977,6.256-13.977,13.975v87.32c0,92.375-75.152,167.527-167.529,167.527
			c-92.376,0-167.528-75.154-167.528-167.528v-87.32c0-7.719-6.259-13.975-13.975-13.975c-7.719,0-13.975,6.256-13.975,13.975v87.32
			c0,103.088,80.215,187.782,181.503,194.973v72.544h-72.287c-7.717,0-13.975,6.256-13.975,13.975s6.257,13.976,13.975,13.976H383.9
			c7.717,0,13.975-6.257,13.975-13.976s-6.256-13.975-13.975-13.975h-72.285v-72.544c101.289-7.19,181.504-91.886,181.504-194.973
			v-87.32C493.121,328.081,486.861,321.825,479.146,321.825z"/>
	</g>
</g>
<g>
	<g class="red" style="fill:red">
		<path d="M265.052,356.267c0-7.719-6.256-13.976-13.976-13.976h-49.202c-1.073,9.317,2.205,18.633,0.169,27.95h49.033
			C258.795,370.242,265.052,363.986,265.052,356.267z"/>
		<path d="M264.217,213.426c7.718,0,13.975-6.256,13.975-13.975v-46.627c-8.783,3.463-19.281,1.847-27.95,7.56v39.067
			C250.242,207.17,256.499,213.426,264.217,213.426z"/>
		<path d="M330.232,423.12c0,7.719,6.256,13.976,13.975,13.976h49.929c2.272-9.317,0.271-18.634,0.032-27.951h-49.961
			C336.488,409.144,330.232,415.401,330.232,423.12z"/>
		<path d="M317.091,199.451c0,7.719,6.258,13.975,13.977,13.975c7.715,0,13.975-6.256,13.975-13.975v-38.706
			c-8.509-6.389-18.563-7.436-28.634-9.252c-0.14,0.043-0.206,0.134-0.237,0.298c0.404,0.021,0.718,0.042,0.92,0.066V199.451z"/>
		<path d="M330.232,289.417c0,7.719,6.256,13.976,13.975,13.976h50.66v0.006c0.034-0.01,0.062-0.025,0.087-0.041
			c-1.483-9.041,0.759-18.826-0.482-27.915h-50.265C336.488,275.442,330.232,281.698,330.232,289.417z"/>
		<path d="M265.052,423.12c0-7.719-6.256-13.976-13.976-13.976h-48.954c-0.086,9.55-0.84,18.432-0.957,27.951h49.911
			C258.795,437.095,265.052,430.839,265.052,423.12z"/>
		<path d="M394.867,341.959v0.333h-50.66c-7.719,0-13.975,6.257-13.975,13.976s6.256,13.975,13.975,13.975h49.487
			C392.355,360.599,399.012,351.635,394.867,341.959z"/>
		<path d="M265.052,289.417c0-7.719-6.256-13.975-13.976-13.975h-48.468c1.857,9.317-0.818,18.633-1.365,27.95h49.833
			C258.795,303.392,265.052,297.135,265.052,289.417z"/>
	</g>
		<path d="M306.953,123.305h-18.625c-63.887,0-115.862,51.975-115.862,115.861v193.265c0,63.887,51.975,115.862,115.862,115.862
			h18.625c63.887,0,115.863-51.976,115.863-115.862V239.167C422.816,175.28,370.839,123.305,306.953,123.305z M393.694,370.242
			h1.173v38.902h-0.699c0.239,9.317,2.24,18.634-0.032,27.951h0.606c-2.432,46.315-40.877,83.249-87.787,83.249h-18.625
			c-46.911,0-85.355-36.934-87.786-83.249h0.622c0.117-9.52,0.871-18.401,0.957-27.951h-1.705v-38.902h1.626
			c2.036-9.317-1.242-18.633-0.169-27.95h-1.458v-38.899h0.826c0.547-9.317,3.223-18.633,1.365-27.95h-2.191v-36.275
			c0-34.838,20.37-65.009,49.825-79.227v0.443c8.669-5.713,19.167-4.097,27.95-7.56v-0.967c3.126-0.361,31.75-0.383,37.979-0.066
			c0.031-0.165,0.098-0.255,0.237-0.298c-0.09-0.017-0.179-0.032-0.269-0.048c0.09,0.016,0.179,0.031,0.269,0.048
			c0.147-0.046,0.374-0.048,0.731-0.048c-0.357,0-0.584,0.002-0.731,0.048c10.071,1.817,20.125,2.863,28.634,9.252v-0.805
			c29.455,14.218,49.824,44.387,49.824,79.226v36.276h-0.396c1.241,9.089-1.001,18.875,0.482,27.915
			c0.18-0.107,0.187-0.348,0.187-0.912c0,0.564-0.007,0.805-0.187,0.912c0.06,0.363,0.114,0.728,0.187,1.088
			c-0.072-0.36-0.127-0.725-0.187-1.088c-0.025,0.016-0.053,0.031-0.087,0.041v38.561
			C399.012,351.635,392.355,360.599,393.694,370.242z"/>
		
	
</g>
</svg>
