<?xml version="1.0" encoding="utf-8"?>
<!-- Generator: Adobe Illustrator 15.0.0, SVG Export Plug-In . SVG Version: 6.00 Build 0)  -->
<!DOCTYPE svg PUBLIC "-//W3C//DTD SVG 1.1//EN" "http://www.w3.org/Graphics/SVG/1.1/DTD/svg11.dtd">
<svg version="1.1" id="Capa_1" xmlns="http://www.w3.org/2000/svg" xmlns:xlink="http://www.w3.org/1999/xlink" x="0px" y="0px" style="fill:white"
	  viewBox="0 123.307 595.281 595.275" enable-background="new 0 123.307 595.281 595.275"
	 xml:space="preserve">
<path class="red" style="fill:red" d="M551.49,235.369l-312.641,40.459c-1.263,7.027,0.832,14.717,0.448,21.773l312.691-40.467v0.129
	C553.477,250.115,552.378,242.507,551.49,235.369z"/>
<path d="M569.955,126c-2.338-2.045-5.424-2.977-8.541-2.608l-335.521,43.412c-5.39,0.704-9.427,5.282-9.427,10.727v65.123v45.588
	v274.738c-19.763-23.757-51.162-39.213-86.586-39.213c-59.68,0-108.233,43.693-108.233,97.409c0,53.717,48.553,97.41,108.233,97.41
	s108.233-43.693,108.233-97.41c0-2.511-0.206-4.979-0.422-7.436c0.141-0.703,0.422-1.342,0.422-2.078V297.755l1.184-0.153
	c0.384-7.056-1.711-14.746-0.448-21.773l-0.736,0.095v-33.271v-55.609l313.875-40.609v52.807v36.063l-0.498,0.064
	c0.889,7.138,1.987,14.746,0.498,21.895v197.471c-19.764-23.746-51.162-39.202-86.586-39.202c-59.68,0-108.234,43.694-108.234,97.41
	s48.555,97.409,108.234,97.409c59.137,0,107.291-42.925,108.156-95.97c0-0.141,0.076-0.26,0.076-0.4V244.818v-45.577v-65.112
	C573.634,131.011,572.292,128.046,569.955,126z M129.879,696.939c-47.742,0-86.586-33.996-86.586-75.764
	c0-41.767,38.845-75.763,86.586-75.763c47.741,0,86.586,33.996,86.586,75.763C216.465,662.943,177.621,696.939,129.879,696.939z
	 M465.402,588.706c-47.742,0-86.588-33.995-86.588-75.763c0-41.767,38.846-75.763,86.588-75.763
	c47.74,0,86.586,33.996,86.586,75.763C551.988,554.711,513.142,588.706,465.402,588.706z"/>
</svg>
