<?xml version="1.0" encoding="utf-8"?>
<!-- Generator: Adobe Illustrator 15.0.0, SVG Export Plug-In . SVG Version: 6.00 Build 0)  -->
<!DOCTYPE svg PUBLIC "-//W3C//DTD SVG 1.1//EN" "http://www.w3.org/Graphics/SVG/1.1/DTD/svg11.dtd">
<svg version="1.1" id="Layer_1" xmlns="http://www.w3.org/2000/svg" xmlns:xlink="http://www.w3.org/1999/xlink" x="0px" y="0px"
	  viewBox="0 123.307 595.281 595.275" enable-background="new 0 123.307 595.281 595.275" style="fill:white"
	 xml:space="preserve">
<g transform="translate(0 1)">
	<g>
		<path class="red" style="fill:red" d="M160.161,413.154c-0.927-7.483-1.419-15.147-1.419-22.972v-69.449c0-4.399,0.217-8.75,0.622-13.047
			c-5.706-5.622-11.453-10.349-18.096-14.164c-0.128,0.733-0.26,1.464-0.378,2.2c-3.548-1.916-7.511-3.183-11.748-3.604
			c4.427-130.007,107.347-149.97,168.498-149.97c61.152,0,164.072,19.963,168.496,149.974c-4.156,0.427-8.139,1.69-11.74,3.632
			c-0.027-0.173-0.061-0.344-0.089-0.517c-5.174,6.748-13.917,10.947-17.975,17.995c0.134,2.484,0.206,4.984,0.206,7.5v69.449
			c0,8.305-0.551,16.431-1.593,24.351c5.745,4.438,11.059,9.558,17.823,12.128c0.087-0.444,0.185-0.887,0.268-1.331
			c3.777,2.288,8.078,3.816,12.715,4.335c-1.721,14.024-7.951,27.265-25.197,37.699c0.227-0.551,0.438-1.107,0.659-1.66
			c-6.503,7.014-17.001,12.837-26.882,12.349c-0.064,0.119-0.126,0.241-0.191,0.36c-23.682,6.869-57.748,10.982-106.578,10.982
			c-5.953,0-9.92,3.968-9.92,9.921s3.967,9.921,9.92,9.921c35.746,0,65.641-2.195,90.123-6.784
			c-0.096,0.097-0.192,0.192-0.289,0.289c9.174-2.505,18.696-2.909,27.908-5.184c0.517-0.852,1.036-1.701,1.541-2.561
			c36.973-12.583,55.67-33.854,58.813-65.171c16.238-0.847,30.252-15.342,30.252-31.707v-74.41
			c0-16.291-12.961-30.729-29.939-31.694c-2.184-57.314-27.455-169.709-188.33-169.709c-160.878,0-186.147,112.399-188.332,169.713
			c-16.106,0.951-29.937,14.474-29.937,31.689v74.409c0,16.867,14.882,31.749,32.74,31.749h14.882
			c5.469,0,10.726-1.571,15.304-4.262c0.2,1.063,0.429,2.123,0.646,3.185C150.447,425.561,153.817,417.616,160.161,413.154z
			 M483.169,310.81c5.951,0,11.904,4.961,11.904,11.905v74.41c0,5.953-4.961,11.905-11.904,11.905h-14.883
			c-5.953,0-11.906-4.961-11.906-11.905v-6.944v-67.466c0-5.953,4.961-11.905,11.906-11.905H483.169z M137.906,397.126
			c0,5.953-4.961,11.905-11.906,11.905h-14.882c-5.953,0-11.906-4.961-11.906-11.905v-74.41c0-5.953,4.961-11.905,11.906-11.905H126
			c5.953,0,11.906,4.961,11.906,11.905V397.126z"/>
		<path d="M565.517,616.387c-59.215-31.4-104.635-49.008-145.068-55.759l4.186-5.752c1.984-1.985,2.977-4.962,1.984-7.938
			l-9.299-37.19c2.797-3.955,5.456-8.027,7.984-12.191c-9.212,2.274-18.734,2.679-27.908,5.184
			c-0.511,0.512-1.022,1.023-1.535,1.535c-4.99,6.655-10.258,12.723-15.764,18.194c-23.359,21.764-51.223,34.947-78.074,36.253
			c-1.352-0.58-2.865-0.872-4.383-0.872c-1.525,0-2.9,0.299-4.132,0.885c-16.435-0.753-33.255-5.963-49.199-14.874
			c-16.153-9.28-31.348-22.659-44.89-39.586c-0.992-0.991-1.985-1.984-2.977-2.977l-0.579-0.192
			c-18.251-23.938-31.503-54.063-35.703-87.954c-6.344,4.463-9.714,12.408-17.217,15.635c5.89,28.761,18.024,56.937,35.018,80.959
			l-9.298,37.189c0,1.985,0,4.962,1.985,7.938l4.184,5.753c-40.433,6.752-85.853,24.358-145.067,55.759
			C10.914,625.317,0,644.167,0,665.002v42.662c0,5.953,3.968,9.922,9.921,9.922h238.112h3.968h91.278h3.967h238.113
			c5.951,0,9.92-3.969,9.92-9.921v-42.662C595.281,645.16,583.375,626.308,565.517,616.387z M297.695,593.694l23.756,54.442h-47.953
			L297.695,593.694z M239.699,697.742H19.843v-32.74c0-12.897,6.944-24.803,18.85-30.756
			c63.24-33.596,108.764-50.458,149.317-55.494l59.205,81.406L239.699,697.742z M242.671,619.954l-41.269-57.142
			c-0.316-0.315-0.665-0.629-1.028-0.937l-10.878-14.937l3.968-17.858c1.343,1.446,2.706,2.855,4.08,4.242
			c23.292,23.823,52.345,40.45,84.967,44.43l-26.747,60.181L242.671,619.954z M260.335,697.742l5.954-29.764h62.664l5.809,29.764
			H260.335z M339.515,637.933l-26.748-60.181c32.623-3.979,61.672-20.604,84.963-44.428c1.377-1.388,2.74-2.798,4.084-4.244
			l3.969,17.858l-10.135,13.915c-0.646,0.529-1.246,1.17-1.771,1.958l-41.268,57.142L339.515,637.933z M575.439,697.742h-0.002
			H355.582l-7.518-37.584l59.848-82.289c40.41,6.099,86.752,22.947,148.676,55.385c11.906,6.944,18.852,18.85,18.852,31.748V697.742
			z"/>
		<path d="M441.213,465.703c5.092-12.682,8.989-25.807,11.556-39.043c-6.765-2.57-12.078-7.689-17.823-12.128
			c-3.056,23.231-10.368,44.667-20.614,63.52C424.212,478.54,434.71,472.717,441.213,465.703z"/>
		<path d="M297.64,181.833c73.879,0,134.762,58.457,138.692,131.399c4.058-7.048,12.801-11.247,17.975-17.995
			C442.015,219.938,376.272,161.99,297.64,161.99c-78.035,0-143.371,57.071-156.373,131.531c6.643,3.814,12.39,8.542,18.096,14.164
			C165.995,237.349,225.645,181.833,297.64,181.833z"/>
	</g>
</g>
</svg>
