<?xml version="1.0" encoding="utf-8"?>
<!-- Generator: Adobe Illustrator 15.0.0, SVG Export Plug-In . SVG Version: 6.00 Build 0)  -->
<!DOCTYPE svg PUBLIC "-//W3C//DTD SVG 1.1//EN" "http://www.w3.org/Graphics/SVG/1.1/DTD/svg11.dtd">
<svg version="1.1"
	  sodipodi:docname="oxymetre.svg" inkscape:version="0.91 r13725" xmlns:dc="http://purl.org/dc/elements/1.1/" xmlns:cc="http://creativecommons.org/ns#" xmlns:rdf="http://www.w3.org/1999/02/22-rdf-syntax-ns#" xmlns:svg="http://www.w3.org/2000/svg" xmlns:sodipodi="http://sodipodi.sourceforge.net/DTD/sodipodi-0.dtd" xmlns:inkscape="http://www.inkscape.org/namespaces/inkscape"
	 xmlns="http://www.w3.org/2000/svg" xmlns:xlink="http://www.w3.org/1999/xlink" x="0px" y="0px" style="fill:white"
	 viewBox="0 0 595.275 595.275" enable-background="new 0 0 595.275 595.275" xml:space="preserve">
<sodipodi:namedview  id="base" inkscape:window-y="-8" inkscape:window-x="-8" inkscape:window-height="838" inkscape:window-width="1600" inkscape:current-layer="layer1" inkscape:document-units="px" inkscape:pageshadow="2" inkscape:pageopacity="0.0" showgrid="false" inkscape:cy="554.30663" inkscape:cx="365.2945" inkscape:zoom="1.4" borderopacity="1.0" bordercolor="#666666" pagecolor="#ffffff" inkscape:window-maximized="1">
	</sodipodi:namedview>
<g  transform="translate(0,-308.26772)">
	<path d="M508.199,710.634c-11.769-20.725-17.435-21.515-64.979-9.067c-24.009,6.285-44.18,10.899-44.824,10.255
		c-0.646-0.645,17.096-21.646,39.424-46.671c43.245-48.466,47.917-59.438,32.063-75.294c-15.283-15.282-28.103-11.015-60.885,20.27
		l-30.184,28.805l22.064-41.329c12.135-22.731,22.063-44.867,22.063-49.191c0-14.787-12.325-26.83-27.457-26.83
		c-15.957,0-20.054,3.926-39.624,37.973c-7.557,13.146-13.798,22.221-13.868,20.164c-0.004-0.107,0.006-0.27,0.023-0.465
		c-3.015,5.354-4.4,11.225-9.339,15.669c0.408,0.374,0.651,1.144,0.651,2.403c0,2.036-2.785,7.431-6.188,11.986
		c-5.971,7.992-6.104,7.943-3.753-1.385c1.248-4.95,3.837-9.468,6.06-11.737c-6.195-1.957-11.679-6.079-18.576-6.698
		c-8.227,18.823-17.756,62.042-14.311,71.021c1.299,3.386,6.755,6.156,12.124,6.156c8.158,0,15.595-10.514,45.276-64.01
		c33.121-59.696,43.583-72.216,48.859-58.467c1.17,3.048-13.113,34.112-31.741,69.032l-33.867,63.49l8.954,8.846l8.955,8.846
		l46.838-48.007c25.761-26.404,47.507-48.007,48.324-48.007s3.732,2.707,6.479,6.016c4.037,4.863-4.031,16.031-42.15,58.344
		c-25.929,28.78-47.143,53.55-47.143,55.044s2.742,6.444,6.094,11c5.985,8.135,7.036,8.038,58.663-5.385
		c50.679-13.177,62.877-13.273,57.961-0.462c-1.191,3.105-25.725,13.315-54.518,22.689l-52.352,17.044l-34.595,37.809
		c-27.962,30.56-35.418,41.605-38.885,57.608l-4.29,19.801l-45.734,1.21c-53.125,1.405-46.057,9.728-56.876-66.965
		c-3.922-27.803-11.106-58.269-16.75-71.028c-5.435-12.289-13.126-33.505-17.092-47.146c-3.966-13.643-11.842-33.943-17.502-45.113
		c-11.855-23.396-13.004-33.396-3.838-33.396c6.843,0,27.618,30.101,46.339,67.138c12.912,25.546,25.439,31.602,42.392,20.493
		c17.47-11.446,30.82-36.328,40.64-75.741c5.172-20.761,7.971-33.05,8.616-40.905c-8.103,0.876-15.427,0.909-23.421-0.608
		c7.826,14.799-15.786,86.603-33.334,98.902c-7.932,5.56-9.535,3.813-30.03-32.702c-23.517-41.901-35.655-54.712-51.839-54.712
		c-12.074,0-27.153,13.956-27.153,25.132c0,3.327,5.545,17.036,12.322,30.465s15.182,34.017,18.677,45.752
		c3.495,11.735,11.177,32.857,17.07,46.939c6.66,15.913,13.619,46.57,18.386,80.997c6.442,46.525,9.278,57.001,17.717,65.439
		c9.583,9.583,12.318,9.98,59.304,8.616c55.429-1.608,59.224-3.677,64.233-34.998c2.043-12.777,9.935-24.836,33.453-51.122
		l30.778-34.4l52.601-17.538c40.73-13.58,54.564-20.168,61.305-29.196C513.757,722.765,513.964,720.786,508.199,710.634z"/>
	<path class="red" style="fill:red" d="M333.925,477.516c-1.899-4.966-2.32-14.212-2.462-33.137c-0.326-43.564-8.282-62.425-31.942-75.723
		c-21.563-12.119-44.547-11.774-92.108,1.382c-21.106,5.838-44.712,10.638-52.456,10.668c-28.877,0.108-51.976-21.992-52.128-49.876
		c-0.092-16.76-6.542-26.249-13.27-19.521c-7.598,7.598,2.591,48.751,15.525,62.707c20.134,21.725,54.779,25.524,100.912,11.069
		c40.786-12.78,63.275-14.778,81.348-7.227c23.825,9.954,36.62,41.917,31.213,77.972c-1.401,9.343-2.188,14.042-4.693,16.41
		C321.326,472.027,327.708,474.089,333.925,477.516z"/>
	<path class="red" style="fill:red" d="M340.146,483.374c-2.991-1.106-4.941-2.511-6.221-5.858c-6.217-3.427-12.599-5.489-20.062-5.276
		c-2.444,2.31-6.522,2.4-14.413,2.4c-8.957,0-18.263,2.4-20.681,5.334c-5.029,6.103-22.253,75.891-22.253,90.164
		c0,5.213,2.148,11.625,4.773,14.25c0.392,0.392,0.731,0.884,1.029,1.448c7.994,1.517,15.318,1.484,23.421,0.608
		c0.721-8.779-1.248-12.017-5.613-15.32c-5.458-4.13-5.102-9.387,2.777-41.01c4.97-19.949,9.428-36.792,9.905-37.427
		c2.818-3.752,44.787,9.168,44.787,13.787c0,18.06-14.895,69.303-21.755,74.848c-1.503,1.215-3.207,4.134-4.971,8.168
		c6.897,0.619,12.381,4.741,18.576,6.698c1.33-1.357,2.528-1.91,3.23-1.268c4.938-4.444,6.324-10.315,9.339-15.669
		c0.322-3.561,4.119-21.472,8.773-41.298C360.355,497.207,359.02,490.357,340.146,483.374z"/>
</g>
</svg>
