<?xml version="1.0" encoding="utf-8"?>
<!-- Generator: Adobe Illustrator 15.0.0, SVG Export Plug-In . SVG Version: 6.00 Build 0)  -->
<!DOCTYPE svg PUBLIC "-//W3C//DTD SVG 1.1//EN" "http://www.w3.org/Graphics/SVG/1.1/DTD/svg11.dtd">
<svg version="1.1"
	 style="fill:#1C2833"
	 id="Capa_1" sodipodi:docname="home-3.svg" inkscape:version="0.91 r13725" xmlns:dc="http://purl.org/dc/elements/1.1/" xmlns:rdf="http://www.w3.org/1999/02/22-rdf-syntax-ns#" xmlns:sodipodi="http://sodipodi.sourceforge.net/DTD/sodipodi-0.dtd" xmlns:inkscape="http://www.inkscape.org/namespaces/inkscape" xmlns:svg="http://www.w3.org/2000/svg" xmlns:cc="http://creativecommons.org/ns#"
	 xmlns="http://www.w3.org/2000/svg" xmlns:xlink="http://www.w3.org/1999/xlink" x="0px" y="0px"  viewBox="0 123.307 595.281 595.275" enable-background="new 0 123.307 595.281 595.275" xml:space="preserve">
<sodipodi:namedview  id="namedview13" inkscape:pageopacity="0" inkscape:pageshadow="2" inkscape:window-width="852" inkscape:window-height="480" inkscape:window-x="509" inkscape:window-y="142" inkscape:current-layer="Capa_1" inkscape:cy="297.63751" gridtolerance="10" guidetolerance="10" bordercolor="#666666" borderopacity="1" inkscape:zoom="0.3964554" objecttolerance="10" inkscape:cx="297.6405" pagecolor="#ffffff" showgrid="false" inkscape:window-maximized="0">
	</sodipodi:namedview>
<path id="path3" d="M590.162,394.931L297.636,123.305L5.121,394.931c-4.12,3.835-4.365,10.292-0.53,14.422
	c3.814,4.121,10.291,4.355,14.412,0.53l33.851-31.434v340.136h489.563V378.441l33.855,31.435c1.959,1.825,4.453,2.724,6.941,2.724
	c2.744,0,5.467-1.092,7.467-3.254C594.527,405.223,594.283,398.766,590.162,394.931z M522.021,698.187H379.365
	c-1.967,0.383-3.99,0.592-6.059,0.592c-0.27,0-0.541-0.014-0.813-0.021c-1.051,0.111-2.109,0.189-3.188,0.189
	c-2.516,0-4.967-0.311-7.328-0.873c-1.063-0.051-2.111-0.154-3.146-0.309v0.422H237.702c-0.629,0.215-1.267,0.416-1.922,0.598
	c-6.412,1.764-13.397,1.301-19.739-0.957v0.359H73.252V359.5l224.384-208.361L522.021,359.5V698.187z"/>
<g>
	<g>
		<path class="red" style="fill:red" stroke-width="7" stroke-miterlimit="10" d="M418.526,444.926h-75.552v-75.554
			c0-4.172-3.384-7.555-7.556-7.555h-75.553c-4.173,0-7.556,3.382-7.556,7.555v75.554h-75.552c-4.172,0-7.556,3.382-7.556,7.555
			v75.552c0,4.174,3.382,7.556,7.556,7.556h75.552v75.553c0,4.174,3.383,7.556,7.556,7.556h75.553c4.172,0,7.556-3.382,7.556-7.556
			v-75.553h75.552c4.172,0,7.555-3.382,7.555-7.556V452.48C426.081,448.307,422.698,444.926,418.526,444.926z M410.971,520.478
			h-75.553c-4.175,0-7.555,3.384-7.555,7.554v75.554H267.42v-75.554c0-4.172-3.381-7.554-7.554-7.554h-75.552v-60.443h75.552
			c4.173,0,7.554-3.384,7.554-7.556v-75.552h60.443v75.552c0,4.172,3.383,7.556,7.555,7.556h75.553V520.478L410.971,520.478z"/>
	</g>
</g>
</svg>
