<?xml version="1.0"?>
<svg xmlns="http://www.w3.org/2000/svg" xmlns:xlink="http://www.w3.org/1999/xlink" version="1.1" x="0px" y="0px" viewBox="0 0 512 512" style="enable-background:new 0 0 512 512;fill:#1C2833" xml:space="preserve" >
<g>
	<g>
		<rect class="red" style="fill:red" x="89.154" y="429.959" width="77.203" height="30.001"  />
	</g>
	<g>
		<path d="M414.05,283.633V158.05C414.05,70.9,343.149,0,256,0S97.95,70.9,97.95,158.05v125.583    c-34.369,18.262-57.83,54.436-57.83,95.994V512H471.88V379.626C471.88,338.069,448.42,301.894,414.05,283.633z M256,30.001    c53.054,0,98.674,32.435,118.077,78.517c-6.293,0.982-12.672,1.494-19.087,1.494c-33.522,0-64.857-13.251-88.231-37.313    L256,61.624l-10.759,11.076c-23.374,24.062-54.708,37.313-88.231,37.313c-6.415,0-12.793-0.512-19.087-1.494    C157.327,62.437,202.946,30.001,256,30.001z M129.6,137.55c9.015,1.634,18.186,2.463,27.409,2.463    c36.751,0,71.386-12.802,98.99-36.325c27.605,23.523,62.241,36.325,98.99,36.325c9.224,0,18.394-0.829,27.409-2.463    c1.079,6.677,1.648,13.523,1.648,20.5c0,1.359-0.029,2.715-0.071,4.07c-0.012,0.375-0.028,0.749-0.043,1.123    c-0.043,1.075-0.1,2.148-0.169,3.219c-0.02,0.308-0.036,0.617-0.059,0.924c-0.098,1.351-0.215,2.7-0.355,4.044    c-0.023,0.22-0.051,0.438-0.075,0.657c-0.124,1.132-0.264,2.261-0.418,3.387c-0.051,0.371-0.102,0.742-0.156,1.112    c-0.166,1.14-0.346,2.277-0.542,3.411c-0.036,0.205-0.066,0.412-0.102,0.616c-0.222,1.248-0.469,2.489-0.728,3.729    c-0.104,0.496-0.214,0.989-0.324,1.483c-0.17,0.768-0.349,1.532-0.532,2.296c-0.139,0.576-0.275,1.153-0.422,1.727    c-0.186,0.728-0.387,1.451-0.586,2.175c-0.316,1.148-0.646,2.291-0.993,3.426c-0.097,0.319-0.194,0.638-0.294,0.957    c-15.071,47.901-57.59,83.752-109.033,89.022c-0.054,0.005-0.107,0.011-0.161,0.016c-0.955,0.097-1.914,0.181-2.876,0.256    c-0.295,0.023-0.592,0.043-0.887,0.063c-0.78,0.056-1.562,0.107-2.346,0.149c-0.557,0.029-1.115,0.049-1.673,0.071    c-0.568,0.022-1.136,0.049-1.706,0.065c-1.163,0.03-2.327,0.049-3.496,0.049c-1.169,0-2.333-0.019-3.496-0.049    c-0.57-0.016-1.138-0.042-1.706-0.065c-0.558-0.022-1.117-0.042-1.673-0.071c-0.784-0.042-1.565-0.094-2.346-0.149    c-0.296-0.021-0.592-0.041-0.887-0.063c-0.961-0.075-1.92-0.159-2.876-0.256c-0.054-0.005-0.107-0.011-0.161-0.016    c-51.443-5.27-93.962-41.12-109.033-89.022c-0.1-0.318-0.197-0.638-0.294-0.957c-0.347-1.135-0.677-2.278-0.993-3.426    c-0.199-0.724-0.4-1.448-0.586-2.175c-0.147-0.573-0.283-1.15-0.422-1.727c-0.184-0.764-0.363-1.528-0.532-2.296    c-0.11-0.494-0.22-0.987-0.324-1.483c-0.259-1.239-0.506-2.481-0.728-3.729c-0.037-0.205-0.067-0.412-0.102-0.616    c-0.196-1.134-0.377-2.271-0.542-3.411c-0.054-0.37-0.105-0.741-0.156-1.112c-0.154-1.126-0.294-2.255-0.418-3.387    c-0.024-0.219-0.052-0.438-0.075-0.657c-0.14-1.345-0.257-2.693-0.355-4.044c-0.022-0.307-0.039-0.616-0.059-0.924    c-0.07-1.071-0.126-2.145-0.169-3.219c-0.015-0.374-0.031-0.748-0.043-1.123c-0.043-1.354-0.071-2.711-0.071-4.07    C127.951,151.073,128.521,144.227,129.6,137.55z M384.05,250.706v22.278c-0.322-0.063-0.647-0.108-0.969-0.168    c-0.775-0.142-1.553-0.276-2.332-0.403c-0.665-0.108-1.331-0.21-1.998-0.306c-0.863-0.124-1.73-0.238-2.6-0.341    c-0.451-0.053-0.902-0.107-1.354-0.155c-1.168-0.124-2.34-0.23-3.518-0.317c-0.322-0.023-0.645-0.041-0.967-0.062    c-1.113-0.072-2.231-0.127-3.354-0.165c-0.15-0.005-0.299-0.018-0.45-0.022C372.901,264.791,378.771,257.99,384.05,250.706z     M334.604,384.037l-47.697,33.166l39.251-104.818l19.218,18.102l-25.78,32.633L334.604,384.037z M166.624,330.487l19.218-18.102    l39.251,104.818l-47.697-33.165l15.009-20.917L166.624,330.487z M127.951,250.707c5.277,7.283,11.149,14.085,17.543,20.339    c-0.151,0.004-0.3,0.017-0.45,0.022c-1.122,0.038-2.24,0.093-3.354,0.165c-0.322,0.021-0.645,0.038-0.967,0.062    c-1.178,0.086-2.351,0.193-3.518,0.317c-0.452,0.048-0.903,0.102-1.354,0.155c-0.87,0.104-1.736,0.217-2.6,0.341    c-0.667,0.095-1.333,0.198-1.998,0.306c-0.78,0.127-1.557,0.26-2.332,0.403c-0.322,0.059-0.647,0.105-0.969,0.168V250.707z     M241,481.997H70.122V379.626c0-37.927,26.992-69.667,62.775-77.021c0.01-0.002,0.021-0.005,0.031-0.007    c1.207-0.248,2.425-0.463,3.651-0.654c0.081-0.012,0.162-0.029,0.243-0.042c1.14-0.174,2.291-0.315,3.446-0.439    c0.169-0.018,0.336-0.044,0.505-0.062c1.084-0.11,2.177-0.185,3.273-0.25c0.238-0.014,0.473-0.04,0.712-0.052    c1.322-0.066,2.653-0.101,3.991-0.101h5.425l-28.14,26.505l28.822,36.483l-19.587,27.298L241,464.804V481.997z M217.507,311.394    c8.577,2.149,17.341,3.561,26.257,4.235c0.182,0.015,0.366,0.025,0.549,0.038c1.135,0.082,2.272,0.159,3.412,0.217    c0.536,0.028,1.075,0.043,1.612,0.065c0.821,0.034,1.641,0.073,2.464,0.094c1.395,0.037,2.794,0.057,4.198,0.057    c1.404,0,2.803-0.02,4.198-0.057c0.823-0.021,1.643-0.06,2.464-0.094c0.537-0.022,1.076-0.038,1.612-0.065    c1.14-0.058,2.276-0.135,3.412-0.217c0.183-0.014,0.366-0.023,0.549-0.038c8.916-0.674,17.68-2.085,26.257-4.235L256,414.189    L217.507,311.394z M441.879,481.999L441.879,481.999H271.001v-17.193l105.731-73.52l-19.587-27.298l28.822-36.483L357.827,301    h5.425c1.339,0,2.669,0.035,3.991,0.101c0.238,0.012,0.474,0.038,0.712,0.052c1.096,0.065,2.189,0.14,3.273,0.25    c0.169,0.017,0.336,0.043,0.505,0.062c1.155,0.125,2.306,0.265,3.446,0.439c0.081,0.012,0.162,0.029,0.243,0.042    c1.226,0.191,2.445,0.407,3.651,0.654c0.01,0.002,0.021,0.004,0.031,0.007c35.783,7.354,62.775,39.095,62.775,77.021V481.999z"/>
	</g>
</g>
</svg>
