<?xml version="1.0" encoding="utf-8"?>
<!-- Generator: Adobe Illustrator 15.0.0, SVG Export Plug-In . SVG Version: 6.00 Build 0)  -->
<!DOCTYPE svg PUBLIC "-//W3C//DTD SVG 1.1 Basic//EN" "http://www.w3.org/Graphics/SVG/1.1/DTD/svg11-basic.dtd">
<svg version="1.1" baseProfile="basic" id="Layer_1"
	 xmlns="http://www.w3.org/2000/svg" xmlns:xlink="http://www.w3.org/1999/xlink" x="0px" y="0px" style="fill:white"  viewBox="0 123.307 595.281 595.275" xml:space="preserve">
<g>
	<g>
		<path d="M26.8,353.875l207.455,275.698c3.009,3.999,8.687,4.8,12.684,1.792c3.997-3.007,4.8-8.687,1.791-12.685L41.275,342.983
			c-7.207-9.578-5.277-23.234,4.3-30.44l217.114-163.372c9.578-7.208,23.233-5.277,30.441,4.3l36.457,48.45
			c3.007,3.997,8.686,4.799,12.684,1.791c3.997-3.008,4.798-8.687,1.791-12.683l-36.458-48.45
			c-13.212-17.561-38.249-21.097-55.808-7.884L34.681,298.067C17.122,311.279,13.587,336.314,26.8,353.875z"/>
	</g>
</g>
<g>
	<g>
		<path d="M351.372,230.866l204.245,271.436c7.208,9.579,5.279,23.234-4.3,30.439L334.203,696.114
			c-9.578,7.206-23.234,5.278-30.441-4.3l-34.336-45.631c-3.009-3.999-8.688-4.801-12.684-1.793s-4.799,8.686-1.792,12.683
			l34.337,45.633c13.213,17.561,38.248,21.097,55.81,7.883l217.114-163.37c17.559-13.213,21.094-38.247,7.881-55.81L365.847,219.975
			c-3.01-3.999-8.688-4.8-12.686-1.792C349.165,221.192,348.364,226.868,351.372,230.866z"/>
	</g>
</g>
<g>
	<g>
		<path d="M235.135,573.499c3.008,3.997,8.686,4.798,12.683,1.79l77.609-58.396c3.996-3.009,4.797-8.688,1.789-12.685
			c-3.009-3.998-8.687-4.799-12.683-1.793l-77.608,58.397C232.928,563.822,232.126,569.499,235.135,573.499z"/>
	</g>
</g>
<g>
	<g>
		<path d="M161.053,255.117l75.12,99.832l-98.427,74.062c-3.997,3.009-4.8,8.686-1.792,12.684c3.008,4,8.687,4.799,12.685,1.791
			l98.426-74.061l174.296,231.632c3.008,3.998,8.687,4.8,12.684,1.794c3.998-3.011,4.801-8.688,1.792-12.687l-75.119-99.828
			l98.426-74.063c3.997-3.008,4.799-8.689,1.792-12.685c-3.01-3.998-8.687-4.799-12.685-1.791l-98.426,74.062l-88.284-117.328
			l98.426-74.063c3.997-3.008,4.799-8.686,1.79-12.685c-3.007-3.998-8.685-4.798-12.682-1.791l-98.427,74.063l-75.12-99.833
			c-3.008-3.998-8.687-4.8-12.685-1.792C158.848,245.441,158.045,251.121,161.053,255.117z"/>
	</g>
</g>
<g>
	<g>
		<path class="red" style="fill:red" d="M280.692,620.881c4.208,14.771,13.917,27.018,27.341,34.486c13.423,7.47,28.95,9.26,43.72,5.045
			c30.488-8.684,48.226-40.556,39.541-71.052c-1.97-6.913-5.144-13.273-9.34-18.85c-4.77-6.339-10.858-11.663-18-15.638
			c-13.424-7.47-28.948-9.265-43.712-5.053C289.75,558.512,272.008,590.387,280.692,620.881z M375.33,603.327
			c0.81,17.822-10.655,34.568-28.54,39.662c-0.003,0.001-0.004,0.001-0.006,0.002c-10.115,2.887-20.749,1.662-29.944-3.455
			c-4.892-2.722-9.063-6.369-12.33-10.711c-1.072-1.424-2.045-2.921-2.915-4.486L375.33,603.327z M325.208,567.242
			c10.112-2.883,20.742-1.655,29.936,3.459c6.495,3.614,11.712,8.863,15.236,15.199l-73.723,21.007
			C295.847,589.089,307.319,572.342,325.208,567.242z"/>
	</g>
</g>
<g>
	<g>
		<path d="M210.622,249.382c3.538,26.452,27.937,45.099,54.393,41.569c26.458-3.54,45.104-27.941,41.57-54.393
			c-1.136-8.508-4.43-16.207-9.258-22.623c-10.185-13.529-27.187-21.342-45.137-18.947
			C225.737,198.525,207.089,222.926,210.622,249.382z M288.627,238.956v0.002c1.795,13.427-5.545,26.007-17.217,31.465
			l-7.657-57.304C276.45,215.317,286.835,225.528,288.627,238.956z M245.797,215.517l7.656,57.289
			c-7.66-1.329-14.484-5.56-19.081-11.669c-3.021-4.015-5.082-8.833-5.794-14.155C226.785,233.552,234.126,220.971,245.797,215.517z
			"/>
	</g>
</g>
<g>
	<g>
		<path d="M299.336,348.227c-4.23,8.883-4.749,18.881-1.459,28.149c3.288,9.274,9.991,16.705,18.865,20.929l52.383,24.969
			c18.32,8.741,40.344,0.938,49.096-17.406c5.909-12.442,4.439-27.006-3.837-38.004c-3.521-4.68-8.21-8.504-13.57-11.066
			l-26.188-12.487c-0.001-0.001-0.002,0-0.002,0l-26.192-12.48c-8.878-4.236-18.876-4.759-28.149-1.47
			C311.012,332.647,303.577,339.343,299.336,348.227z M393.01,372.146c2.776,1.325,5.097,3.213,6.9,5.607
			c4.209,5.597,4.956,13.007,1.956,19.326c-4.446,9.316-15.635,13.281-24.944,8.84l-18.018-8.586l16.1-33.77L393.01,372.146z
			 M326.335,346.436c4.708-1.668,9.783-1.407,14.298,0.748l18.015,8.588l-16.096,33.768l-18.018-8.588
			c-2.764-1.313-5.11-3.241-6.897-5.615c-1.132-1.504-2.041-3.19-2.687-5.014c-1.67-4.71-1.407-9.791,0.74-14.298
			C317.843,351.51,321.623,348.104,326.335,346.436z"/>
	</g>
</g>
<g>
	<g>
		<path d="M78.688,324.579c-0.851,11.851,6.343,23.793,20.256,33.618c11.088,7.832,24.984,13.197,36.272,14.005
			c11.281,0.805,25.796-2.535,37.886-8.712c15.166-7.751,23.985-18.546,24.834-30.401c0.511-7.164-1.916-14.356-6.989-21.098
			c-3.319-4.411-7.771-8.628-13.271-12.513c-11.087-7.831-24.982-13.201-36.264-14.01c-0.001,0-0.003,0-0.005,0.001
			c-11.278-0.802-25.795,2.536-37.885,8.713C88.358,301.931,79.536,312.726,78.688,324.579z M140.118,303.535
			c7.929,0.569,18.824,4.884,27.109,10.737c8.281,5.853,13.008,12.405,12.644,17.525c-0.844,11.727-26.96,23.504-43.362,22.337
			c-7.929-0.569-18.825-4.882-27.111-10.734c-3.949-2.79-7.087-5.738-9.254-8.616c-2.375-3.157-3.578-6.229-3.386-8.912
			C97.599,314.146,123.711,302.369,140.118,303.535z"/>
	</g>
</g>
</svg>
