<?xml version="1.0" encoding="iso-8859-1"?>
<!-- Generator: Adobe Illustrator 19.0.0, SVG Export Plug-In . SVG Version: 6.00 Build 0)  -->
<svg version="1.1" id="Layer_1" xmlns="http://www.w3.org/2000/svg" xmlns:xlink="http://www.w3.org/1999/xlink" x="0px" y="0px"
	 viewBox="0 0 512 512" style="enable-background:new 0 0 512 512;fill:red" xml:space="preserve">
<g>
	<g>
		<path d="M471.149,40.812C444.856,14.52,409.774,0.041,372.366,0.041c-37.408,0-72.49,14.479-98.783,40.771L40.773,273.624
			C14.48,299.915,0,334.997,0,372.405c0,37.409,14.48,72.492,40.773,98.783c26.291,26.292,61.373,40.771,98.783,40.771
			c37.409,0,72.49-14.479,98.783-40.771l232.811-232.812C525.617,183.908,525.617,95.28,471.149,40.812z M210.511,443.362
			c-18.859,18.859-44.059,29.245-70.957,29.245s-52.097-10.386-70.957-29.245c-18.86-18.859-29.245-44.059-29.245-70.957
			c0-26.897,10.386-52.097,29.245-70.957l102.997-102.997l141.914,141.914L210.511,443.362z M443.323,210.55L341.334,312.539
			L199.42,170.626L301.409,68.638c18.859-18.859,44.059-29.245,70.957-29.245c26.898,0,52.097,10.385,70.956,29.245
			C482.447,107.763,482.448,171.425,443.323,210.55z"/>
	</g>
</g>
<g>
	<g>
		<path d="M435.222,78.886c-7.683-7.684-20.142-7.684-27.826,0s-7.684,20.142,0,27.826c19.195,19.195,19.195,50.427,0,69.622
			c-7.683,7.684-7.683,20.142,0,27.826c3.842,3.842,8.878,5.762,13.912,5.762c5.034,0,10.071-1.92,13.914-5.764
			C469.76,169.622,469.76,113.424,435.222,78.886z"/>
	</g>
</g>
<g>
</g>
<g>
</g>
<g>
</g>
<g>
</g>
<g>
</g>
<g>
</g>
<g>
</g>
<g>
</g>
<g>
</g>
<g>
</g>
<g>
</g>
<g>
</g>
<g>
</g>
<g>
</g>
<g>
</g>
</svg>
