<?xml version="1.0" encoding="iso-8859-1"?>
<!-- Generator: Adobe Illustrator 19.0.0, SVG Export Plug-In . SVG Version: 6.00 Build 0)  -->
<svg version="1.1" id="Layer_1" xmlns="http://www.w3.org/2000/svg" xmlns:xlink="http://www.w3.org/1999/xlink" x="0px" y="0px"
	 viewBox="0 0 512 512" style="enable-background:new 0 0 512 512;fill:#1C2833" xml:space="preserve">
<g>
	<g class="green" style="fill:red">
		<path d="M219.699,103.698c-3.326-1.089-6.774-1.641-10.248-1.641c-14.274,0-26.85,9.119-31.293,22.694
			c-5.648,17.257,3.795,35.893,21.054,41.542c5.297,1.734,12.956,2.729,21.011,2.729c10.344,0,34.954-1.694,40.089-17.381
			C267.033,131.106,232.769,107.976,219.699,103.698z M245.766,146.882c-0.939,2.866-10.338,6.837-25.544,6.837
			c-6.313,0-12.538-0.755-16.25-1.97c-9.238-3.023-14.293-12.999-11.269-22.236c2.379-7.268,9.11-12.151,16.748-12.151
			c1.854,0,3.701,0.297,5.487,0.882c5.065,1.658,14.108,7.031,21.594,14.092C244.378,139.737,246.354,145.089,245.766,146.882z"/>
	</g>
</g>
<g>
	<g>
		<path d="M255.473,17.834c-3.773-0.808-7.641-1.558-11.497-2.227c-4.171-0.727-8.127,2.065-8.85,6.229
			c-0.721,4.165,2.067,8.127,6.231,8.85c3.661,0.637,7.291,1.578,10.912,2.114c4.809,0.712,8.315-2.289,9.085-5.881
			C262.239,22.787,259.606,18.719,255.473,17.834z"/>
	</g>
</g>
<g>
	<g class="green" style="fill:red">
		<path d="M313.584,346.11c-5.297-1.734-12.956-2.729-21.011-2.729c-10.344,0-34.954,1.694-40.089,17.381
			c-6.722,20.536,27.543,43.667,40.613,47.945c3.326,1.089,6.774,1.641,10.248,1.641c14.274,0,26.85-9.119,31.293-22.694
			C340.286,370.395,330.842,351.759,313.584,346.11z M320.092,382.891c-2.379,7.268-9.11,12.151-16.748,12.151
			c-1.854,0-3.701-0.297-5.487-0.882c-5.065-1.658-14.108-7.031-21.595-14.092c-7.845-7.401-9.82-12.754-9.234-14.546
			c0.939-2.866,10.338-6.837,25.544-6.837c6.313,0,12.538,0.755,16.25,1.97C318.061,363.678,323.116,373.653,320.092,382.891z"/>
	</g>
</g>
<g>
	<g class="green" style="fill:red">
		<path d="M347.89,150.907c-4.574-0.395-9.251-0.76-13.899-1.086c-4.24-0.29-7.873,2.884-8.167,7.099s2.883,7.872,7.099,8.167
			c4.566,0.319,9.158,0.678,13.651,1.066c0.224,0.019,7.263,1.102,8.282-6.965C355.384,154.996,352.101,151.27,347.89,150.907z"/>
	</g>
</g>
<g>
	<g class="green" style="fill:red">
		<path d="M309.793,148.429c-6.832-0.315-13.905-0.588-22.973-0.885l-0.364-0.01c-4.443-0.099-8.803-0.186-13.092-0.261
			c-4.246-0.052-7.711,3.291-7.785,7.518c-0.073,4.225,3.292,7.71,7.518,7.785c4.266,0.075,8.601,0.161,12.977,0.258l0.285,0.008
			c8.958,0.293,15.969,0.563,22.729,0.875c0.119,0.006,7.252,0,7.997-7.291C317.514,152.222,314.015,148.624,309.793,148.429z"/>
	</g>
</g>
<g>
	<g>
		<path d="M506.039,185.846c-11.132-10.299-29.289-24.27-52.563-32.344c-3.992-1.389-8.353,0.727-9.738,4.721
			c-1.385,3.993,0.728,8.353,4.722,9.738c20.771,7.207,37.125,19.814,47.186,29.121c1.33,1.23,1.091,2.646,0.831,3.379
			c-0.263,0.742-0.976,2.002-2.804,2.12l-40.287,2.612c-3.383,0.219-6.221,2.639-6.969,5.947l-8.134,35.947
			c-0.43,1.899-1.88,2.353-2.707,2.454c-0.835,0.101-2.36,0.012-3.242-1.743c-7.476-14.868-15.78-29.7-23.003-42.07
			c1.947,0.336,8.446,1.38,9.714,1.38c0.001,0,0.001,0,0.002,0c7.64,0,14.724-4.196,18.944-11.223
			c4.725-7.865,4.976-17.796,0.656-25.914c-2.099-3.943-4.401-7.957-6.841-11.931c-11.082-18.026-34.022-49.409-71.038-73.962
			c-0.005-0.017-0.007-0.035-0.011-0.052c-3.187-11.71-10.329-22.133-20.112-29.352c-17.525-12.932-38.906-23.247-63.549-30.658
			c-4.047-1.217-8.314,1.076-9.533,5.124c-1.216,4.047,1.078,8.314,5.124,9.532c22.957,6.903,43.568,17.552,61.102,30.104
			c-29.093-14.051-61.177-21.465-93.385-21.465c-17.601,0-35.068,2.233-52.038,6.627l4.919-5.714
			c7.274-8.448,17.287-14.37,28.197-16.677c4.135-0.873,6.779-4.934,5.904-9.069c-0.873-4.135-4.945-6.776-9.069-5.904
			c-14.173,2.996-27.182,10.69-36.63,21.665l-21.537,25.019c-40.652,16.556-76.998,46.048-101.541,82.869
			c-0.22,0.331-7.291,9.779-1.079,23.207c1.438,3.106,4.558,6.714,10.158,9.232c-0.544,5.887,0.647,10.806,3.564,14.68
			c2.637,3.505,7.94,7.682,18.216,7.682c4.193,0,7.742-0.703,9.001-0.987c25.647-3.646,49.889-5.493,72.116-5.493
			c0.096,0,0.192-0.002,0.287-0.005c19.852-0.744,40.224-1.105,62.28-1.105c16.425,0,33.359,0.199,51.69,0.606
			c30.53,1.002,63.587,2.55,104.836,8.637c8.216,13.673,19.324,32.885,28.98,52.093c3.202,6.367,8.254,10.787,18.773,10.058
			c7.88-0.546,14.033-6.559,15.778-14.267l6.871-30.37l34.582-2.242c7.502-0.487,13.724-5.19,16.237-12.276
			C513.412,198.502,511.548,190.941,506.039,185.846z M112.942,127.092c7.33,0,13.291,5.963,13.291,13.291
			c0,7.329-5.963,13.291-13.291,13.291c-7.329,0-13.291-5.963-13.291-13.291S105.612,127.092,112.942,127.092z M285.265,178.645
			c-18.527-0.412-35.573-0.612-52.112-0.612c-22.195,0-42.71,0.363-62.709,1.11c-22.966,0.005-48.018,1.92-74.466,5.694
			c-0.242,0.035-10.097,2.698-12.498-0.797c-0.699-1.017-1.037-3.773,0.365-8.643c0.598-2.078,0.288-4.314-0.853-6.15
			c-1.14-1.838-3.005-3.107-5.133-3.493c-2.489-0.453-5.681-1.423-6.749-3.478c-1.145-2.204-0.297-6,0.608-8.215
			c3.964-5.903,8.257-11.599,12.836-17.067c-0.133,1.113-0.208,2.244-0.208,3.392c0,15.768,12.828,28.596,28.596,28.596
			s28.596-12.828,28.596-28.596s-12.828-28.596-28.596-28.596c-1.229,0-2.438,0.087-3.628,0.238
			c21.389-18.249,46.358-32.246,72.747-40.354c18.905-6.011,38.536-9.058,58.346-9.058c41.409,0,74.208,12.966,94.491,23.876
			c44.969,23.678,71.851,60.013,83.87,79.562c2.274,3.704,4.418,7.441,6.369,11.108c2.165,4.068,1.043,8.14-0.264,10.845
			c-1.657,3.43-4.59,4.122-6.943,3.698C363.331,181.85,322.492,179.866,285.265,178.645z"/>
	</g>
</g>
<g>
	<g class="green" style="fill:red">
		<path d="M118.36,134.976c-1.428-1.428-3.398-2.245-5.418-2.245c-2.01,0-3.979,0.816-5.408,2.245
			c-1.428,1.418-2.245,3.398-2.245,5.408c0,2.01,0.816,3.989,2.245,5.408c1.428,1.428,3.398,2.245,5.408,2.245
			c2.02,0,3.989-0.816,5.418-2.245c1.418-1.418,2.234-3.398,2.234-5.408C120.594,138.374,119.778,136.394,118.36,134.976z"/>
	</g>
</g>
<g>
	<g class="green" style="fill:red">
		<path d="M179.872,346.445c-4.566-0.319-9.158-0.678-13.651-1.066c-4.198-0.364-7.919,2.755-8.282,6.966
			c-0.365,4.211,2.754,7.92,6.965,8.283c4.574,0.395,9.251,0.76,13.899,1.086c0.183,0.012,7.448,0,8.167-7.1
			C187.398,350.409,184.088,346.741,179.872,346.445z"/>
	</g>
</g>
<g>
	<g class="green" style="fill:red">
		<path d="M239.699,348.958c-4.266-0.074-8.601-0.161-12.977-0.258l-0.285-0.008c-8.958-0.293-15.969-0.563-22.729-0.875
			c-4.187-0.2-7.803,3.069-7.997,7.291c-0.196,4.221,3.069,7.802,7.291,7.997c6.832,0.315,13.905,0.588,22.973,0.885l0.364,0.01
			c4.443,0.099,8.803,0.186,13.092,0.261c0.046,0,7.273,0,7.785-7.518C247.504,352.527,243.925,349.033,239.699,348.958z"/>
	</g>
</g>
<g>
	<g>
		<path d="M454.468,343.581c-1.438-3.106-4.558-6.714-10.158-9.232c0.544-5.887-0.647-10.806-3.564-14.68
			c-2.637-3.505-7.94-7.682-18.216-7.682c-4.193,0-7.742,0.703-9.001,0.987c-25.647,3.646-49.889,5.493-72.116,5.493
			c-0.096,0-0.192,0.002-0.287,0.005c-19.852,0.744-40.224,1.105-62.28,1.105c-16.425,0-33.359-0.199-51.69-0.606
			c-30.53-1.002-63.587-2.55-104.836-8.637c-8.216-13.673-19.324-32.885-28.98-52.093c-3.202-6.367-8.254-10.787-18.773-10.058
			c-7.88,0.546-14.033,6.559-15.778,14.267l-6.871,30.37l-34.582,2.242c-7.502,0.487-13.724,5.19-16.237,12.276
			c-2.51,7.075-0.647,14.635,4.863,19.73c11.132,10.299,29.289,24.27,52.563,32.344c3.992,1.389,8.353-0.727,9.738-4.721
			c1.385-3.993-0.729-8.353-4.722-9.738c-20.771-7.207-37.125-19.814-47.186-29.121c-1.331-1.23-1.091-2.646-0.831-3.379
			c0.263-0.742,0.976-2.002,2.804-2.12l40.287-2.612c3.383-0.219,6.221-2.64,6.969-5.947l8.134-35.947
			c0.43-1.899,1.88-2.353,2.707-2.454c0.835-0.101,2.36-0.012,3.242,1.743c7.476,14.868,15.78,29.7,23.003,42.07
			c-1.947-0.336-8.446-1.38-9.714-1.38c-0.001,0-0.001,0-0.002,0c-7.64,0-14.724,4.197-18.944,11.223
			c-4.725,7.865-4.976,17.796-0.656,25.914c2.099,3.943,4.401,7.957,6.841,11.931c11.082,18.026,34.022,49.409,71.038,73.962
			c0.005,0.017,0.007,0.035,0.011,0.052c3.187,11.71,10.329,22.133,20.112,29.352c17.525,12.932,38.906,23.247,63.549,30.658
			c4.047,1.217,8.314-1.076,9.533-5.124c1.216-4.047-1.078-8.314-5.124-9.532c-22.957-6.903-43.568-17.552-61.102-30.104
			c29.093,14.051,61.177,21.465,93.384,21.465c17.601,0,35.069-2.233,52.038-6.627l-4.919,5.714
			c-7.274,8.448-17.287,14.37-28.197,16.677c-4.135,0.873-6.779,4.934-5.904,9.069c0.873,4.135,4.945,6.776,9.069,5.904
			c14.173-2.996,27.182-10.69,36.63-21.665l21.537-25.019c40.653-16.556,76.998-46.049,101.542-82.869
			C453.609,366.458,460.681,357.009,454.468,343.581z M399.854,384.441c-7.33,0-13.291-5.963-13.291-13.291
			s5.963-13.291,13.291-13.291s13.291,5.963,13.291,13.291S407.183,384.441,399.854,384.441z M440.282,358.856
			c-3.75,5.585-7.8,10.979-12.103,16.177c0.173-1.271,0.27-2.566,0.27-3.883c0-15.768-12.828-28.596-28.596-28.596
			s-28.596,12.828-28.596,28.596s12.828,28.596,28.596,28.596c1.559,0,3.087-0.131,4.58-0.371
			c-21.772,18.988-47.383,33.539-74.496,41.869c-18.905,6.011-38.536,9.058-58.346,9.058c-41.409,0-74.208-12.966-94.492-23.876
			c-44.968-23.678-71.851-60.013-83.87-79.562c-2.274-3.704-4.418-7.441-6.369-11.108c-2.165-4.068-1.043-8.14,0.264-10.845
			c1.657-3.43,4.59-4.122,6.943-3.698c54.599,9.851,95.438,11.835,132.665,13.057c18.526,0.412,35.573,0.612,52.112,0.612
			c22.195,0,42.71-0.363,62.709-1.11c22.966-0.005,48.018-1.92,74.466-5.694c0.242-0.035,10.097-2.698,12.498,0.797
			c0.699,1.017,1.037,3.773-0.365,8.643c-0.598,2.078-0.288,4.314,0.853,6.15c1.14,1.838,3.005,3.107,5.133,3.494
			c2.489,0.453,5.681,1.423,6.749,3.478C442.034,352.845,441.186,356.641,440.282,358.856z"/>
	</g>
</g>
<g>
	<g class="green" style="fill:red">
		<path d="M405.261,365.742c-1.428-1.428-3.398-2.245-5.408-2.245c-2.02,0-3.989,0.816-5.418,2.245
			c-1.418,1.418-2.234,3.398-2.234,5.408c0,2.01,0.816,3.989,2.234,5.408c1.428,1.428,3.398,2.245,5.418,2.245
			c2.01,0,3.979-0.816,5.408-2.245c1.428-1.418,2.245-3.398,2.245-5.408C407.506,369.14,406.69,367.16,405.261,365.742z"/>
	</g>
</g>
<g>
</g>
<g>
</g>
<g>
</g>
<g>
</g>
<g>
</g>
<g>
</g>
<g>
</g>
<g>
</g>
<g>
</g>
<g>
</g>
<g>
</g>
<g>
</g>
<g>
</g>
<g>
</g>
<g>
</g>
</svg>
