<?xml version="1.0" encoding="utf-8"?>
<!-- Generator: Adobe Illustrator 15.0.0, SVG Export Plug-In . SVG Version: 6.00 Build 0)  -->
<!DOCTYPE svg PUBLIC "-//W3C//DTD SVG 1.1//EN" "http://www.w3.org/Graphics/SVG/1.1/DTD/svg11.dtd">
<svg version="1.1" id="Capa_1" xmlns="http://www.w3.org/2000/svg" xmlns:xlink="http://www.w3.org/1999/xlink" x="0px" y="0px" style="fill:white"
	 viewBox="0.138 124.248 595.281 584" enable-background="new 0.138 124.248 595.281 584"
	 xml:space="preserve">
<path d="M580.284,208.349h-90.809v-55.502c0-8.36-6.775-15.135-15.135-15.135c-8.361,0-15.135,6.774-15.135,15.135v55.502H136.35
	v-55.502c0-8.36-6.776-15.135-15.134-15.135c-8.36,0-15.134,6.774-15.134,15.135v55.502h-90.81c-8.36,0-15.134,6.774-15.134,15.134
	V682.65c0,8.357,6.774,15.134,15.134,15.134h565.012c8.359,0,15.135-6.776,15.135-15.134V223.483
	C595.418,215.123,588.643,208.349,580.284,208.349z M339.143,383.112v72.484h-82.73v-72.484H339.143z M565.149,455.594h-82.738
	v-72.485h82.738V455.594z M452.143,455.594h-82.732v-72.485h82.732V455.594L452.143,455.594z M256.413,485.862h82.73v72.475h-82.73
	V485.862L256.413,485.862z M256.413,588.605h82.73v78.91h-82.73V588.605L256.413,588.605z M369.411,588.605h82.732v78.91h-82.732
	V588.605z M369.411,558.337v-72.475h82.732v72.475H369.411z M482.411,485.862h82.738v72.475h-82.738V485.862z M106.082,238.617
	v55.511c0,8.359,6.774,15.134,15.134,15.134c8.358,0,15.134-6.774,15.134-15.134v-55.511h322.855v55.511
	c0,8.359,6.773,15.134,15.135,15.134c8.359,0,15.135-6.774,15.135-15.134v-55.511h75.674v114.226H30.406V238.617H106.082z
	 M30.406,383.112h195.738v284.404H30.406V383.112z M482.411,667.515v-78.91h82.738v78.91H482.411z"/>
<rect class="green" style="fill:red" x="256.413" y="383.112" fill="#00A651" stroke="#000000" stroke-miterlimit="10" width="82.73" height="72.484"/>
<rect class="green" style="fill:red" x="369.411" y="383.109" fill="#00A651" stroke="#000000" stroke-miterlimit="10" width="82.729" height="72.485"/>
</svg>
