<?xml version="1.0" ?><!DOCTYPE svg  PUBLIC '-//W3C//DTD SVG 1.1//EN'  'http://www.w3.org/Graphics/SVG/1.1/DTD/svg11.dtd'><svg enable-background="new 0 0 64 64"  id="Layer_1" version="1.1" viewBox="0 0 64 64" xml:space="preserve" style="fill:white" xmlns="http://www.w3.org/2000/svg" xmlns:xlink="http://www.w3.org/1999/xlink">
<g>
	<path d="M59.565,2.186H17.649c-2.449,0-4.425,2.016-4.425,4.476v5.995c-0.025,0.507-0.182,1.315-0.938,1.312   c0,0,0,0-0.001,0c-1.655-0.008-4.06-0.019-7.007-0.03c-3.778-0.018-4.921,2.689-5.267,4.542v32.487c0,0,0.114,3.153,0.881,5.034   c0.38,0.836,0.861,1.679,1.462,2.562c0.968,1.421,2.447,2.172,3.659,2.569l-0.003,0.001c0,0,0.581,0.465,4.905,0.68h49.11   c2.228-0.234,3.965-2.111,3.965-4.429V6.662C63.989,4.202,62.014,2.186,59.565,2.186z M13.436,46.989   c0,1.386-0.396,5.117-0.475,5.848c-0.035,0.198-0.059,0.383-0.101,0.591l0.003-0.002c0,0-0.364,2.287-0.966,3.894   c-0.237,0.678-0.736,0.927-1.001,1.011c-2.921,0.508-4.443-0.52-4.785-0.8c-0.429-0.407-0.889-0.973-1.335-1.823   c-0.016-0.028-0.035-0.049-0.049-0.078c-0.032-0.062-0.051-0.122-0.081-0.184c-0.075-0.153-0.15-0.288-0.224-0.456   c-0.038-0.089-0.059-0.171-0.085-0.255c-0.879-2.022-1.275-3.878-1.267-6.119c0.008-2.572,0.084-26.323,0.084-26.323   s-0.203-5.439,3.42-5.417c3.073,0.019,5.22,0.032,5.807,0.035l0,0h0.003c0.103,0.002,0.173,0.002,0.173,0.002h0.025   c0.304,0.03,0.846,0.228,0.851,1.286l-0.002,0.602h0.006V46.989z M60.949,54.502c0,2.214-1.732,4.002-3.88,4.002H20.2   c-1.085-0.005-2.375-0.013-3.673-0.031c-0.98-0.015-1.208-0.642-1.24-1.139c0.042-0.896,0.263-2.113,0.412-2.837   c0.038-0.171,0.073-0.339,0.107-0.512c0.013-0.059,0.022-0.1,0.022-0.1l0,0c0.44-2.223,0.554-4.331,0.554-4.331h-0.003   c0.019-0.316,0.028-0.591,0.028-0.767c0-0.174,0-0.266,0-0.266V9.115c0-2.202,1.736-4.004,3.882-4.004h36.779   c2.147,0,3.88,1.802,3.88,4.004V54.502z" />
	<g class="blue" style="fill:red">
		<path d="M24.245,15.435h28.967c0,0,2.035-0.163,2.012,1.491c0,0.606-0.046,1.492-2.075,1.492   c-2.027,0-28.903,0-28.903,0s-1.54-0.214-1.492-1.494C22.775,16.204,23.173,15.435,24.245,15.435z" />
		<path d="M24.245,22.956h28.967c0,0,2.035-0.163,2.012,1.492c0,0.607-0.046,1.492-2.075,1.492   c-2.027,0-28.903,0-28.903,0s-1.54-0.214-1.492-1.494C22.775,23.726,23.173,22.956,24.245,22.956z" />
		<path d="M23.995,30.511h28.969c0,0,2.035-0.163,2.011,1.492c0,0.606-0.046,1.492-2.074,1.492   c-2.027,0-28.906,0-28.906,0s-1.538-0.214-1.492-1.494C22.528,31.281,22.924,30.511,23.995,30.511z" />
		<path d="M23.995,37.784h28.969c0,0,2.035-0.163,2.011,1.492c0,0.605-0.046,1.492-2.074,1.492   c-2.027,0-28.906,0-28.906,0s-1.538-0.214-1.492-1.493C22.528,38.555,22.924,37.784,23.995,37.784z" />
		<path d="M23.995,45.368h28.969c0,0,2.035-0.163,2.011,1.492c0,0.606-0.046,1.492-2.074,1.492   c-2.027,0-28.906,0-28.906,0s-1.538-0.212-1.492-1.493C22.528,46.139,22.924,45.368,23.995,45.368z" />
	</g>
</g>
</svg>