<?xml version="1.0" encoding="iso-8859-1"?>
<!-- Generator: Adobe Illustrator 19.0.0, SVG Export Plug-In . SVG Version: 6.00 Build 0)  -->
<svg version="1.1" id="Capa_1" xmlns="http://www.w3.org/2000/svg" xmlns:xlink="http://www.w3.org/1999/xlink" x="0px" y="0px"
	 viewBox="0 0 511.083 511.083" style="enable-background:new 0 0 511.083 511.083;fill:white" xml:space="preserve">
<g>
	<g>
		<g>
			<path d="M404.885,330.205c-23.531,0-42.667,19.136-42.667,42.667s19.136,42.667,42.667,42.667
				c23.531,0,42.667-19.136,42.667-42.667S428.416,330.205,404.885,330.205z M404.885,394.205c-11.776,0-21.333-9.579-21.333-21.333
				s9.557-21.333,21.333-21.333s21.333,9.579,21.333,21.333S416.661,394.205,404.885,394.205z"/>
			<path d="M405.141,308.871c5.739,0,11.093-2.24,15.061-6.315c4.011-4.075,6.144-9.493,6.016-15.275
				c-0.299-11.627-9.984-21.077-21.589-21.077c-5.76,0-11.115,2.24-15.104,6.336c-4.011,4.096-6.123,9.515-5.973,15.211
				C383.808,299.399,393.493,308.871,405.141,308.871z"/>
			<path d="M405.141,244.871c5.739,0,11.093-2.24,15.061-6.315c4.011-4.075,6.144-9.493,6.016-15.275
				c-0.299-11.627-9.984-21.077-21.589-21.077c-5.76,0-11.115,2.24-15.104,6.336c-4.011,4.096-6.123,9.515-5.973,15.211
				C383.808,235.399,393.493,244.871,405.141,244.871z"/>
			<path d="M170.219,180.871c-70.592,0-128,57.408-128,128c0,70.592,57.408,128,128,128s128-57.408,128-128
				C298.219,238.279,240.811,180.871,170.219,180.871z M170.219,415.538c-58.816,0-106.667-47.851-106.667-106.667
				c0-58.816,47.851-106.667,106.667-106.667c58.816,0,106.667,47.851,106.667,106.667
				C276.885,367.687,229.035,415.538,170.219,415.538z"/>
			<path class="red" style="fill:red" d="M170.219,244.871c-35.285,0-64,28.715-64,64s28.715,64,64,64s64-28.715,64-64S205.504,244.871,170.219,244.871z
				 M170.219,351.538c-23.531,0-42.667-19.136-42.667-42.667c0-23.531,19.136-42.667,42.667-42.667
				c23.531,0,42.667,19.136,42.667,42.667C212.885,332.402,193.749,351.538,170.219,351.538z"/>
			<path d="M479.083,138.205H139.947l257.664-85.888c5.568-1.856,8.597-7.893,6.741-13.483c-1.877-5.589-7.893-8.597-13.504-6.741
				L72.491,138.205H32c-17.643,0-32,14.357-32,32v277.333c0,17.643,14.357,32,32,32h447.083c17.643,0,32-14.357,32-32V170.205
				C511.083,152.562,496.725,138.205,479.083,138.205z M489.771,447.538c0,5.888-4.8,10.667-10.667,10.667H32
				c-5.867,0-10.667-4.779-10.667-10.667V170.205c0-5.888,4.8-10.667,10.667-10.667h447.083c5.888,0,10.688,4.779,10.688,10.667
				V447.538z"/>
		</g>
	</g>
</g>
<g>
</g>
<g>
</g>
<g>
</g>
<g>
</g>
<g>
</g>
<g>
</g>
<g>
</g>
<g>
</g>
<g>
</g>
<g>
</g>
<g>
</g>
<g>
</g>
<g>
</g>
<g>
</g>
<g>
</g>
</svg>
