<?xml version="1.0" encoding="UTF-8" standalone="no"?>
<!-- Generator: Adobe Illustrator 15.0.0, SVG Export Plug-In . SVG Version: 6.00 Build 0)  -->

<svg
   xmlns:dc="http://purl.org/dc/elements/1.1/"
   xmlns:cc="http://creativecommons.org/ns#"
   xmlns:rdf="http://www.w3.org/1999/02/22-rdf-syntax-ns#"
   xmlns:svg="http://www.w3.org/2000/svg"
   xmlns="http://www.w3.org/2000/svg"
   xmlns:sodipodi="http://sodipodi.sourceforge.net/DTD/sodipodi-0.dtd"
   xmlns:inkscape="http://www.inkscape.org/namespaces/inkscape"
   version="1.1"
   id="Capa_1"
   style="fill:white"
   x="0px"
   y="0px"
   viewBox="0 123.305 595.281 595.28"
   xml:space="preserve"
   inkscape:version="0.91 r13725"
   sodipodi:docname="scrabble.svg"><metadata
     id="metadata23"><rdf:RDF><cc:Work
         rdf:about=""><dc:format>image/svg+xml</dc:format><dc:type
           rdf:resource="http://purl.org/dc/dcmitype/StillImage" /></cc:Work></rdf:RDF></metadata><defs
     id="defs21" /><sodipodi:namedview
     pagecolor="#ffffff"
     bordercolor="#666666"
     borderopacity="1"
     objecttolerance="10"
     gridtolerance="10"
     guidetolerance="10"
     inkscape:pageopacity="0"
     inkscape:pageshadow="2"
     inkscape:window-width="852"
     inkscape:window-height="480"
     id="namedview19"
     showgrid="false"
     inkscape:zoom="0.39645207"
     inkscape:cx="297.6405"
     inkscape:cy="297.64001"
     inkscape:window-x="0"
     inkscape:window-y="0"
     inkscape:window-maximized="0"
     inkscape:current-layer="Capa_1" /><g
     id="g3"><path
       d="M 391.84766 124.42969 C 334.25761 124.57272 276.65528 124.45343 219.06051 124.49558 C 212.73041 124.65861 206.34787 124.16801 200.05021 124.74367 C 194.31533 126.0174 190.45798 132.08005 191.35537 137.82181 C 191.55397 196.35581 191.75257 254.88982 191.95117 313.42383 C 190.45015 316.55233 186.43812 314.79012 183.75747 315.23605 C 126.09878 315.12488 68.433836 314.71954 10.779297 314.72656 C 4.410642 315.48948 0.15788621 322.14798 1.1586653 328.33003 C 1.2521378 391.458 1.046564 454.59353 1.2324219 517.7168 C 2.0215732 524.07903 8.7658391 528.34767 14.904238 527.30337 C 73.309206 527.09938 131.71417 526.8954 190.11914 526.69141 C 193.19431 528.20561 191.41618 532.17159 191.87651 534.82847 C 191.75321 592.51178 191.32899 650.20213 191.3457 707.88086 C 192.14463 714.23621 198.87471 718.54747 205.02729 717.50923 C 268.10865 717.41876 331.19546 717.58439 394.27344 717.42578 C 400.62746 716.7267 405.07207 710.02986 404.04802 703.87075 C 403.83214 645.40277 403.61627 586.93478 403.40039 528.4668 C 404.96603 525.35973 409.01015 527.2171 411.71283 526.72153 C 469.32541 526.83115 526.94434 527.24202 584.55273 527.22461 C 590.91595 526.44588 595.21114 519.70657 594.18087 513.5606 C 594.0741 450.48326 594.22584 387.39963 594.05078 324.32617 C 593.34698 317.99224 586.70409 313.58263 580.56256 314.60691 C 522.09639 314.81932 463.63023 315.03173 405.16406 315.24414 C 402.0462 313.73961 403.81103 309.73818 403.36147 307.06215 C 403.46225 249.40478 403.86025 191.74112 403.8418 134.08789 C 403.15478 128.39487 397.49312 124.03561 391.84766 124.42969 z M 217.36133 146.8418 C 246.57202 146.99615 275.81471 146.86395 305.03781 146.91038 C 330.15505 146.96755 355.3253 146.80096 380.40941 146.99798 C 382.66135 148.87201 381.09008 152.24406 381.5793 154.77143 C 381.75599 207.65556 381.93268 260.53969 382.10938 313.42383 C 380.69967 316.58592 376.70725 314.85615 374.06801 315.29886 C 321.05966 315.3008 268.05132 315.30274 215.04297 315.30469 C 211.82553 313.84485 213.65235 309.75589 213.18483 307.06256 C 213.36541 254.11592 213.54599 201.16929 213.72656 148.22266 C 214.28932 146.86669 216.10064 146.80974 217.36133 146.8418 z M 216.63281 336.33398 C 233.67219 336.54132 250.74999 336.35708 267.80475 336.42202 C 305.33767 336.4707 342.90495 336.33751 380.41641 336.49986 C 383.4376 338.10221 381.69021 342.01738 382.15792 344.70503 C 382.14174 397.65231 382.12556 450.59959 382.10938 503.54688 C 380.69518 506.70345 376.70711 504.97443 374.06801 505.41799 C 321.05966 505.41928 268.05132 505.42058 215.04297 505.42188 C 211.83125 503.96218 213.64172 499.87707 213.16187 497.1856 C 213.14828 444.23832 213.13469 391.29103 213.12109 338.34375 C 213.50879 336.86825 215.26783 336.31617 216.63281 336.33398 z M 406.7793 336.39844 C 421.87523 336.67266 437.01287 336.5273 452.1255 336.65131 C 491.5381 336.79488 530.95069 336.93846 570.36328 337.08203 C 572.78563 338.7735 571.12938 342.24718 571.62484 344.70543 C 571.61317 397.65258 571.60151 450.59973 571.58984 503.54688 C 569.88756 505.92846 566.45466 504.30069 564.00161 504.80148 C 511.05576 504.98874 458.10991 505.17601 405.16406 505.36328 C 402.00637 503.81318 403.83111 499.72348 403.33961 496.9981 C 403.32667 444.11332 403.31373 391.22853 403.30078 338.34375 C 403.68898 336.88868 405.43833 336.37318 406.7793 336.39844 z M 185.7793 336.75586 C 188.03445 338.55906 186.5603 341.84237 186.98086 344.33091 C 186.96706 397.4029 186.95326 450.47489 186.93945 503.54688 C 185.43142 506.65798 181.43291 504.89552 178.75747 505.34303 C 125.81097 505.15382 72.864469 504.9646 19.917969 504.77539 C 17.54452 503.06142 19.171613 499.64245 18.687363 497.1852 C 18.677643 444.23805 18.667923 391.2909 18.658203 338.34375 C 20.351006 335.91884 23.814297 337.55636 26.27964 337.0559 C 79.22614 336.86539 132.17264 336.67488 185.11914 336.48438 C 185.33919 336.57487 185.55924 336.66536 185.7793 336.75586 z M 216.75391 526.55664 C 234.43955 526.75949 252.16266 526.57917 269.86324 526.64289 C 306.709 526.69398 343.5931 526.55333 380.41491 526.72427 C 383.33322 528.42775 381.55783 532.31504 382.03361 535.01557 C 381.83556 587.8997 381.6375 640.78383 381.43945 693.66797 C 379.70259 695.98736 376.33822 694.39496 373.88051 694.8672 C 320.93466 694.86784 267.98882 694.86849 215.04297 694.86914 C 212.70714 693.14035 214.30102 689.76427 213.81362 687.3063 C 213.61663 634.3598 213.41964 581.4133 213.22266 528.4668 C 213.63524 527.01343 215.41541 526.54233 216.75391 526.55664 z "
       id="path5" /></g><g
     class="blue"
     style="fill:red"
     id="g7"><path
       d="M 83.326172 367.79102 C 68.162663 368.92786 54.993092 382.19261 54.292969 397.29297 C 53.857011 406.22516 54.31449 415.17626 54.137422 424.11711 C 54.217589 437.96427 53.873221 451.83683 54.339544 465.66782 C 55.640828 472.8903 65.073178 476.85812 71.097656 472.56641 C 75.349708 469.86406 76.666033 464.47899 76.082035 459.7415 C 76.180371 450.86343 75.794887 441.92662 76.274155 433.08613 C 78.109971 430.70014 81.597909 432.33178 84.150331 431.82856 C 101.96346 431.81105 119.81527 431.59906 137.60424 431.70308 C 140.48625 433.41095 138.71 437.26355 139.21065 439.9472 C 139.40372 448.73449 138.72368 457.58727 139.57617 466.33203 C 141.3605 473.18551 150.63811 476.43249 156.2168 471.94922 C 160.30336 469.01196 161.00567 463.64379 160.52933 458.99425 C 160.42791 431.56584 160.68537 404.12676 160.36133 376.70508 C 159.48602 370.80375 153.16613 366.95342 147.45904 367.90132 C 126.08219 367.89289 104.69979 367.61417 83.326172 367.79102 z M 138.0625 389.50977 C 140.19802 391.24105 138.78446 394.35665 139.21043 396.73739 C 139.06708 400.90141 139.64173 405.25132 138.76953 409.29297 C 136.26832 411.31548 132.85112 409.73575 129.94934 410.23525 C 112.44905 410.11876 94.903414 410.2083 77.431469 409.96308 C 74.796182 408.15506 76.629641 404.53052 75.975231 401.90874 C 75.434446 396.58488 78.559233 390.63033 84.197898 389.73789 C 89.139635 388.93225 94.06941 389.72286 99.048995 389.38764 C 111.89677 389.38968 124.78237 389.1992 137.60652 389.32143 C 137.75851 389.38421 137.91051 389.44699 138.0625 389.50977 z "
       id="path9" /><path
       d="M 339.11328 177.41016 C 317.29664 177.6043 295.46219 177.31664 273.64583 177.573 C 258.48299 178.70633 245.18201 191.9541 244.54194 207.25112 C 244.16896 215.59781 244.64836 223.95953 244.49963 232.31396 C 244.63413 246.68489 244.35559 261.08031 244.84978 275.4353 C 246.12327 282.44792 255.30984 286.27216 261.13672 282.05859 C 265.30039 279.37286 266.44167 274.06037 265.90634 269.42904 C 266.08551 260.56027 265.59857 251.59266 266.27351 242.78684 C 268.24676 240.35576 271.7928 242.05223 274.46204 241.53525 C 292.21201 241.58532 310.00175 241.44023 327.72688 241.61224 C 330.57761 243.32859 328.79758 247.15255 329.32642 249.82216 C 329.55552 258.62574 328.90785 267.47104 329.80078 276.20898 C 331.62812 283.07096 340.99782 286.23666 346.50781 281.63086 C 350.40312 278.72194 351.11804 273.57428 350.67337 269.05871 C 350.67873 241.55535 351.04533 214.04206 350.8125 186.54492 C 350.00964 181.09143 344.53715 177.01444 339.11328 177.41016 z M 276.44922 199.31445 C 293.53629 199.36787 310.66776 199.2155 327.7271 199.39744 C 330.36143 201.17534 328.66578 204.84809 329.1574 207.4628 C 328.97918 211.33081 329.68135 215.37976 328.7832 219.12891 C 326.34915 221.02289 323.06397 219.53466 320.25987 220.01953 C 302.69685 219.97107 285.09464 220.11646 267.55611 219.94685 C 264.81745 218.23858 266.5848 214.52877 266.10389 211.9204 C 265.8741 208.78562 266.32491 205.48985 268.53906 203.01758 C 270.4864 200.72579 273.42392 199.28106 276.44922 199.31445 z "
       id="path11" /><path
       d="M 338.00977 558.01367 C 316.55299 558.0907 295.08843 557.9009 273.63605 558.12758 C 258.58654 559.26771 245.35618 572.34315 244.6185 587.5303 C 244.17983 596.1918 244.60795 604.87436 244.40046 613.54523 C 244.47401 621.97789 243.82793 630.46005 244.92956 638.808 C 247.70116 653.34563 261.77345 665.07721 276.7799 664.45242 C 294.89921 664.60932 313.02207 664.45663 331.1431 664.53897 C 335.45765 664.23109 339.96591 665.07165 344.14453 663.78906 C 350.59253 661.32162 353.32049 652.38497 348.92383 646.9082 C 346.00459 642.89132 340.72229 641.91934 336.07197 642.45682 C 315.53101 642.35712 294.96838 642.70827 274.4411 642.27806 C 268.64045 641.28743 265.24333 634.9423 266.18878 629.40826 C 266.26509 615.48588 265.7921 601.53673 266.26662 587.63127 C 267.35486 581.81347 273.74762 578.47267 279.31245 579.42325 C 300.2445 579.31649 321.19526 579.65578 342.11552 579.25451 C 349.20221 578.11046 353.24119 568.92575 349.10352 562.97656 C 346.7812 559.35363 342.2274 557.47641 338.00977 558.01367 z "
       id="path13" /><path
       d="M 318.35547 368.04883 C 296.88314 368.28613 275.19027 367.96583 253.64258 368.21094 C 247.74097 369.00911 243.81082 375.28889 244.81096 380.99955 C 244.89334 409.04457 244.63859 437.10354 244.92823 465.13979 C 245.7932 470.99013 252.06976 474.7769 257.7187 473.80367 C 279.32601 473.68077 300.9452 474.03429 322.54492 473.58789 C 337.89784 472.0595 350.75057 457.82652 350.48398 442.35279 C 350.61659 434.92265 347.68457 427.56779 343.25299 421.83765 C 342.892 418.6198 346.31131 416.68299 347.18771 413.78702 C 353.91966 400.75321 349.89631 383.33619 338.06641 374.62891 C 332.43532 370.30841 325.29372 368.10589 318.35547 368.04883 z M 269.45508 388.9043 C 285.96768 389.11638 302.51851 388.92622 319.04647 388.99219 C 326.72977 388.76169 332.3155 398.32757 328.30273 404.91016 C 325.81494 409.74505 319.88165 411.17227 314.86609 410.52729 C 299.09763 410.48171 283.29564 410.61591 267.54813 410.45796 C 264.37451 408.82388 266.13479 404.72329 265.69593 401.92396 C 265.89093 398.02378 265.20801 393.9556 266.125 390.16797 C 266.95828 389.22566 268.2359 388.8853 269.45508 388.9043 z M 269.45703 431.2832 C 286.3436 431.52676 303.27293 431.23906 320.17188 431.41797 C 327.54394 432.10797 332.21519 441.48971 328.04688 447.71484 C 325.36022 452.3187 319.57579 453.47448 314.65946 452.8808 C 298.95989 452.83516 283.22672 452.96953 267.54816 452.81141 C 264.3963 451.17364 266.15456 447.09117 265.71031 444.3009 C 265.89965 440.4003 265.21356 436.33019 266.13086 432.54297 C 266.9641 431.6034 268.23912 431.26175 269.45703 431.2832 z "
       id="path15" /><path
       d="M 529.14453 367.49414 C 507.41847 367.82991 485.67032 367.58784 463.94141 367.91016 C 448.91921 369.01799 435.7038 382.04735 434.91406 397.18945 C 434.47119 405.86227 434.96451 414.55496 434.77575 423.23707 C 434.88628 431.6973 434.26194 440.23745 435.38912 448.63991 C 438.20086 463.07311 452.15496 474.61372 466.91602 474.02344 C 485.77225 474.25808 504.63265 474.17882 523.49057 474.31324 C 528.19577 474.03357 533.76456 475.32685 537.46293 471.5774 C 542.33252 467.44404 542.48814 459.08369 537.41547 455.05287 C 533.95606 451.83896 529.06565 452.19819 524.71427 452.34922 C 504.65114 452.3211 484.56774 452.74557 464.5172 452.38588 C 458.59821 451.38924 455.10316 444.92036 456.0925 439.27154 C 456.21855 425.35192 455.79383 411.40332 456.32255 397.50222 C 457.43051 391.66859 463.85387 388.33763 469.43354 389.30771 C 490.37814 389.27785 511.34064 389.70012 532.27406 389.36572 C 539.498 388.23977 543.68629 378.95944 539.59623 372.8352 C 537.44822 369.30626 533.21759 367.32723 529.14453 367.49414 z "
       id="path17" /></g></svg>