<?xml version="1.0" encoding="utf-8"?>
<!-- Generator: Adobe Illustrator 15.0.0, SVG Export Plug-In . SVG Version: 6.00 Build 0)  -->
<!DOCTYPE svg PUBLIC "-//W3C//DTD SVG 1.1 Basic//EN" "http://www.w3.org/Graphics/SVG/1.1/DTD/svg11-basic.dtd">
<svg version="1.1" baseProfile="basic"
	 style="fill:white"
	 xmlns="http://www.w3.org/2000/svg" xmlns:xlink="http://www.w3.org/1999/xlink" x="0px" y="0px"
	 viewBox="0 123.307 595.281 595.275" xml:space="preserve">
<g>
<path d="M590.162,394.928L297.636,123.302L5.121,394.928c-4.12,3.835-4.365,10.292-0.53,14.422
	c3.814,4.121,10.291,4.355,14.412,0.53l33.851-31.434v340.136h489.563V378.438l33.855,31.435c1.959,1.825,4.453,2.724,6.941,2.724
	c2.744,0,5.467-1.092,7.467-3.254C594.527,405.22,594.283,398.763,590.162,394.928z M522.021,698.185H379.365
	c-1.967,0.383-3.99,0.592-6.059,0.592c-0.27,0-0.541-0.015-0.813-0.021c-1.051,0.111-2.109,0.189-3.188,0.189
	c-2.516,0-4.967-0.312-7.328-0.873c-1.063-0.051-2.111-0.154-3.146-0.31v0.423H237.702c-0.629,0.215-1.267,0.416-1.922,0.598
	c-6.412,1.764-13.397,1.301-19.739-0.957v0.359H73.252V359.498l224.384-208.361l224.385,208.361V698.185z"/>
<path class="red" style="fill:red" d="M229.043,375.007v48.015c-18.252,2.706-32.317,18.432-32.317,37.426v123.53c0,20.887,16.995,37.882,37.881,37.882h126.066
	c20.887,0,37.881-16.995,37.881-37.882v-123.53c0-20.887-16.994-37.879-37.881-37.879h-95.931V375.01
	c0-18.141,14.759-32.896,32.896-32.896c18.138,0,32.896,14.759,32.896,32.896v19.858c0,9.858,7.992,17.85,17.85,17.85
	c9.859,0,17.85-7.991,17.85-17.85V375.01c0-37.823-30.771-68.596-68.595-68.596C259.816,306.414,229.043,337.183,229.043,375.007
	L229.043,375.007z M362.855,460.447v123.53c0,1.204-0.979,2.183-2.182,2.183H234.607c-1.204,0-2.183-0.979-2.183-2.183v-123.53
	c0-1.204,0.979-2.181,2.183-2.181h126.066C361.878,458.264,362.855,459.243,362.855,460.447z"/>
</g>
</svg>
