<?xml version="1.0" encoding="utf-8"?>
<!-- Generator: Adobe Illustrator 15.0.0, SVG Export Plug-In . SVG Version: 6.00 Build 0)  -->
<!DOCTYPE svg PUBLIC "-//W3C//DTD SVG 1.1//EN" "http://www.w3.org/Graphics/SVG/1.1/DTD/svg11.dtd">
<svg version="1.1" id="Layer_1" xmlns="http://www.w3.org/2000/svg" xmlns:xlink="http://www.w3.org/1999/xlink" x="0px" y="0px" style="fill:#1C2833"
	  viewBox="0 123.307 595.281 595.275" enable-background="new 0 123.307 595.281 595.275"
	 xml:space="preserve">
<g>
	<g>
		<path class="red" style="fill:red" d="M470.863,523.347c-31.092,0-58.816,14.63-76.705,37.35l-0.038-0.022c-2.883,5.07-5.782,10.132-8.698,15.183
			c-1.74,3.016-3.486,6.028-5.237,9.037c-4.459,11.169-6.938,23.333-6.938,36.073c0,53.828,43.791,97.618,97.617,97.618
			c53.828,0,97.619-43.792,97.619-97.618S524.693,523.347,470.863,523.347z M470.863,690.904c-38.563,0-69.939-31.375-69.939-69.938
			c0-38.564,31.375-69.939,69.939-69.939s69.939,31.375,69.939,69.939S509.427,690.904,470.863,690.904z"/>
		<path d="M384.859,575.533c2.916-5.052,5.85-10.093,8.8-15.124L215.001,457.262c4.521-11.233,7.033-23.483,7.033-36.316
			s-2.514-25.082-7.033-36.317l179.156-103.434c17.891,22.718,45.613,37.349,76.705,37.349c53.828,0,97.619-43.793,97.619-97.619
			c0-53.827-43.789-97.619-97.619-97.619c-53.828,0-97.617,43.791-97.617,97.617c0,12.833,2.514,25.085,7.035,36.321
			L201.126,360.678c-17.89-22.721-45.614-37.353-76.709-37.353c-53.828,0-97.619,43.792-97.619,97.618
			c0,53.827,43.792,97.619,97.619,97.619c31.095,0,58.82-14.632,76.709-37.353l178.656,103.147
			C381.47,581.414,383.162,578.472,384.859,575.533z M470.863,150.985c38.564,0,69.939,31.375,69.939,69.938
			c0,38.564-31.373,69.939-69.939,69.939c-38.563,0-69.939-31.375-69.939-69.939C400.925,182.358,432.3,150.985,470.863,150.985z
			 M124.417,490.885c-38.564,0-69.939-31.376-69.939-69.94c0-38.563,31.374-69.939,69.939-69.939
			c38.564,0,69.939,31.376,69.939,69.939C194.356,459.509,162.981,490.885,124.417,490.885z"/>
	</g>
</g>
<g>
	<g>
		<path d="M124.417,379.794c-22.69,0-41.151,18.459-41.151,41.15c0,7.643,6.196,13.841,13.84,13.841s13.84-6.198,13.84-13.841
			c0-7.428,6.042-13.47,13.471-13.47c7.643,0,13.84-6.198,13.84-13.841C138.257,385.99,132.06,379.794,124.417,379.794z"/>
	</g>
</g>
</svg>
