<?xml version="1.0" encoding="iso-8859-1"?>
<!-- Generator: Adobe Illustrator 19.0.0, SVG Export Plug-In . SVG Version: 6.00 Build 0)  -->
<svg version="1.1" id="Capa_1" xmlns="http://www.w3.org/2000/svg" xmlns:xlink="http://www.w3.org/1999/xlink" x="0px" y="0px"
	 viewBox="0 0 470 470" style="enable-background:new 0 0 470 470;fill:#1C2833" xml:space="preserve">
<g>
	<g style="fill:none">
		<path  d="M356.765,455c16.13,0,29.253-13.123,29.253-29.253V44.253c0-16.13-13.123-29.253-29.253-29.253
			c-4.143,0-7.5-3.358-7.5-7.5l-20.881,0c11.832,7.951,19.634,21.458,19.634,36.754v381.493c0,15.296-7.802,28.802-19.634,36.753
			h20.881C349.265,458.358,352.622,455,356.765,455z"/>
		<path  d="M409.765,455c16.13,0,29.253-13.123,29.253-29.253V44.253c0-16.13-13.123-29.253-29.253-29.253
			c-4.143,0-7.5-3.358-7.5-7.5l-20.881,0c11.832,7.951,19.634,21.458,19.634,36.754v381.493c0,15.296-7.802,28.802-19.634,36.753
			h20.881C402.265,458.358,405.622,455,409.765,455z"/>
		<path  d="M333.018,44.253c0-16.13-13.123-29.253-29.253-29.253H60.235c-16.13,0-29.253,13.123-29.253,29.253
			v381.493c0,16.13,13.123,29.253,29.253,29.253h243.529c16.13,0,29.253-13.123,29.253-29.253V44.253z M83.971,105.878L60.355,74.665
			c-2.861-3.782-4.373-8.291-4.373-13.04C55.982,49.701,65.684,40,77.607,40c4.488,0,8.779,1.396,12.345,3.876
			C93.518,41.396,97.81,40,102.297,40c11.925,0,21.626,9.701,21.626,21.625c0,4.75-1.513,9.259-4.375,13.041l-23.614,31.212
			c-1.418,1.874-3.632,2.975-5.981,2.975S85.389,107.752,83.971,105.878z M182,333.315c-2.35,0-4.563-1.101-5.981-2.975
			L99.824,229.63c-7.019-9.277-10.729-20.341-10.729-31.996c0-29.265,23.809-53.074,53.074-53.074
			c15.402,0,29.866,6.703,39.83,18.016c9.964-11.313,24.428-18.016,39.83-18.016c29.266,0,53.074,23.809,53.074,53.074
			c0,11.655-3.711,22.72-10.73,31.996L187.981,330.34C186.563,332.214,184.35,333.315,182,333.315z M286.393,430
			c-4.488,0-8.779-1.396-12.345-3.876c-3.566,2.48-7.858,3.876-12.346,3.876c-11.924,0-21.625-9.701-21.625-21.625
			c0-4.748,1.512-9.257,4.373-13.039l23.616-31.214c1.418-1.874,3.632-2.975,5.981-2.975s4.563,1.101,5.981,2.975l23.615,31.214
			c2.861,3.782,4.373,8.291,4.373,13.039C308.018,420.299,298.316,430,286.393,430z"/>
		<path  d="M221.83,159.561c-13.8,0-26.551,7.506-33.277,19.589c-1.323,2.378-3.831,3.852-6.553,3.852
			s-5.229-1.474-6.553-3.852c-6.727-12.083-19.478-19.589-33.277-19.589c-20.994,0-38.074,17.08-38.074,38.074
			c0,8.361,2.659,16.295,7.691,22.945L182,313.384l70.212-92.804c5.032-6.65,7.692-14.585,7.692-22.946
			C259.904,176.641,242.824,159.561,221.83,159.561z"/>
		<path  d="M274.048,381.077l-17.635,23.309c-0.609,0.805-1.336,2.151-1.336,3.989
			c0,3.653,2.972,6.625,6.625,6.625c2.4,0,4.62-1.308,5.793-3.414c1.323-2.377,3.832-3.852,6.553-3.852
			c2.723,0,5.23,1.475,6.554,3.853c1.171,2.105,3.391,3.413,5.791,3.413c3.653,0,6.625-2.972,6.625-6.625
			c0-1.838-0.727-3.184-1.336-3.99L274.048,381.077z"/>
		<path  d="M89.952,88.923l17.634-23.308c0.61-0.807,1.337-2.152,1.337-3.99c0-3.653-2.973-6.625-6.626-6.625
			c-2.4,0-4.62,1.308-5.792,3.414c-1.323,2.377-3.832,3.852-6.553,3.852c-2.723,0-5.23-1.475-6.554-3.853
			C82.228,56.308,80.008,55,77.607,55c-3.653,0-6.625,2.972-6.625,6.625c0,1.838,0.727,3.185,1.336,3.99L89.952,88.923z"/>
	</g>
	
		<path  d="M409.765,0c-4.143,0-7.5,3.358-7.5,7.5c0,4.142,3.357,7.5,7.5,7.5
			c16.13,0,29.253,13.123,29.253,29.253v381.493c0,16.13-13.123,29.253-29.253,29.253c-4.143,0-7.5,3.358-7.5,7.5
			c0,4.142,3.357,7.5,7.5,7.5c24.401,0,44.253-19.852,44.253-44.253V44.253C454.018,19.852,434.166,0,409.765,0z"/>
		<path  d="M401.018,425.747V44.253c0-15.296-7.802-28.802-19.634-36.754C374.34,2.767,365.87,0,356.765,0
			c-4.143,0-7.5,3.358-7.5,7.5c0,4.142,3.357,7.5,7.5,7.5c16.13,0,29.253,13.123,29.253,29.253v381.493
			c0,16.13-13.123,29.253-29.253,29.253c-4.143,0-7.5,3.358-7.5,7.5c0,4.142,3.357,7.5,7.5,7.5c9.106,0,17.576-2.767,24.619-7.5
			C393.216,454.548,401.018,441.042,401.018,425.747z"/>
		
		<path  d="M348.018,425.747V44.253c0-15.296-7.802-28.802-19.634-36.754C321.34,2.767,312.87,0,303.765,0
			H60.235C35.834,0,15.982,19.852,15.982,44.253v381.493c0,24.401,19.852,44.253,44.253,44.253h243.529
			c9.106,0,17.576-2.767,24.619-7.5C340.216,454.548,348.018,441.042,348.018,425.747z M303.765,455H60.235
			c-16.13,0-29.253-13.123-29.253-29.253V44.253C30.982,28.123,44.105,15,60.235,15h243.529c16.13,0,29.253,13.123,29.253,29.253
			v381.493C333.018,441.877,319.895,455,303.765,455z"/>
	<g class="red" style="fill:red">
		<path  d="M274.904,197.635c0-29.265-23.809-53.074-53.074-53.074c-15.402,0-29.866,6.703-39.83,18.016
			c-9.964-11.313-24.428-18.016-39.83-18.016c-29.266,0-53.074,23.809-53.074,53.074c0,11.655,3.71,22.719,10.729,31.996
			l76.194,100.709c1.418,1.874,3.632,2.975,5.981,2.975s4.563-1.101,5.981-2.975l76.192-100.709
			C271.193,220.354,274.904,209.29,274.904,197.635z M182,313.384l-70.213-92.804c-5.032-6.65-7.691-14.584-7.691-22.945
			c0-20.994,17.08-38.074,38.074-38.074c13.8,0,26.551,7.506,33.277,19.589c1.323,2.378,3.831,3.852,6.553,3.852
			s5.229-1.474,6.553-3.852c6.727-12.083,19.478-19.589,33.277-19.589c20.994,0,38.074,17.08,38.074,38.074
			c0,8.361-2.66,16.295-7.692,22.946L182,313.384z"/>
		
		<path  d="M280.029,364.122c-1.418-1.874-3.632-2.975-5.981-2.975s-4.563,1.101-5.981,2.975l-23.616,31.214
			c-2.861,3.782-4.373,8.291-4.373,13.039c0,11.924,9.701,21.625,21.625,21.625c4.487,0,8.779-1.396,12.346-3.876
			c3.565,2.48,7.856,3.876,12.345,3.876c11.924,0,21.625-9.701,21.625-21.625c0-4.748-1.512-9.257-4.373-13.039L280.029,364.122z
			 M286.393,415c-2.4,0-4.62-1.308-5.791-3.413c-1.323-2.378-3.831-3.853-6.553-3.853s-5.23,1.474-6.554,3.852
			c-1.173,2.106-3.393,3.414-5.793,3.414c-3.653,0-6.625-2.972-6.625-6.625c0-1.838,0.727-3.184,1.336-3.989l17.635-23.309
			l17.634,23.308c0.609,0.806,1.336,2.152,1.336,3.99C293.018,412.028,290.046,415,286.393,415z"/>

		<path  d="M95.934,105.878l23.614-31.212c2.862-3.782,4.375-8.292,4.375-13.041
			c0-11.924-9.701-21.625-21.626-21.625c-4.487,0-8.779,1.396-12.345,3.876C86.387,41.396,82.096,40,77.607,40
			c-11.924,0-21.625,9.701-21.625,21.625c0,4.749,1.512,9.257,4.373,13.04l23.615,31.214c1.418,1.874,3.632,2.975,5.981,2.975
			S94.516,107.752,95.934,105.878z M77.607,55c2.4,0,4.62,1.308,5.791,3.412c1.323,2.378,3.831,3.853,6.553,3.853
			s5.23-1.474,6.554-3.852C97.677,56.308,99.896,55,102.297,55c3.653,0,6.626,2.972,6.626,6.625c0,1.838-0.727,3.183-1.337,3.99
			L89.952,88.923L72.318,65.615c-0.609-0.806-1.336-2.152-1.336-3.99C70.982,57.972,73.954,55,77.607,55z"/>
	</g>
</g>
<g>
</g>
<g>
</g>
<g>
</g>
<g>
</g>
<g>
</g>
<g>
</g>
<g>
</g>
<g>
</g>
<g>
</g>
<g>
</g>
<g>
</g>
<g>
</g>
<g>
</g>
<g>
</g>
<g>
</g>
</svg>
