<?xml version="1.0" encoding="utf-8"?>
<!-- Generator: Adobe Illustrator 15.0.0, SVG Export Plug-In . SVG Version: 6.00 Build 0)  -->
<!DOCTYPE svg PUBLIC "-//W3C//DTD SVG 1.1//EN" "http://www.w3.org/Graphics/SVG/1.1/DTD/svg11.dtd">
<svg version="1.1" id="Capa_1" xmlns="http://www.w3.org/2000/svg" xmlns:xlink="http://www.w3.org/1999/xlink" x="0px" y="0px" style="fill:white"
	  viewBox="0 123.307 595.281 595.275" enable-background="new 0 123.307 595.281 595.275"
	 xml:space="preserve">
<path d="M587.527,691.661h-44.416c-4.283,0-7.756-3.472-7.756-7.756v-57.208H63.607v57.208
	c0,4.284-3.471,7.756-7.755,7.756H7.758c-4.285,0-7.756-3.472-7.756-7.756V325.982c0-4.284,3.471-7.756,7.756-7.756h48.094
	c4.284,0,7.755,3.472,7.755,7.756v106.37c5.743-3.946,12.686-6.261,20.165-6.261h96.154c19.671,0,35.676,16.005,35.676,35.677
	v10.349c0,7.477-2.312,14.423-6.261,20.165h326.011v-70.688c0-4.284,3.471-7.756,7.756-7.756h44.414
	c4.285,0,7.756,3.472,7.756,7.756v262.315C595.283,688.189,591.81,691.661,587.527,691.661z M550.865,676.15h28.902V429.349h-28.902
	V676.15z M15.513,676.15h32.583V333.738H15.513V676.15z M63.607,611.185h471.746v-27.39H63.607V611.185z M63.607,568.284h471.746
	v-60.487H63.607V568.284z M83.772,492.285h96.154c11.119,0,20.165-9.046,20.165-20.165v-10.349c0-11.119-9.046-20.165-20.165-20.165
	H83.772c-11.119,0-20.165,9.046-20.165,20.165v10.349C63.607,483.239,72.654,492.285,83.772,492.285z"/>
<path class="yellow" style="fill:red" d="M486.75,306.626c-2.957-2.319-7.028-2.612-10.289-0.738c-15.46,8.886-31.801,13.393-48.568,13.393
	c-53.876,0-97.706-43.832-97.706-97.71c0-16.841,4.513-33.159,13.414-48.501c1.89-3.257,1.609-7.336-0.709-10.306
	c-2.317-2.969-6.207-4.231-9.826-3.187c-26.026,7.503-49.451,23.421-65.96,44.82c-17.133,22.211-26.188,48.812-26.188,76.928
	c0,70.15,57.068,127.223,127.217,127.223c28.116,0,54.723-9.053,76.945-26.181c21.415-16.504,37.34-39.916,44.843-65.924
	C490.965,312.829,489.71,308.946,486.75,306.626z M368.134,390.097c-59.976,0-108.768-48.795-108.768-108.772
	c0-40.462,23.153-77.283,58.343-95.789c-3.971,11.666-5.972,23.718-5.972,36.034c0,64.051,52.107,116.159,116.155,116.159
	c12.299,0,24.372-2.01,36.095-5.993C445.485,366.932,408.63,390.097,368.134,390.097z"/>
</svg>
