<?xml version="1.0" encoding="UTF-8" standalone="no"?>
<!-- Generator: Adobe Illustrator 19.0.0, SVG Export Plug-In . SVG Version: 6.00 Build 0)  -->

<svg
   xmlns:dc="http://purl.org/dc/elements/1.1/"
   xmlns:cc="http://creativecommons.org/ns#"
   xmlns:rdf="http://www.w3.org/1999/02/22-rdf-syntax-ns#"
   xmlns:svg="http://www.w3.org/2000/svg"
   xmlns="http://www.w3.org/2000/svg"
   xmlns:sodipodi="http://sodipodi.sourceforge.net/DTD/sodipodi-0.dtd"
   xmlns:inkscape="http://www.inkscape.org/namespaces/inkscape"
   version="1.1"
   id="Layer_1"
   x="0px"
   y="0px"
   viewBox="0 0 512 512"
   style="enable-background:new 0 0 512 512;fill:white"
   xml:space="preserve"
   inkscape:version="0.91 r13725"
   sodipodi:docname="speaker.svg"><metadata
     id="metadata55"><rdf:RDF><cc:Work
         rdf:about=""><dc:format>image/svg+xml</dc:format><dc:type
           rdf:resource="http://purl.org/dc/dcmitype/StillImage" /></cc:Work></rdf:RDF></metadata><defs
     id="defs53" /><sodipodi:namedview
     pagecolor="#ffffff"
     bordercolor="#666666"
     borderopacity="1"
     objecttolerance="10"
     gridtolerance="10"
     guidetolerance="10"
     inkscape:pageopacity="0"
     inkscape:pageshadow="2"
     inkscape:window-width="1600"
     inkscape:window-height="838"
     id="namedview51"
     showgrid="false"
     inkscape:zoom="0.921875"
     inkscape:cx="44.213172"
     inkscape:cy="170.23574"
     inkscape:window-x="-8"
     inkscape:window-y="-8"
     inkscape:window-maximized="1"
     inkscape:current-layer="g5" /><g
     id="g3"><g
       id="g5">
       <path
         d="M 288.00195 36.855469 C 276.95862 37.07709 265.8759 36.452418 254.86357 37.471738 C 251.85817 37.87887 249.60618 40.176896 247.2793 41.921875 C 242.87836 45.756124 238.94665 50.106979 234.37621 53.749878 C 193.27069 91.143033 152.20077 128.57711 110.74805 165.58594 C 104.99506 167.93527 98.704233 166.27001 92.71136 166.92986 C 74.613561 167.17371 56.460157 166.32413 38.413491 168.03446 C 20.383321 171.74659 6.1064132 189.08788 6.3777629 207.57053 C 5.9229103 222.90136 6.4340401 238.24172 6.0233519 253.57366 C 5.8807074 272.92151 5.3481018 292.28542 6.1341905 311.62357 C 8.9357624 330.2914 26.151571 345.76844 45.086959 346.14791 C 57.960283 346.65886 70.844848 346.10522 83.722573 346.33633 C 91.969295 346.34924 100.22821 346.24743 108.46094 346.78125 C 111.53764 348.3494 113.91498 350.94406 116.58562 353.08223 C 125.2512 360.74386 133.65924 368.68463 142.35741 376.30689 C 178.43874 408.74685 214.51359 441.19189 250.69922 473.51562 C 256.05143 476.39082 262.26016 475.25449 268.04763 475.2832 C 279.86581 475.09631 292.11131 476.33936 303.45117 472.57031 C 317.06002 467.72181 327.57177 455.47168 330.60547 441.35938 C 331.88842 435.48445 331.32369 429.25935 331.45304 423.18366 C 331.3638 400.47176 331.04049 377.76149 330.97526 355.04939 C 330.38911 262.86877 330.77692 170.68451 331.40092 78.505716 C 331.19846 67.545294 326.75748 56.604213 318.71259 49.060721 C 310.62099 41.172412 299.34901 36.473271 288.00195 36.855469 z M 273.64258 58.583984 C 282.03212 59.066004 290.88855 57.516762 298.81445 61.070312 C 307.52104 65.554909 312.00016 76.069302 310.56809 85.557799 C 311.64742 201.52319 311.97912 317.50622 310.0625 433.46484 C 309.9378 438.20949 307.99178 442.82789 304.6558 446.20787 C 299.57842 451.60764 291.80142 454.16525 284.49539 453.09067 C 279.62989 452.80126 274.5273 453.68833 269.86523 451.94922 C 267.14512 449.18953 268.10666 445.06935 268.0337 441.60236 C 267.57276 385.37947 267.52941 329.15412 267.47342 272.92967 C 267.43666 202.8821 267.50813 132.83449 267.67383 62.787109 C 267.88795 59.876468 271.05114 58.454698 273.64258 58.583984 z M 242.27148 76.857422 C 245.9758 77.568859 247.55374 81.948585 246.8457 85.310547 C 247.496 198.90646 247.6649 312.51287 246.06582 426.10158 C 245.89668 428.16587 246.34069 430.40141 245.50391 432.33594 C 243.4572 435.21735 238.7888 434.42651 236.94877 431.7151 C 199.47436 398.67357 161.92532 365.71011 124.44141 332.68359 C 121.74982 326.49722 123.45286 319.64876 122.80557 313.15784 C 122.44234 269.56131 122.07044 225.9637 122.17969 182.36523 C 124.33932 176.48089 130.24358 173.47508 134.45378 169.2622 C 169.41398 138.5931 204.28429 107.81916 239.57812 77.533203 C 240.37386 77.030216 241.33005 76.771043 242.27148 76.857422 z M 48.451172 184.875 C 65.542804 185.05585 82.641767 184.77547 99.726562 185.40625 C 103.58153 187.15084 104.6129 191.94497 104.02247 195.77655 C 103.77847 237.76159 103.67634 279.75051 102.99609 321.73047 C 101.87002 325.44737 97.416824 326.75559 93.934411 326.11583 C 76.076332 325.68652 58.140909 326.94419 40.343612 325.06493 C 29.666216 321.81173 22.884179 309.95827 24.591539 299.07697 C 24.237846 267.27552 23.639037 235.46803 24.267578 203.66602 C 26.21105 192.59199 37.273541 184.0967 48.451172 184.875 z "
         id="path7"
          /></g></g><g
     id="g9"><g
       id="g11"><path
         class="blue"
         style="fill:red"
         d="M 425.50391 75.3125 C 418.41761 75.8662 413.37467 84.88011 417.24805 91.039062 C 421.00795 97.048472 427.02722 101.13881 431.19112 106.82856 C 470.0164 151.43663 490.24307 211.6955 486.13226 270.69607 C 483.0408 320.05283 463.68202 368.44447 430.93604 405.61742 C 426.44023 410.87159 421.54014 415.78904 417.15966 421.13187 C 414.37256 426.63739 417.41511 434.17862 423.3416 436.0333 C 428.43786 437.59624 434.0528 434.97963 436.94928 430.68884 C 480.18128 386.43545 506.04801 325.73564 507.58996 263.87153 C 509.22149 211.93299 494.64741 159.39851 465.39151 116.3464 C 455.73684 101.95655 444.83631 88.253225 431.95477 76.623125 C 429.99918 75.543928 427.71566 75.182723 425.50391 75.3125 z "
         id="path13" /></g></g><g
     id="g15"><g
       id="g17"><path
         class="blue"
         style="fill:red"
         d="M 380.19531 121.39062 C 373.52409 121.93075 368.87904 130.53504 372.65625 136.23828 C 376.61259 142.25672 382.62876 146.54578 386.66853 152.50042 C 417.58542 190.55041 430.16317 242.91798 419.44192 290.80928 C 412.8162 321.87707 396.84601 350.91551 374.4375 373.31836 C 371.67133 376.12553 370.30426 380.55109 372.05975 384.25224 C 373.71512 388.59542 378.65712 391.65445 383.27797 390.39353 C 387.35417 389.58254 390.29632 386.37801 392.78241 383.28197 C 428.98724 344.95153 447.60386 290.69086 442.14509 238.19373 C 438.21736 196.75857 420.12057 156.63093 390.93807 126.84911 C 388.3167 124.43552 385.55738 121.33584 381.6904 121.39468 C 381.19256 121.36276 380.69366 121.39224 380.19531 121.39062 z "
         id="path19" /></g></g><g
     id="g21" /><g
     id="g23" /><g
     id="g25" /><g
     id="g27" /><g
     id="g29" /><g
     id="g31" /><g
     id="g33" /><g
     id="g35" /><g
     id="g37" /><g
     id="g39" /><g
     id="g41" /><g
     id="g43" /><g
     id="g45" /><g
     id="g47" /><g
     id="g49" /><g
     inkscape:groupmode="layer"
     id="layer1"
     inkscape:label="Layer 1" /></svg>