<?xml version="1.0" encoding="utf-8"?>
<!-- Generator: Adobe Illustrator 15.0.0, SVG Export Plug-In . SVG Version: 6.00 Build 0)  -->
<!DOCTYPE svg PUBLIC "-//W3C//DTD SVG 1.1//EN" "http://www.w3.org/Graphics/SVG/1.1/DTD/svg11.dtd">
<svg version="1.1" id="Layer_1" xmlns="http://www.w3.org/2000/svg" xmlns:xlink="http://www.w3.org/1999/xlink" x="0px" y="0px" style="fill:#1C2833"
	 viewBox="0 0 595 595" enable-background="new 0 0 595 595"
	 xml:space="preserve">
<g>
	<g>
		<path d="M579.3,436.282c-1.492-2.823-4.146-4.85-7.262-5.542c-0.787-0.174-63.906-14.096-144.355-25.212
			c-0.113-0.366-0.191-0.736-0.346-1.095c-35.471-82.767-47.217-82.767-53.527-82.767c-7.607,0-45.402,7.768-76.171,14.373v-79.663
			c0.46,0,0.919-0.036,1.372-0.095c10.545,2.81,21.248,4.195,31.861,4.195c32.172,0,63.518-12.623,87.051-36.156
			c32.621-32.622,44.275-80.244,30.414-124.282c-1.066-3.392-3.721-6.047-7.113-7.113c-44.033-13.857-91.656-2.207-124.281,30.414
			c-5.078,5.078-9.584,10.555-13.629,16.289c-4.057-32.202-18.619-62.749-42.505-86.636c-39.421-39.419-96.963-53.498-150.18-36.748
			c-3.39,1.066-6.044,3.722-7.112,7.112c-16.75,53.216-2.667,110.76,36.751,150.182c28.441,28.44,66.311,43.688,105.189,43.688
			c10.121,0,20.309-1.061,30.419-3.166v126.703c-4.216,0.926-7.959,1.752-11.017,2.431c-22.76-4.392-60.225-9.2-72.849,3.421
			l-19.945,19.948l-30.208,10.068c-36.685,12.23-49.257,66.438-50.633,72.899c-12.46-7.537-24.757-16.498-36.58-27.138
			c-1.998-1.798-4.59-2.793-7.279-2.793c-24.095,0-32.646,11.724-32.646,21.762c0,3.134,0,8.968,22.872,35.5
			c8.836,10.249,27.464,30.758,52.953,52.956c39.161,34.108,97.44,74.767,152.687,74.767c63.656,0,109.166-13.391,142.396-23.169
			c17.994-5.294,32.209-9.476,42.59-9.476c33.164,0,97.021-10.579,99.723-11.028c3.75-0.626,6.9-3.163,8.314-6.693l43.525-108.815
			C580.966,442.44,580.791,439.104,579.3,436.282z M332.333,138.731c25.502-25.502,62.139-35.443,96.822-26.621
			c8.822,34.682-1.119,71.32-26.621,96.822c-23.332,23.333-55.98,33.591-87.93,28.417c8.834-14.636,21.256-31.442,31.428-36.528
			c5.373-2.687,7.553-9.223,4.865-14.6c-2.688-5.372-9.227-7.553-14.6-4.865c-12.713,6.356-24.703,20.967-33.6,34.145
			C301.283,187.245,311.716,159.348,332.333,138.731z M226.316,134.853c28.543,19.029,38.847,58.257,39.008,58.89
			c0.007,0.029,0.021,0.055,0.029,0.084c-39.875,6.299-80.574-6.56-109.694-35.679c-32.307-32.306-44.684-78.871-32.983-122.746
			c43.872-11.693,90.441,0.676,122.747,32.983c28.197,28.195,41.202,67.255,36.277,105.907c-6.292-15.95-19.48-41.66-43.312-57.547
			c-5.005-3.337-11.759-1.982-15.09,3.019C219.963,124.762,221.314,131.52,226.316,134.853z M112.444,454.38
			c2.683-13.412,14.431-49.812,36.297-57.101l32.644-10.881c1.603-0.535,3.058-1.436,4.253-2.629l21.59-21.59
			c5.346-3.29,31.725-1.97,55.636,2.801c1.485,0.296,3.017,0.28,4.493-0.047c43.256-9.612,91.286-19.604,103.963-21.266
			c6.299,6.944,19.848,33.118,31.283,58.564c-12.625-1.567-25.537-3.036-38.592-4.342c-108.098-10.813-170.316-1.482-184.919,27.724
			c-2.928,5.856-2.737,12.24,0.524,17.517c9.007,14.575,40.995,19.995,118.022,19.995c10.97,0,16.058,2.889,17.083,5.361
			c0.91,2.194-0.236,5.716-2.674,8.354c-5.563,3.311-42.243,13.896-95.075,10.572c-29.779-1.878-68.567-8.658-107.255-27.767
			C111.052,458.219,112.032,456.432,112.444,454.38z M518.337,540.413c-16.77,2.639-64.422,9.765-90.119,9.765
			c-13.518,0-29.057,4.572-48.732,10.36c-31.961,9.405-75.732,22.284-136.253,22.284c-47.053,0-98.935-35.771-134.173-65.78
			c-37.522-31.953-63.067-62.992-70.734-74.438c1.478-0.413,3.327-0.766,5.204-0.988c59.22,51.467,128.184,65.288,176.021,67.741
			c49.411,2.537,97.537-6.767,107.547-16.774c8.949-8.951,12.059-21.981,7.732-32.425c-2.908-7.021-11.605-18.796-37.19-18.796
			c-67.789,0-90.24-4.708-97.418-8.399c6.885-7.802,36.593-25.915,161.624-13.418c84.473,8.448,163.164,23.672,192.922,29.79
			L518.337,540.413z"/>
	</g>
	<g>
		<g>
			<path class="green" style="fill:red" stroke-width="10" d="M448.25,100.039c-1.066-3.392-3.721-6.047-7.113-7.113c-44.033-13.857-91.656-2.207-124.281,30.414
				c-5.078,5.078-9.584,10.555-13.629,16.289c-4.057-32.202-18.619-62.749-42.506-86.636
				c-39.421-39.419-96.963-53.498-150.18-36.748c-3.39,1.066-6.044,3.722-7.112,7.112c-16.75,53.216-2.667,110.76,36.751,150.182
				c28.441,28.44,66.311,43.688,105.189,43.688c10.121,0,20.309-1.061,30.419-3.166v122.643c0.44,0.534,0.843,1.097,1.225,1.676
				c6.944-0.403,13.663-2.722,20.537-3.728v-78.275c0.46,0,0.919-0.036,1.373-0.095c10.545,2.81,21.248,4.195,31.861,4.195
				c32.172,0,63.518-12.623,87.051-36.156C450.457,191.699,462.111,144.077,448.25,100.039z M281.61,174.293
				c-6.292-15.95-19.48-41.66-43.312-57.547c-5.005-3.337-11.759-1.982-15.09,3.019c-3.333,4.998-1.982,11.756,3.02,15.089
				c28.543,19.029,38.847,58.257,39.008,58.89c0.007,0.029,0.021,0.055,0.029,0.084c-39.875,6.299-80.574-6.56-109.694-35.679
				c-32.307-32.306-44.684-78.871-32.983-122.746c43.872-11.693,90.441,0.676,122.747,32.983
				C273.53,96.581,286.536,135.64,281.61,174.293z M402.447,208.932c-23.332,23.333-55.98,33.591-87.93,28.417
				c8.834-14.636,21.256-31.442,31.428-36.528c5.373-2.687,7.553-9.223,4.865-14.6c-2.688-5.372-9.227-7.553-14.6-4.865
				c-12.713,6.356-24.703,20.967-33.6,34.145c-1.416-28.256,9.018-56.152,29.635-76.77c25.502-25.502,62.139-35.443,96.822-26.621
				C437.89,146.792,427.949,183.43,402.447,208.932z"/>
		</g>
	</g>
</g>
</svg>
