<?xml version="1.0" encoding="utf-8"?>
<!-- Generator: Adobe Illustrator 15.0.0, SVG Export Plug-In . SVG Version: 6.00 Build 0)  -->
<!DOCTYPE svg PUBLIC "-//W3C//DTD SVG 1.1//EN" "http://www.w3.org/Graphics/SVG/1.1/DTD/svg11.dtd">
<svg version="1.1" id="Capa_1" xmlns="http://www.w3.org/2000/svg" xmlns:xlink="http://www.w3.org/1999/xlink" x="0px" y="0px" style="fill:white"
	  viewBox="0 123.307 595.281 595.275" enable-background="new 0 123.307 595.281 595.275"
	 xml:space="preserve">
<g>
	<path d="M553.111,700.402h-61.793v-18.628c0-42.661-11.377-75.587-33.814-97.865c-28.6-28.396-64.514-28.466-65.951-28.455h-45.545
		v-27.559c0-0.479-0.049-0.949-0.119-1.409c6.152-2.542,11.813-5.449,17.043-8.607c17.236,8.66,33.84,11.761,48.77,11.761
		c36.129-0.002,62.424-18.108,63.965-19.192c2.418-1.703,3.855-4.476,3.855-7.434V322.385c0-48.397-13.652-87.733-40.578-116.915
		c-21.554-23.358-51.946-39.893-88.012-48.009c4.334,5.862,5.597,13.26,12.209,17.983c0.789,0.789,0.962,2.82,1.488,4.625
		c24.661,8.146,45.487,20.972,60.951,37.73c23.729,25.717,35.76,60.903,35.76,104.584V497.95
		c-10.977,6.252-43.996,21.729-81.371,7.568c10.664-9.208,18.734-19.289,24.736-28.608c17.496-27.166,21.443-53.31,21.602-54.409
		c0.064-0.431,0.096-0.868,0.096-1.304V311.21c0-5.022-4.094-9.092-9.115-9.092c-40.547,0-59.654-30.765-60.432-32.042
		c-2.443-4.113-7.658-5.626-11.928-3.46c-65.18,33.087-137.756,35.658-158.446,35.658c-5.111,0-8.015-0.143-8.04-0.145
		c-2.487-0.13-4.921,0.772-6.728,2.489c-1.808,1.716-2.831,4.1-2.831,6.592v109.987c0,0.437,0.031,0.873,0.094,1.305
		c0.159,1.1,4.107,27.243,21.602,54.408c6.003,9.321,14.078,19.405,24.745,28.615c-37.62,14.335-70.398-1.193-81.382-7.541v-175.6
		c0-43.438,11.9-78.481,35.369-104.16c15.33-16.771,36.005-29.649,60.5-37.876c4.487-7.378,8.302-15.509,14.464-22.883
		c-36.282,8.172-66.821,24.896-88.387,48.491c-26.628,29.135-40.13,68.307-40.13,116.428v180.631c0,2.957,1.438,5.729,3.856,7.433
		c1.541,1.085,27.831,19.194,63.963,19.193c14.927-0.001,31.538-3.104,48.771-11.761c5.229,3.157,10.891,6.064,17.042,8.606
		c-0.071,0.461-0.12,0.93-0.12,1.41v27.558h-45.48c-1.48,0.015-37.419,0.063-66.017,28.456
		c-22.437,22.276-33.813,55.202-33.813,97.865v18.628H42.17c-5.021,0-9.092,4.069-9.092,9.091c0,5.022,4.071,9.092,9.092,9.092
		h510.94c5.021,0,9.092-4.069,9.092-9.092C562.203,704.472,558.132,700.402,553.111,700.402z M206.227,467.626
		c-14.226-21.833-18.507-43.449-19.163-47.171v-99.997c27.253-0.05,94.709-3.637,159.103-34.197
		c8.676,10.742,28.879,30.483,62.047,33.617v100.574c-0.666,3.769-4.953,25.362-19.164,47.174
		c-20.375,31.272-50.846,48.469-90.566,51.117h-1.692C257.074,516.094,226.603,498.898,206.227,467.626z M327.826,532.461v13.767
		c-29.767,19.596-52.833,6.145-60.37,0.476v-14.242c8.696,2.226,18.15,3.779,28.453,4.446c0.195,0.014,0.391,0.02,0.588,0.02h2.288
		c0.195,0,0.393-0.006,0.588-0.02C309.675,536.239,319.13,534.686,327.826,532.461z M203.729,573.638h54.635
		c3.957,0,7.314-2.532,8.563-6.062c3.336,1.673,7.162,3.273,11.45,4.529c5.145,1.505,11.301,2.623,18.246,2.623
		c2.883,0,5.908-0.207,9.047-0.644c-3.98,8.985-5.266,22.286,4.902,36.834c4.541,6.496,11.65,14.239,19.744,14.241h0.002
		c4.352,0,8.254-2.261,10.439-6.049c1.006-1.741,3.104-5.383,1.43-14.311c1.313,0.348,2.672,0.658,4.102,0.915
		c3.387,0.608,6.563,0.917,9.439,0.917c15.314,0,17.689-8.916,18.053-11.649c1.334-10.048-9.789-16.342-13.441-18.409
		c-1.75-0.989-3.678-1.969-5.762-2.937h37.041c0.002,0,0.006,0,0.01,0c0.078,0,0.492,0.005,1.174,0.036
		c-3.652,49.323-44.922,88.346-95.162,88.346c-50.241,0-91.512-39.026-95.161-88.351
		C203.108,573.643,203.541,573.638,203.729,573.638z M182.708,700.402h-60.562v-18.628c0-72.877,36.357-96.641,60.562-104.387
		V700.402z M394.39,700.402h-193.5v-74.296c20.034,32.435,55.907,54.097,96.75,54.097c40.841,0,76.716-21.662,96.75-54.097V700.402z
		 M473.134,700.402h-60.563V577.477c9.797,3.15,21.59,8.881,32.121,19.336c18.873,18.737,28.441,47.322,28.441,84.961V700.402z"/>
	<path class="red" style="fill:red" d="M231.19,179.878l-15.422,25.701c-1.85,3.082-1.709,6.967,0.36,9.907c0.387,0.551,9.634,13.615,23.896,26.795
		c19.319,17.85,38.117,27.145,55.91,27.705c0.321,0.033,0.647,0.055,0.978,0.055c0.121,0,0.244-0.012,0.365-0.013
		c0.122,0.001,0.244,0.013,0.365,0.013c0.331,0,0.656-0.021,0.979-0.055c17.793-0.562,36.59-9.856,55.908-27.705
		c14.264-13.178,23.512-26.243,23.896-26.795c2.07-2.94,2.211-6.824,0.361-9.907l-15.598-25.992
		c0.484,0.155,0.958,0.325,1.439,0.484c-0.526-1.806-0.699-3.836-1.488-4.625c-6.612-4.723-7.875-12.121-12.209-17.983
		c-0.397-0.09-0.786-0.193-1.186-0.28l-6.617-11.03c-0.213-0.354-0.449-0.693-0.707-1.015c-0.715-0.892-17.834-21.831-44.297-21.831
		c-0.286,0-0.568,0.017-0.848,0.042c-0.279-0.026-0.561-0.042-0.849-0.042c-26.462,0-43.581,20.939-44.298,21.833
		c-0.258,0.321-0.495,0.66-0.707,1.015l-6.728,11.213c-0.141,0.031-0.278,0.069-0.419,0.101
		c-6.162,7.374-9.977,15.504-14.464,22.883C230.273,180.194,230.726,180.029,231.19,179.878z M296.429,141.488
		c0.286,0,0.568-0.017,0.848-0.042c0.279,0.026,0.562,0.042,0.849,0.042c14.383,0,25.295,9.947,28.864,13.658
		c-12.781,16.172-24.689,28.489-29.711,31.76c-5.018-3.27-16.922-15.587-29.711-31.76
		C271.166,151.405,282.066,141.488,296.429,141.488z M257.427,171.488c2.72,3.312,5.974,7.18,9.428,11.078
		c16.955,19.137,24.423,23.059,30.421,23.059c5.997,0,13.466-3.922,30.421-23.059c3.455-3.898,6.707-7.766,9.428-11.078
		l22.928,38.21c-11.793,14.955-38.158,41.937-62.847,42.149c-16.673-0.211-33.432-12.428-44.596-22.697
		c-8.027-7.384-14.393-14.865-18.082-19.498L257.427,171.488z"/>
	<circle cx="233.105" cy="362.606" r="10.852"/>
	<circle cx="362.173" cy="362.606" r="10.85"/>
	<path d="M296.065,421.255h3.151c9.416,0,17.107-7.417,17.598-16.713c0.031-0.307,0.047-0.616,0.047-0.932v-21.6
		c0-5.021-4.07-9.091-9.092-9.091c-5.02,0-9.09,4.069-9.09,9.091v21.062h-2.091c-0.277-4.771-4.235-8.554-9.076-8.554
		c-5.021,0-9.091,4.069-9.091,9.092C278.42,413.341,286.336,421.255,296.065,421.255z"/>
	<path class="red" d="M297.276,211.392c-5.021,0-9.092,4.069-9.092,9.092v15.457c0,5.021,4.071,9.092,9.092,9.092
		c5.021,0,9.091-4.07,9.091-9.092v-15.457C306.367,215.462,302.296,211.392,297.276,211.392z"/>
	<path d="M354.001,458.038c3.152-3.907,2.539-9.631-1.369-12.783s-9.633-2.542-12.783,1.369
		c-0.098,0.12-11.018,12.049-39.969,12.049c-30.055,0-44.717-12.464-45.449-13.105c-3.71-3.336-9.424-3.055-12.792,0.639
		c-3.383,3.711-3.117,9.461,0.593,12.844c0.798,0.728,19.962,17.806,57.648,17.806C337.732,476.854,352.449,459.965,354.001,458.038
		z"/>
</g>
</svg>
