<?xml version="1.0" encoding="utf-8"?>
<!-- Generator: Adobe Illustrator 15.0.0, SVG Export Plug-In . SVG Version: 6.00 Build 0)  -->
<!DOCTYPE svg PUBLIC "-//W3C//DTD SVG 1.1//EN" "http://www.w3.org/Graphics/SVG/1.1/DTD/svg11.dtd">
<svg version="1.1" id="Capa_1" xmlns="http://www.w3.org/2000/svg" xmlns:xlink="http://www.w3.org/1999/xlink" x="0px" y="0px" style="fill:#1C2833"
	  viewBox="0 123.307 595.281 595.275" enable-background="new 0 123.307 595.281 595.275"
	 xml:space="preserve">
<g>
	<path d="M337.32,419.75c0-18.443-12.699-33.841-29.764-38.276v-100.62c0-5.486-4.445-9.921-9.921-9.921
		c-5.477,0-9.921,4.435-9.921,9.921v100.62c-13.879,3.611-24.743,14.476-28.354,28.355h-70.857c-5.477,0-9.921,4.435-9.921,9.921
		s4.445,9.921,9.921,9.921h70.857c4.435,17.074,19.842,29.764,38.276,29.764C319.521,459.434,337.32,441.635,337.32,419.75z
		 M297.635,439.593c-10.943,0-19.842-8.899-19.842-19.843s8.899-19.843,19.842-19.843c10.942,0,19.843,8.899,19.843,19.843
		S308.578,439.593,297.635,439.593z"/>
	<path d="M287.714,201.484v9.921c0,5.486,4.445,9.921,9.921,9.921c5.476,0,9.921-4.435,9.921-9.921v-9.921
		c0-5.486-4.445-9.922-9.921-9.922C292.159,191.562,287.714,195.998,287.714,201.484z"/>
	<path d="M505.98,409.829c-5.486,0-9.922,4.435-9.922,9.921s4.436,9.921,9.922,9.921h9.922c5.486,0,9.92-4.435,9.92-9.921
		s-4.434-9.921-9.92-9.921H505.98z"/>
	<path d="M79.369,409.829c-5.476,0-9.921,4.435-9.921,9.921s4.445,9.921,9.921,9.921h9.921c5.477,0,9.921-4.435,9.921-9.921
		s-4.445-9.921-9.921-9.921H79.369z"/>
	<path d="M444.955,258.391l-7.014,7.015c-3.879,3.879-3.879,10.149,0,14.028c1.934,1.935,4.475,2.907,7.014,2.907
		s5.08-0.973,7.014-2.907l7.016-7.014c3.879-3.88,3.879-10.149,0-14.029C455.105,254.512,448.833,254.512,444.955,258.391z"/>
	<path d="M143.301,560.045l-7.014,7.015c-3.879,3.879-3.879,10.149,0,14.028c1.935,1.935,4.475,2.907,7.014,2.907
		c2.54,0,5.08-0.973,7.015-2.907l7.014-7.014c3.879-3.88,3.879-10.149,0-14.029C153.451,556.166,147.171,556.176,143.301,560.045z"
		/>
	<path d="M157.33,265.406l-7.014-7.015c-3.879-3.879-10.149-3.879-14.029,0c-3.879,3.88-3.879,10.149,0,14.029l7.014,7.014
		c1.935,1.935,4.475,2.907,7.015,2.907c2.54,0,5.08-0.973,7.014-2.907C161.209,275.555,161.209,269.285,157.33,265.406z"/>
	<path d="M230.598,690.597C106.504,659.862,19.842,548.973,19.842,420.95c0-153.173,124.62-277.793,277.793-277.793
		s277.792,124.62,277.792,277.793c0,34.407-6.289,68.089-18.682,100.145c-1.973,5.109,0.566,10.854,5.676,12.828
		c5.08,1.975,10.854-0.575,12.828-5.675c13.285-34.347,20.021-70.44,20.021-107.298c0-164.116-133.52-297.635-297.636-297.635
		S0,256.834,0,420.95c0,137.16,92.862,255.977,225.826,288.915c0.804,0.198,1.607,0.287,2.401,0.287c4.455,0,8.502-3.025,9.624-7.54
		C239.16,697.295,235.916,691.918,230.598,690.597z"/>
	<g class="red" style="fill:red;stroke:red">
		<path fill="none" stroke-width="20" stroke-miterlimit="10" d="M516.878,632.291
			c-2.525-2.343-4.91-4.557-5.995-6.624c-0.098-0.188-0.205-0.381-0.325-0.595l-0.057-0.098c-4.407-7.471-6.104-26.593-7.12-38.063
			c-0.152-1.719-0.3-3.365-0.445-4.905c-0.015-0.168-0.035-0.335-0.056-0.506l-0.013-0.095
			c-2.366-17.536-8.251-42.833-22.846-63.757c-9.98-14.308-22.349-24.053-36.817-29.026c-1.919-11.404-11.351-20.091-22.661-20.091
			c-11.316,0-20.752,8.694-22.664,20.104c-14.337,4.976-26.99,14.927-36.817,29.019c-14.594,20.919-20.479,46.215-22.846,63.753
			l-0.012,0.094c-0.021,0.172-0.041,0.339-0.057,0.505c-0.148,1.561-0.296,3.218-0.449,4.952
			c-1.015,11.427-2.71,30.551-7.116,38.017l-0.057,0.099c-0.087,0.151-0.171,0.301-0.293,0.533
			c-1.116,2.126-3.503,4.342-6.029,6.688c-6.671,6.191-20.548,19.078-9.059,41.676c2.352,4.631,6.896,7.506,11.861,7.506h32.001
			c1.318,15.906,13.956,28.426,29.31,28.426c15.354,0,27.99-12.52,29.31-28.426h96.449c4.959,0,9.504-2.874,11.862-7.504
			C537.426,651.375,523.553,638.489,516.878,632.291z"/>
		
			<line fill="none"  stroke-width="20" stroke-miterlimit="10" x1="359.007" y1="681.475" x2="417.626" y2="681.475"/>
			<path fill="none"  stroke-width="20" stroke-linecap="round" stroke-miterlimit="10" d="M465.825,570.567
	c0-25.658-15.535-46.42-34.734-46.42"/>
	</g>
</g>

</svg>
