<?xml version="1.0" encoding="iso-8859-1"?>
<!-- Generator: Adobe Illustrator 19.0.0, SVG Export Plug-In . SVG Version: 6.00 Build 0)  -->
<svg version="1.1" id="Layer_1" xmlns="http://www.w3.org/2000/svg" xmlns:xlink="http://www.w3.org/1999/xlink" x="0px" y="0px"
	 viewBox="0 0 512.001 512.001" style="enable-background:new 0 0 512.001 512.001;fill:white" xml:space="preserve">
<g>
	<g class="red" style="fill:red">
		<path d="M415.694,159.663H272.037c-9.122,0-16.516,7.395-16.516,16.516v79.822c0,9.122,7.394,16.516,16.516,16.516h143.657
			c9.122,0,16.516-7.395,16.516-16.516v-79.822C432.21,167.058,424.816,159.663,415.694,159.663z M399.178,239.485H288.553v-46.79
			h110.625V239.485z"/>
	</g>
</g>
<g>
	<g>
		<path d="M211.45,286.322c-0.819-0.979-1.915-2.291-2.7-3.31V166.488c0.783-1.016,1.875-2.32,2.69-3.296
			c5.59-6.688,13.247-15.843,13.247-28.205V86.957c0-30.317-24.399-54.982-54.388-54.982h-51.266
			c-14.56,0-28.342,5.747-38.808,16.181C69.74,58.61,63.967,72.39,63.967,86.958v48.028c0,12.369,7.671,21.522,13.272,28.205
			c0.818,0.976,1.912,2.282,2.699,3.298v116.513c-0.788,1.019-1.884,2.329-2.704,3.308c-5.599,6.686-13.267,15.842-13.267,28.207
			v48.029c0,29.57,24.702,53.628,55.065,53.628h51.266c30.498,0,54.388-23.556,54.39-53.63v-48.028
			C224.688,302.162,217.036,293.007,211.45,286.322z M191.654,134.444c-0.699,1.75-3.718,5.36-5.555,7.558
			c-4.866,5.82-10.382,12.417-10.382,21.491v122.5c0,9.082,5.518,15.685,10.386,21.511c1.835,2.197,4.852,5.806,5.551,7.555v47.486
			c0,11.742-9.181,20.596-21.356,20.596h-51.266c-12.355,0-22.033-9.047-22.033-20.596v-47.48c0.704-1.75,3.722-5.355,5.561-7.548
			c4.88-5.828,10.411-12.433,10.411-21.525v-122.5c0-9.095-5.534-15.697-10.416-21.521c-1.835-2.191-4.851-5.788-5.555-7.536V86.958
			c0-11.898,10.089-21.95,22.033-21.95h51.266c11.775,0,21.356,9.847,21.356,21.95V134.444z"/>
	</g>
</g>
<g>
	<g>
		<path d="M463.939,95.827H208.17c-9.121,0-16.516,7.395-16.516,16.516s7.395,16.516,16.516,16.516h255.769
			c8.147,0,15.03,6.353,15.03,13.874v291.362c0,7.968-7.802,12.899-15.03,12.899H47.22c-7.926,0-14.141-5.904-14.187-13.457
			l3.714-290.741c0.001-0.071,0.001-0.142,0.001-0.212c0-7.696,6.246-13.725,14.221-13.725h13.544
			c9.121,0,16.516-7.395,16.516-16.516s-7.395-16.516-16.516-16.516H50.969c-26.016,0-47.188,20.912-47.253,46.64L0.001,433.24
			C0,433.309,0,433.381,0,433.451c0,25.681,21.182,46.575,47.219,46.575h416.719c26.502,0,48.062-20.605,48.063-45.932V142.733
			C512.001,116.869,490.44,95.827,463.939,95.827z"/>
	</g>
</g>
<g>
	<g>
		<path d="M288.008,287.365h-15.972c-9.122,0-16.516,7.394-16.516,16.516s7.394,16.516,16.516,16.516h15.972
			c9.122,0,16.516-7.394,16.516-16.516S297.131,287.365,288.008,287.365z"/>
	</g>
</g>
<g>
	<g>
		<path d="M351.843,287.365h-15.971c-9.122,0-16.516,7.394-16.516,16.516s7.394,16.516,16.516,16.516h15.971
			c9.122,0,16.516-7.394,16.516-16.516S360.965,287.365,351.843,287.365z"/>
	</g>
</g>
<g>
	<g>
		<path d="M415.694,287.365h-15.971c-9.122,0-16.516,7.394-16.516,16.516s7.394,16.516,16.516,16.516h15.971
			c9.122,0,16.516-7.394,16.516-16.516S424.816,287.365,415.694,287.365z"/>
	</g>
</g>
<g>
	<g>
		<path d="M288.008,335.261h-15.972c-9.122,0-16.516,7.394-16.516,16.516c0,9.122,7.394,16.516,16.516,16.516h15.972
			c9.122,0,16.516-7.394,16.516-16.516C304.525,342.655,297.131,335.261,288.008,335.261z"/>
	</g>
</g>
<g>
	<g>
		<path d="M351.843,335.261h-15.971c-9.122,0-16.516,7.394-16.516,16.516c0,9.122,7.394,16.516,16.516,16.516h15.971
			c9.122,0,16.516-7.394,16.516-16.516C368.359,342.655,360.965,335.261,351.843,335.261z"/>
	</g>
</g>
<g>
	<g>
		<path d="M415.694,335.261h-15.971c-9.122,0-16.516,7.394-16.516,16.516c0,9.122,7.394,16.516,16.516,16.516h15.971
			c9.122,0,16.516-7.394,16.516-16.516C432.21,342.655,424.816,335.261,415.694,335.261z"/>
	</g>
</g>
<g>
	<g>
		<path d="M288.008,383.142h-15.972c-9.122,0-16.516,7.394-16.516,16.516c0,9.122,7.394,16.516,16.516,16.516h15.972
			c9.122,0,16.516-7.394,16.516-16.516C304.525,390.536,297.131,383.142,288.008,383.142z"/>
	</g>
</g>
<g>
	<g>
		<path d="M351.843,383.142h-15.971c-9.122,0-16.516,7.394-16.516,16.516c0,9.122,7.394,16.516,16.516,16.516h15.971
			c9.122,0,16.516-7.394,16.516-16.516C368.359,390.536,360.965,383.142,351.843,383.142z"/>
	</g>
</g>
<g>
	<g>
		<path d="M415.694,383.142h-15.971c-9.122,0-16.516,7.394-16.516,16.516c0,9.122,7.394,16.516,16.516,16.516h15.971
			c9.122,0,16.516-7.394,16.516-16.516C432.21,390.536,424.816,383.142,415.694,383.142z"/>
	</g>
</g>
<g>
</g>
<g>
</g>
<g>
</g>
<g>
</g>
<g>
</g>
<g>
</g>
<g>
</g>
<g>
</g>
<g>
</g>
<g>
</g>
<g>
</g>
<g>
</g>
<g>
</g>
<g>
</g>
<g>
</g>
</svg>
