<?xml version="1.0" encoding="UTF-8" standalone="no"?>
<svg
   xmlns:dc="http://purl.org/dc/elements/1.1/"
   xmlns:cc="http://creativecommons.org/ns#"
   xmlns:rdf="http://www.w3.org/1999/02/22-rdf-syntax-ns#"
   xmlns:svg="http://www.w3.org/2000/svg"
   xmlns="http://www.w3.org/2000/svg"
   xml:space="preserve"
   style="enable-background:new 0 0 446.646 446.646;fill:white"
   viewBox="0 0 446.646 446.646"
   y="0px"
   x="0px"
   id="Capa_1"
   version="1.1"><metadata
     id="metadata43"><rdf:RDF><cc:Work
         rdf:about=""><dc:format>image/svg+xml</dc:format><dc:type
           rdf:resource="http://purl.org/dc/dcmitype/StillImage" /><dc:title></dc:title></cc:Work></rdf:RDF></metadata><defs
     id="defs41" /><g 
     id="g3"><path
       id="path5"
       d="M 183.78711 0.73632812 C 157.45784 0.97926962 131.11221 0.55161121 104.79299 1.0897172 C 99.558468 2.2953146 96.858613 8.3148491 97.904335 13.289437 C 98.362679 90.210494 98.652518 167.13672 98.858842 244.05611 C 99.570227 249.14603 105.354 251.98645 110.07655 250.9539 C 161.36193 250.99928 212.65514 251.37699 263.93563 251.18754 C 269.10213 250.20148 271.81011 244.27186 270.78246 239.43126 C 270.6572 213.90857 271.1147 188.36997 270.5989 162.85764 C 269.34062 157.88772 263.56387 155.42478 258.82189 156.40338 C 237.32885 156.42778 215.7993 156.61008 194.32891 156.4658 C 192.17886 155.09476 193.57102 152.17651 193.16476 150.09573 C 193.13039 102.7457 193.71948 55.387703 193.53482 8.0433278 C 192.65328 3.6705068 188.19887 0.43859028 183.78711 0.73632812 z M 124.0625 19.042969 C 140.90888 19.069184 157.75541 19.061145 174.60156 19.164062 C 176.26776 20.53474 175.08654 23.065999 175.45791 24.933179 C 175.76226 72.273691 175.75597 119.6245 176.22461 166.95869 C 177.23548 172.02686 183.07309 174.64666 187.8285 173.64548 C 209.27245 173.70174 230.71648 173.74279 252.16016 173.87109 C 254.4313 175.15181 253.05532 178.18122 253.43835 180.26326 C 253.42079 197.81706 253.59794 215.40772 253.37756 232.93853 C 252.00377 235.09575 249.08548 233.7212 246.99417 234.12136 C 203.6426 234.22674 160.29103 234.33212 116.93945 234.4375 C 114.36968 233.16136 115.5265 229.76056 115.2398 227.46487 C 115.34445 158.68547 115.51076 89.902237 116.08789 21.126953 C 115.73213 19.646736 116.95358 18.971052 118.25929 19.080417 C 120.20814 19.062673 122.10355 19.103851 124.0625 19.042969 z "
       class="red" style="fill:red" /><path
       id="path7"
       d="M 416.68945 194.5957 C 390.34494 194.91184 363.98516 194.62226 337.64954 195.19138 C 332.46163 196.34637 329.75057 202.32878 330.7814 207.21913 C 330.79902 228.65586 330.79259 250.09258 330.76367 271.5293 C 329.49881 273.57148 326.7066 272.23502 324.7473 272.63895 C 303.11378 272.8253 281.46077 272.50743 259.84059 273.1317 C 254.85764 274.42852 252.52084 280.23856 253.47362 284.9742 C 253.44353 306.352 253.38905 327.72974 253.3125 349.10742 C 252.01588 351.31054 249.05796 349.9179 246.99338 350.32437 C 173.92117 350.61057 100.84057 350.50994 27.77319 350.86431 C 22.754761 351.74913 20.012258 357.47134 20.999036 362.18202 C 21.004141 387.77264 20.424412 413.3771 20.846283 438.95879 C 22.101323 444.05035 28.04136 446.51051 32.865614 445.52136 C 161.12418 445.40587 289.38314 445.93087 417.64062 446.13672 C 422.56343 446.34258 426.46707 441.81378 426.91552 437.13902 C 427.14461 433.88248 426.64268 430.62133 426.82833 427.32597 C 426.60049 352.29434 426.66719 277.25539 426.43994 202.228 C 425.69109 197.73765 421.12911 194.31269 416.68945 194.5957 z M 351.59766 212.86133 C 370.13737 213.07174 388.70383 213.03899 407.25391 213.16016 C 408.79463 214.76532 407.63861 217.36886 408 219.39022 C 408.04203 288.47902 407.89413 357.56767 407.74219 426.65625 C 405.40757 427.74437 402.50176 426.87425 399.94103 427.1672 C 383.18334 427.22149 366.42566 427.27579 349.66797 427.33008 C 348.23061 425.70293 349.30768 423.16484 348.95526 421.16369 C 348.7911 399.6958 349.1075 378.20967 348.50821 356.75434 C 347.20665 351.55193 341.15398 349.01016 336.21056 350.03839 C 314.83509 350.12057 293.45957 350.18286 272.08398 350.22656 C 269.93351 348.92201 271.32555 345.99606 270.9181 343.95627 C 270.91165 326.40929 270.74242 308.82068 270.92151 291.29957 C 272.39133 289.23627 275.28801 290.61358 277.40817 290.2142 C 298.93556 290.18501 320.47837 290.64592 341.99585 290.18279 C 347.13923 288.92003 349.6768 282.914 348.65811 278.03087 C 348.64511 256.65469 348.65408 235.27851 348.68359 213.90234 C 349.15265 212.83995 350.60401 212.83888 351.59766 212.86133 z M 122.29492 367.5957 C 191.43046 367.73546 260.56588 367.92101 329.70117 368.15234 C 331.50999 369.56114 330.23251 372.2333 330.60556 374.19295 C 330.54629 391.68202 330.48701 409.17109 330.42773 426.66016 C 328.82673 428.20393 326.21867 427.05923 324.19767 427.4232 C 238.24716 427.65578 152.29657 427.84384 66.345701 427.85311 C 57.310461 427.80299 48.219335 427.98005 39.218975 427.78812 C 37.378751 425.79626 38.450725 422.72466 38.13276 420.26256 C 38.040708 403.14201 37.858277 385.99111 37.920439 368.88895 C 39.431717 366.6338 42.461651 367.85501 44.678493 367.49315 C 70.550636 367.52734 96.422779 367.56152 122.29492 367.5957 z " /></g><g
     id="g9" /><g
     id="g11" /><g
     id="g13" /><g
     id="g15" /><g
     id="g17" /><g
     id="g19" /><g
     id="g21" /><g
     id="g23" /><g
     id="g25" /><g
     id="g27" /><g
     id="g29" /><g
     id="g31" /><g
     id="g33" /><g
     id="g35" /><g
     id="g37" /></svg>