<?xml version="1.0" encoding="utf-8"?>
<!-- Generator: Adobe Illustrator 15.0.0, SVG Export Plug-In . SVG Version: 6.00 Build 0)  -->
<!DOCTYPE svg PUBLIC "-//W3C//DTD SVG 1.1 Tiny//EN" "http://www.w3.org/Graphics/SVG/1.1/DTD/svg11-tiny.dtd">
<svg version="1.1" baseProfile="tiny" id="Calque_1"
	 xmlns="http://www.w3.org/2000/svg" xmlns:xlink="http://www.w3.org/1999/xlink" x="0px" y="0px" style="fill:white" viewBox="0 0 595.275 595.275" xml:space="preserve">
<g>
	<g>
		<g>
			<path d="M367.968,204.365h-41.307c-6.502,0-11.807,5.288-11.807,11.801v143.454c0,6.521,5.305,11.806,11.805,11.806h41.309
				c6.498,0,11.805-5.284,11.805-11.806V216.165C379.772,209.653,374.466,204.365,367.968,204.365z"/>
			<path d="M464.397,128.645c-1.57-15.47-8.341-33.275-22.365-44.624l-5.957-4.107L342.87,17.058
				c-4.35-2.941-10.305-1.571-12.939,2.978l-108.28,187.539c-2.19,3.796-1.357,8.624,1.979,11.455l30.098,25.552l0.012,291.728
				c-0.011,31.88,25.842,57.745,57.746,57.745l95.215,0.025c33.795-0.025,50.338-33.478,57.311-54.961
				C491.989,452.624,477.194,254.01,464.397,128.645z M446.747,533.519c-6.949,21.413-19.984,42.396-40.047,42.397l-95.217-0.012
				c-21.869,0-39.596-17.735-39.583-39.596l-0.045-295.944c0.011-2.664-1.153-5.194-3.185-6.913l-27.512-23.351L340.79,37.544
				l85.147,57.402l0.543,0.337c11.651,6.741,18.425,20.956,19.853,35.188C459.356,257.933,473.145,451.918,446.747,533.519z"/>
		</g>
	</g>
</g>
<g>
	<g>
		<g class="blue" style="fill:red">
			<path d="M209.406,173.586l15.451,8.903l6.811-11.832l0.011-0.012l76.356-132.242l6.819-11.822l-15.428-8.891l-8.771,15.158
				C256.812,39.992,205.749,40.282,141.853,0l-26.522,45.942c66.815,35.212,92.089,79.604,102.85,112.453L209.406,173.586z
				 M171.513,48.341c-6.357-3.681-9.902-9.453-7.918-12.887c1.997-3.438,8.761-3.255,15.115,0.409l58.431,33.734
				c6.351,3.681,9.906,9.453,7.923,12.886h-0.015c-1.979,3.438-8.741,3.256-15.111-0.407L171.513,48.341z"/>
		</g>
	</g>
</g>
</svg>
