<?xml version="1.0" encoding="utf-8"?>
<!-- Generator: Adobe Illustrator 15.0.0, SVG Export Plug-In . SVG Version: 6.00 Build 0)  -->
<!DOCTYPE svg PUBLIC "-//W3C//DTD SVG 1.1 Tiny//EN" "http://www.w3.org/Graphics/SVG/1.1/DTD/svg11-tiny.dtd">
<svg version="1.1" baseProfile="tiny" id="Layer_1" xmlns="http://www.w3.org/2000/svg" style="fill:white" xmlns:xlink="http://www.w3.org/1999/xlink"
	 x="0px" y="0px"  viewBox="0 123.307 595.281 595.275" xml:space="preserve">
<g>
	<g>
		<path d="M566.076,202.842h-209.42c0.002-0.209,0.016-0.413,0.016-0.621c0-32.549-26.482-59.03-59.03-59.03
			c-32.548,0-59.03,26.481-59.03,59.03c0,0.209,0.014,0.414,0.016,0.621H29.205C13.101,202.842,0,215.942,0,232.046v357.915
			c0,16.104,13.101,29.205,29.205,29.205h188.283l-7.612,60.896h-21.598c-5.147,0-9.321,4.172-9.321,9.32
			c0,5.147,4.172,9.321,9.321,9.321h218.725c5.146,0,9.32-4.173,9.32-9.321c0-5.146-4.172-9.32-9.32-9.32h-21.598l-7.611-60.896
			h188.283c16.104,0,29.203-13.102,29.203-29.205V232.046C595.281,215.942,582.179,202.842,566.076,202.842z M297.64,161.831
			c22.271,0,40.389,18.119,40.389,40.39s-18.117,40.39-40.389,40.39c-22.271,0-40.39-18.119-40.39-40.39
			S275.37,161.831,297.64,161.831z M338.029,261.251v299.504H297.02v-0.31c-5.896,0-12.734,0-18.642,0v0.31H118.062v-0.31
			c-5.891,0-12.728,0-18.64,0v0.31H58.41V261.251H338.029z M228.662,680.059l7.612-60.895h122.733l7.611,60.895H228.662z
			 M566.076,600.524H29.205c-5.825,0-10.563-4.738-10.563-10.563V232.046c0-5.824,4.739-10.563,10.563-10.563h212.649
			c2.752,7.946,7.151,15.122,12.795,21.127H49.088c-5.147,0-9.321,4.172-9.321,9.32v318.146c0,5.146,4.173,9.321,9.321,9.321
			h497.103c5.146,0,9.32-4.173,9.32-9.321V251.929c0-5.146-4.172-9.32-9.32-9.32H340.632c5.643-6.005,10.043-13.182,12.795-21.127
			h212.646c5.826,0,10.564,4.739,10.564,10.563v357.915h0.002C576.64,595.786,571.9,600.524,566.076,600.524z M493.621,370.549
			l-17.645-4.412v-2.886c6.234-5.49,9.941-13.451,9.941-21.843v-49.711c0-5.146-4.174-9.321-9.32-9.321h-39.77
			c-16.104,0-29.205,13.102-29.205,29.205v29.826c0,8.392,3.707,16.353,9.941,21.843v2.886l-17.646,4.412
			c-13.023,3.255-22.121,14.906-22.121,28.333v2.801h-21.125V261.251h180.199v140.432h-21.127v-2.801
			C515.744,385.455,506.648,373.805,493.621,370.549z M431.576,350.48c-3.324-1.935-5.311-5.326-5.311-9.071v-29.825
			c0-5.825,4.74-10.564,10.564-10.564h30.447v40.39c0,3.745-1.984,7.137-5.309,9.071c-2.867,1.669-4.633,4.737-4.633,8.056v14.88
			c0,4.276,2.91,8.005,7.061,9.042l24.705,6.177c4.711,1.177,8.002,5.392,8.002,10.248v2.8H396.441v-2.801
			c0-4.856,3.289-9.07,8-10.248l24.709-6.176c4.148-1.036,7.059-4.765,7.059-9.042v-14.88
			C436.208,355.216,434.443,352.148,431.576,350.48z M536.871,420.324v140.432h-21.127v-2.801c0-13.425-9.096-25.076-22.121-28.332
			l-17.646-4.413v-2.886c6.236-5.489,9.941-13.45,9.941-21.843v-49.71c0-5.147-4.172-9.321-9.32-9.321H436.83
			c-16.105,0-29.205,13.101-29.205,29.205v29.825c0,8.393,3.705,16.352,9.941,21.843v2.886l-17.646,4.412
			c-13.025,3.257-22.121,14.907-22.121,28.333v2.801h-21.127V420.324H536.871z M431.576,509.552
			c-3.324-1.935-5.311-5.326-5.311-9.071v-29.825c0-5.825,4.74-10.564,10.564-10.564h30.447v40.39c0,3.745-1.984,7.137-5.309,9.071
			c-2.867,1.668-4.633,4.738-4.633,8.056v14.88c0,4.276,2.91,8.005,7.061,9.042l24.705,6.177c4.711,1.178,8.004,5.392,8.004,10.248
			v2.8H396.441v-2.801c0-4.856,3.289-9.071,8.002-10.249l24.707-6.175c4.15-1.038,7.061-4.766,7.061-9.042v-14.88
			C436.208,514.289,434.443,511.222,431.576,509.552z"/>
		<path class="yellow" style="fill:red" d="M277.049,526.875l-32.459-10.82c-0.614-0.205-1.19-0.475-1.744-0.778c-0.112-0.103-0.216-0.209-0.335-0.306
			c-0.492-0.405-1.013-0.752-1.556-1.042c-2.222-1.962-3.589-4.796-3.589-7.896v-14.705l15.155-7.578
			c8.752-4.378,14.704-12.788,15.917-22.499l2.337-18.694c10.662-13.997,16.302-30.453,16.302-47.641
			c0-29.12-16.266-54.755-40.769-69.497c0.657-2.902,1-5.864,1-8.864c0-24.327-22.021-44.118-49.088-44.118
			s-49.088,19.791-49.088,44.118c0,2.996,0.337,5.964,0.995,8.869c-24.5,14.742-40.764,40.374-40.764,69.492
			c0,17.233,5.633,33.645,16.299,47.638l2.338,18.7c1.214,9.71,7.164,18.123,15.918,22.498l15.155,7.578v14.705
			c0,4.555-2.902,8.582-7.223,10.021l-32.459,10.82c-11.944,3.981-19.97,15.116-19.97,27.706v5.864c5.912,0,12.749,0,18.64,0v-5.864
			c0-4.555,2.903-8.581,7.222-10.021l32.459-10.821c0.065-0.021,0.125-0.05,0.19-0.072c10.884,10.163,25.268,15.904,40.286,15.904
			c15.104,0,29.408-5.729,40.284-15.904c0.065,0.022,0.127,0.052,0.192,0.072l32.459,10.821c4.322,1.44,7.223,5.467,7.223,10.021
			v5.864c5.908,0,12.746,0,18.642,0v-5.864C297.02,541.991,288.994,530.856,277.049,526.875z M198.22,291.078
			c16.789,0,30.448,11.429,30.448,25.476c0,0.217-0.024,0.429-0.031,0.646c-9.493-3.229-19.737-4.995-30.417-4.995
			c-10.68,0-20.925,1.766-30.418,4.995c-0.007-0.215-0.029-0.429-0.029-0.646C167.772,302.506,181.432,291.078,198.22,291.078z
			 M129.866,391.744c-0.602,0-1.197,0.066-1.781,0.18c1.721-33.944,32.516-61.078,70.135-61.078
			c38.716,0,70.215,28.74,70.215,64.069c0,1.84-0.094,3.669-0.265,5.486l-33.325-35.541c-1.727-1.841-4.126-2.903-6.65-2.944
			c-2.531-0.031-4.957,0.944-6.741,2.729C194.737,391.361,130.507,391.743,129.866,391.744z M152.256,467.08
			c-3.167-1.584-5.319-4.625-5.758-8.139l-6.118-48.945c19.339-1.194,60.763-6.063,86.979-25.865l28.178,30.053l-5.594,44.758
			c-0.439,3.514-2.591,6.555-5.757,8.139l-32.349,16.175c-8.528,4.262-18.707,4.261-27.234,0L152.256,467.08z M198.22,530.929
			c-9.257,0-18.163-3.193-25.284-8.908c3.038-4.642,4.778-10.152,4.778-15.987v-5.437c6.479,2.977,13.489,4.484,20.506,4.484
			s14.026-1.508,20.506-4.484v5.437c0,5.837,1.742,11.348,4.781,15.99C216.397,527.745,207.531,530.929,198.22,530.929z"/>
	</g>
</g>
<g>
	<g>
		<path d="M297.64,182.958c-10.622,0-19.263,8.641-19.263,19.263s8.641,19.263,19.263,19.263c10.621,0,19.264-8.641,19.264-19.263
			S308.261,182.958,297.64,182.958z"/>
	</g>
</g>
</svg>
