<?xml version="1.0" encoding="utf-8"?>
<!-- Generator: Adobe Illustrator 15.0.0, SVG Export Plug-In . SVG Version: 6.00 Build 0)  -->
<!DOCTYPE svg PUBLIC "-//W3C//DTD SVG 1.1 Basic//EN" "http://www.w3.org/Graphics/SVG/1.1/DTD/svg11-basic.dtd">
<svg version="1.1" baseProfile="basic" id="Capa_1" xmlns="http://www.w3.org/2000/svg" xmlns:xlink="http://www.w3.org/1999/xlink"
	 x="0px" y="0px"  viewBox="0 123.307 595.281 595.275" style="fill:white" xml:space="preserve">
<g>
	<g>
		<rect x="212.396" y="632.925" width="170.514" height="30.289"/>
		<polygon points="125.119,674.331 116.394,708.583 478.912,708.583 470.187,674.331 		"/>
		<path d="M569.054,170.414H26.225C11.742,170.414,0,182.157,0,196.665v390.29c0,14.482,11.742,26.25,26.225,26.25h542.806
			c14.508,0,26.25-11.768,26.25-26.25v-390.29C595.281,182.157,583.564,170.414,569.054,170.414z M572.13,580.891H23.198V202.703
			H572.13V580.891z"/>
	</g>
</g>
<g >
	<g>
		<g class="red" style="fill:red">
			<path d="M342.262,351.144c-9.08-9.079-22.878-10.637-33.578-4.671c-10.697-5.963-24.498-4.408-33.578,4.671
				c-5.31,5.31-8.234,12.371-8.234,19.878c0,7.509,2.924,14.568,8.234,19.877l33.578,33.578l33.578-33.578
				c5.309-5.31,8.233-12.369,8.233-19.877C350.496,363.514,347.573,356.454,342.262,351.144z M327.909,376.546l-19.225,19.225
				l-19.224-19.225c-1.476-1.476-2.288-3.437-2.288-5.524c0-2.085,0.813-4.048,2.288-5.524c1.524-1.522,3.523-2.284,5.523-2.284
				c2.001,0,4.002,0.763,5.525,2.284l8.178,8.178l8.175-8.178c3.045-3.044,8.002-3.044,11.049,0
				c1.476,1.476,2.287,3.438,2.287,5.524C330.198,373.109,329.384,375.07,327.909,376.546z"/>
		</g>
	</g>
	<g>
		<g>
			<path d="M415.3,372.14v-31.234c0-11.733-9.547-21.279-21.278-21.279h-16.837v-7.962H261.464
				c-11.734,0-21.277,9.545-21.277,21.278v37.786c-24.022-3.925-42.739-23.807-44.885-48.374
				c23.776-4.821,41.73-25.881,41.73-51.059c-0.001-28.726-23.373-52.097-52.1-52.097c-28.726,0-52.097,23.371-52.097,52.097
				c0,25.31,18.145,46.452,42.106,51.127c2.29,35.74,30.027,64.667,65.244,68.804v39.013c0,11.732,9.545,21.279,21.277,21.279
				h115.723v-7.962h16.836c11.732,0,21.276-9.546,21.276-21.279v-29.564c24.833,4.763,43.654,26.633,43.654,52.831v0.715
				c0,29.667-24.134,53.803-53.803,53.803H272.011c-4.782-25.718-27.375-45.256-54.458-45.256h-29.312
				c-30.551,0-55.406,24.854-55.406,55.404c0,30.552,24.855,55.408,55.406,55.408h29.312c27.083,0,49.677-19.539,54.46-45.257
				h133.139c40.858,0,74.102-33.242,74.102-74.103v-0.715C479.253,408.128,451.375,377.104,415.3,372.14z M153.133,271.297
				c0-17.534,14.266-31.798,31.798-31.798c17.535,0,31.8,14.265,31.8,31.798c0,17.535-14.265,31.8-31.8,31.8
				C167.399,303.097,153.133,288.833,153.133,271.297z M356.886,431.22h-95.422c-0.541,0-0.98-0.439-0.98-0.979v-97.296
				c0-0.541,0.439-0.98,0.98-0.98h95.422V431.22z M395,422.279c0,0.54-0.439,0.979-0.979,0.979h-16.836v-83.332h16.836
				c0.54,0,0.979,0.439,0.979,0.979V422.279z M217.553,545.321h-29.312c-19.358,0-35.107-15.751-35.107-35.109
				c0-19.356,15.749-35.107,35.107-35.107h29.312c19.359,0,35.107,15.751,35.107,35.11
				C252.66,529.57,236.912,545.321,217.553,545.321z"/>
		</g>
	</g>
	<g>
		<g>
			<polygon points="195.082,261.149 195.082,249.665 174.783,249.665 174.783,281.447 206.566,281.447 206.566,261.149 			"/>
		</g>
	</g>
</g>
</svg>
