<?xml version="1.0" encoding="utf-8"?>
<!-- Generator: Adobe Illustrator 15.0.0, SVG Export Plug-In . SVG Version: 6.00 Build 0)  -->
<!DOCTYPE svg PUBLIC "-//W3C//DTD SVG 1.1 Basic//EN" "http://www.w3.org/Graphics/SVG/1.1/DTD/svg11-basic.dtd">
<svg version="1.1" baseProfile="basic" id="Capa_1" xmlns="http://www.w3.org/2000/svg" xmlns:xlink="http://www.w3.org/1999/xlink"
	 x="0px" y="0px" viewBox="0 123.307 595.281 595.275" style="fill:#1C2833" xml:space="preserve">
<g>
	<g>
		<rect x="212.396" y="632.925" width="170.514" height="30.289"/>
		<polygon points="125.119,674.331 116.394,708.583 478.912,708.583 470.187,674.331 		"/>
		<path d="M569.054,170.414H26.225C11.742,170.414,0,182.157,0,196.665v390.29c0,14.482,11.742,26.25,26.225,26.25h542.806
			c14.508,0,26.25-11.768,26.25-26.25v-390.29C595.281,182.157,583.564,170.414,569.054,170.414z M572.13,580.891H23.198V202.703
			H572.13V580.891z"/>
	</g>
</g>
<g class="red" style="fill:red">
	<g>
		<g>
			<path d="M407.423,289.369c-13.415-13.414-31.313-20.802-50.4-20.802c-19.086,0-36.984,7.388-50.398,20.802L187.842,408.152
				c-13.415,13.414-20.803,31.313-20.803,50.398c0,19.087,7.388,36.986,20.803,50.4c13.414,13.414,31.313,20.802,50.4,20.802
				c19.086,0,36.985-7.388,50.4-20.802l118.783-118.783C435.214,362.378,435.214,317.159,407.423,289.369z M274.444,494.754
				c-9.622,9.622-22.479,14.921-36.203,14.921s-26.58-5.299-36.203-14.921s-14.921-22.479-14.921-36.203
				c0-13.723,5.299-26.58,14.921-36.202l52.55-52.551l72.406,72.406L274.444,494.754z M393.227,375.97l-52.036,52.036
				l-72.406-72.405l52.036-52.035c9.622-9.622,22.479-14.921,36.202-14.921c13.725,0,26.581,5.298,36.203,14.921
				C413.187,323.528,413.189,356.009,393.227,375.97z"/>
		</g>
	</g>
	<g>
		<g>
			<path d="M389.093,308.795c-3.92-3.92-10.277-3.92-14.197,0s-3.92,10.276,0,14.197c9.793,9.793,9.793,25.729,0,35.521
				c-3.92,3.921-3.92,10.276,0,14.197c1.961,1.96,4.529,2.939,7.099,2.939c2.567,0,5.138-0.979,7.099-2.94
				C406.714,355.09,406.714,326.417,389.093,308.795z"/>
		</g>
	</g>
</g>
</svg>
