<?xml version="1.0" encoding="utf-8"?>
<!-- Generator: Adobe Illustrator 15.0.0, SVG Export Plug-In . SVG Version: 6.00 Build 0)  -->
<!DOCTYPE svg PUBLIC "-//W3C//DTD SVG 1.1//EN" "http://www.w3.org/Graphics/SVG/1.1/DTD/svg11.dtd">
<svg version="1.1" id="Layer_1" xmlns="http://www.w3.org/2000/svg" xmlns:xlink="http://www.w3.org/1999/xlink" x="0px" y="0px" style="fill:white"
	  viewBox="0 123.307 595.281 595.275" enable-background="new 0 123.307 595.281 595.275"
	 xml:space="preserve">
<g>
	<g>
		<path d="M526.365,138.144l-23.648,23.647c-17.179-4.735-36.36-0.382-49.838,13.096L48.705,579.061
			c-13.478,13.477-17.833,32.661-13.098,49.84L11.96,652.548c-9.814,9.814-9.814,25.781,0,35.596l9.186,9.186
			c14.879,14.879,39.087,14.879,53.966,0L85.541,686.9c29.213,23.25,66.248,34.484,103.917,31.087
			c34.39-3.101,66.075-18.099,90.029-42.052c6.164-6.164,11.815-12.92,16.869-20.221l0.032-0.043
			c0.005-0.009,0.011-0.02,0.019-0.026c38.991-56.321,39.337-129.256,4.075-185.198c-0.012-0.019-0.02-0.036-0.029-0.052
			c-7.918-12.449-6.108-29.04,4.307-39.454c10.414-10.414,27.006-12.225,39.453-4.307c0.006,0.005,0.015,0.01,0.023,0.012
			c55.945,35.28,128.896,34.94,185.229-4.059l0.044-0.031c7.31-5.059,14.072-10.716,20.242-16.885
			c23.96-23.961,38.955-55.647,42.057-90.029c3.398-37.671-7.837-74.704-31.085-103.918l10.427-10.429
			c14.88-14.878,14.878-39.085,0-53.964l-9.187-9.186C552.146,128.329,536.179,128.329,526.365,138.144z M48.704,651.399
			l18.946,18.945l-9.76,9.763c-5.381,5.381-14.139,5.381-19.521-0.003l-9.186-9.184c-0.316-0.318-0.317-0.831,0-1.148l18.961-18.96
			C48.333,651.006,48.512,651.207,48.704,651.399z M259.84,458.361c49.141,49.14,56.098,126.28,16.541,183.42l-0.031,0.045
			c-20.587,29.738-53.057,48.654-89.078,51.902c-36.022,3.247-71.349-9.559-96.924-35.135l-24.419-24.419
			c-10.446-10.446-10.446-27.444,0-37.891L212.9,449.311c10.447-10.447,27.446-10.447,37.892,0l9.049,9.049L259.84,458.361z
			 M305.906,394.198l5.477,5.476c-8.82,2.56-17.074,7.27-23.848,14.045c-6.774,6.775-11.483,15.025-14.045,23.847l-5.475-5.476
			c-6.943-6.943-15.403-11.462-24.321-13.57l48.643-48.644C294.444,378.795,298.964,387.256,305.906,394.198z M532.413,216.53
			c25.574,25.574,38.377,60.902,35.131,96.923c-3.247,36.022-22.168,68.489-51.931,89.097l-0.021,0.016l0.005-0.003
			c-57.139,39.558-134.276,32.602-183.418-16.54l-9.05-9.049c-10.446-10.446-10.446-27.445,0-37.892l146.973-146.972
			c10.446-10.447,27.446-10.447,37.892,0L532.413,216.53L532.413,216.53z M553.922,164.552c5.382,5.382,5.381,14.14,0,19.521
			l-9.761,9.761l-18.945-18.946c-0.194-0.193-0.395-0.372-0.589-0.56l18.96-18.96c0.317-0.317,0.831-0.316,1.147,0l9.187,9.186
			L553.922,164.552z"/>
	</g>
</g>
<g>
	<g class="green" style="fill:red">
		<path d="M258.367,496.525c-5.783,3.442-7.683,10.912-4.245,16.691c4.231,7.113,7.478,14.781,9.65,22.788
			c7.103,26.182,2.308,54.004-13.147,76.331c-2.455,3.548-5.21,6.855-8.189,9.833c-4.755,4.756-4.757,12.468,0,17.226
			c4.757,4.757,12.468,4.757,17.225,0c4.009-4.01,7.707-8.447,10.989-13.191c19.556-28.244,25.618-63.446,16.631-96.574
			c-2.751-10.14-6.862-19.848-12.221-28.859C271.621,494.988,264.146,493.087,258.367,496.525z"/>
		<path d="M512.669,236.14c-4.756,4.755-4.756,12.467,0.002,17.224c27.176,27.176,27.276,71.294,0.223,98.348
			c-2.979,2.978-6.301,5.744-9.878,8.219c-5.531,3.83-6.907,11.415-3.08,16.947c3.831,5.53,11.418,6.909,16.945,3.08
			c4.776-3.306,9.229-7.014,13.236-11.022c36.549-36.549,36.449-96.121-0.226-132.795
			C525.136,231.385,517.424,231.385,512.669,236.14z"/>
	</g>
</g>
</svg>
