<?xml version="1.0" encoding="utf-8"?>
<!-- Generator: Adobe Illustrator 15.0.0, SVG Export Plug-In . SVG Version: 6.00 Build 0)  -->
<!DOCTYPE svg PUBLIC "-//W3C//DTD SVG 1.1//EN" "http://www.w3.org/Graphics/SVG/1.1/DTD/svg11.dtd">
<svg version="1.1" id="Calque_1" xmlns="http://www.w3.org/2000/svg" xmlns:xlink="http://www.w3.org/1999/xlink" x="0px" y="0px" style="fill:#1C2833;stroke:#1C2833"
	  viewBox="0 0 595.276 595.275" enable-background="new 0 0 595.276 595.275"
	 xml:space="preserve">
<g>

		<polyline stroke-width="20" stroke-linecap="round" stroke-linejoin="round" stroke-miterlimit="10" points="
		369.146,431.75 368.783,432.295 368.42,432.84 364.966,437.927 361.516,442.471 358.063,446.651 354.245,450.285 	"/>

		<line stroke-width="20" stroke-linecap="round" stroke-linejoin="round" stroke-miterlimit="10" x1="369.146" y1="153.531" x2="369.146" y2="431.75"/>

		<polyline stroke-width="20" stroke-linecap="round" stroke-linejoin="round" stroke-miterlimit="10" points="
		354.245,134.813 358.063,138.448 361.516,142.627 362.969,144.445 364.421,146.262 365.694,148.261 367.148,150.259
		368.42,152.258 369.146,153.531 	"/>

		<polyline stroke-width="20" stroke-linecap="round" stroke-linejoin="round" stroke-miterlimit="10" points="
		226.311,153.531 226.676,152.985 227.039,152.258 230.311,147.17 233.762,142.627 237.397,138.448 241.032,134.813 	"/>

		<line stroke-width="20" stroke-linecap="round" stroke-linejoin="round" stroke-miterlimit="10" x1="226.311" y1="431.75" x2="226.311" y2="153.531"/>

		<polyline stroke-width="20" stroke-linecap="round" stroke-linejoin="round" stroke-miterlimit="10" points="
		241.032,450.285 237.397,446.651 233.762,442.471 232.308,440.836 231.037,438.835 229.583,437.02 228.311,435.021 227.039,432.84
		226.311,431.75 	"/>

		<polyline stroke-width="20" stroke-linecap="round" stroke-linejoin="round" stroke-miterlimit="10" points="
		297.729,472.817 305.543,472.455 313.175,471.365 320.808,469.547 328.259,467.001 335.346,463.731 342.069,459.916
		348.431,455.374 354.245,450.285 	"/>

		<polyline stroke-width="20" stroke-linecap="round" stroke-linejoin="round" stroke-miterlimit="10" points="
		354.245,134.813 348.431,129.725 342.069,125.182 335.346,121.366 328.259,118.095 320.808,115.551 313.175,113.734
		305.543,112.643 297.729,112.28 	"/>

		<line stroke-width="20" stroke-linecap="round" stroke-linejoin="round" stroke-miterlimit="10" x1="297.729" y1="112.28" x2="297.548" y2="112.28"/>

		<polyline stroke-width="20" stroke-linecap="round" stroke-linejoin="round" stroke-miterlimit="10" points="
		297.548,112.28 289.916,112.643 282.102,113.734 274.469,115.551 267.2,118.095 260.112,121.366 253.206,125.182 246.846,129.725
		241.032,134.813 	"/>

		<polyline stroke-width="20" stroke-linecap="round" stroke-linejoin="round" stroke-miterlimit="10" points="
		241.032,450.285 246.846,455.374 253.206,459.916 260.112,463.731 267.2,467.001 274.469,469.547 282.102,471.365 289.916,472.455
		297.548,472.817 	"/>

		<line stroke-width="20" stroke-linecap="round" stroke-linejoin="round" stroke-miterlimit="10" x1="297.548" y1="472.817" x2="297.729" y2="472.817"/>

		<polyline class="red" style="fill:red" stroke-width="20" stroke-linecap="round" stroke-linejoin="round" stroke-miterlimit="10" points="
		299.365,337.616 293.004,337.799 286.645,338.889 280.465,340.706 274.469,343.25 269.017,346.702 263.93,350.7 259.567,355.242
		255.569,360.334 252.479,365.966 250.118,371.961 248.482,378.143 247.575,384.501 247.575,391.044 248.301,397.402
		249.936,403.583 252.298,409.578 255.569,415.21 259.385,420.301 263.747,425.025 268.834,429.024 274.286,432.295
		280.284,435.021 286.463,436.837 292.641,437.927 299.182,438.111 305.543,437.566 311.903,436.11 317.9,433.93 323.534,430.842
		328.806,427.206 333.709,422.844 337.892,417.938 341.343,412.669 344.25,406.854 346.249,400.675 347.522,394.495
		347.886,387.953 347.522,381.592 346.249,375.232 344.25,369.235 341.524,363.419 338.071,357.97 333.893,353.064 329.166,348.701
		323.897,345.067 318.082,341.978 312.085,339.798 305.726,338.343 299.365,337.616 	"/>
</g>
<g>

		<polyline stroke-width="20" stroke-linecap="round" stroke-linejoin="round" stroke-miterlimit="10" points="
		113.826,533.151 105.102,533.151 97.107,533.151 89.656,533.151 83.115,533.151 77.298,533.151 72.21,533.151 68.031,533.151
		64.578,533.151 62.034,533.151 60.399,533.151 59.49,533.151 	"/>

		<polyline stroke-width="20" stroke-linecap="round" stroke-linejoin="round" stroke-miterlimit="10" points="
		535.97,533.151 535.787,533.151 534.878,533.151 533.244,533.151 530.698,533.151 527.245,533.151 523.066,533.151
		517.979,533.151 512.163,533.151 505.621,533.151 498.354,533.151 490.175,533.151 481.453,533.151 	"/>

		<polyline stroke-width="20" stroke-linecap="round" stroke-linejoin="round" stroke-miterlimit="10" points="
		116.551,560.41 109.283,560.41 100.378,560.41 92.2,560.41 85.476,560.41 78.571,560.41 74.391,560.41 72.937,560.41 	"/>

		<polyline stroke-width="20" stroke-linecap="round" stroke-linejoin="round" stroke-miterlimit="10" points="
		522.341,560.41 521.612,560.41 519.251,560.41 515.252,560.41 509.801,560.41 500.533,560.41 489.083,560.41 478.726,560.41 	"/>

		<polyline stroke-width="20" stroke-linecap="round" stroke-linejoin="round" stroke-miterlimit="10" points="
		160.71,560.41 160.71,560.41 160.527,560.592 160.346,560.592 160.346,560.772 160.346,560.955 160.165,561.136 160.165,561.318
		160.165,561.681 	"/>

		<polyline stroke-width="20" stroke-linecap="round" stroke-linejoin="round" stroke-miterlimit="10" points="
		434.565,560.41 420.211,560.41 405.129,560.41 388.773,560.41 371.871,560.41 347.886,560.41 322.99,560.41 297.729,560.41
		278.647,560.41 259.749,560.41 241.395,560.41 223.404,560.41 201.053,560.41 179.972,560.41 160.71,560.41 	"/>

		<polyline stroke-width="20" stroke-linecap="round" stroke-linejoin="round" stroke-miterlimit="10" points="
		450.96,533.151 439.511,533.151 427.88,533.151 415.523,533.151 402.802,533.151 389.898,533.151 376.452,533.151 362.822,533.151
		349.011,533.151 334.838,533.151 320.662,533.151 306.489,533.151 292.132,533.151 277.958,533.151 263.784,533.151
		249.79,533.151 235.798,533.151 222.168,533.151 208.903,533.151 195.818,533.151 183.098,533.151 170.923,533.151 159.11,533.151
		147.843,533.151 	"/>

		<polyline stroke-width="20" stroke-linecap="round" stroke-linejoin="round" stroke-miterlimit="10" points="
		143.446,60.853 143.083,60.853 142.901,60.853 142.72,60.853 	"/>

		<polyline stroke-width="20" stroke-linecap="round" stroke-linejoin="round" stroke-miterlimit="10" points="
		447.65,60.853 447.287,60.853 446.926,60.853 446.742,60.853 	"/>

		<polyline stroke-width="20" stroke-linecap="round" stroke-linejoin="round" stroke-miterlimit="10" points="
		143.446,60.853 143.083,60.853 142.901,60.853 142.72,60.853 	"/>

		<polyline stroke-width="20" stroke-linecap="round" stroke-linejoin="round" stroke-miterlimit="10" points="
		447.65,60.853 447.287,60.853 446.926,60.853 446.742,60.853 	"/>

		<polyline stroke-width="20" stroke-linecap="round" stroke-linejoin="round" stroke-miterlimit="10" points="
		555.231,60.853 554.868,60.853 553.595,60.853 551.598,60.853 548.69,60.853 545.235,60.853 540.692,60.853 535.605,60.853
		529.79,60.853 523.066,60.853 515.797,60.853 507.803,60.853 499.078,60.853 489.63,60.853 479.816,60.853 469.276,60.853
		458.189,60.853 446.742,60.853 434.749,60.853 422.21,60.853 409.489,60.853 396.223,60.853 382.774,60.853 368.965,60.853
		354.971,60.853 340.798,60.853 326.441,60.853 312.085,60.853 297.729,60.853 283.19,60.853 268.834,60.853 254.479,60.853
		240.305,60.853 226.311,60.853 212.683,60.853 199.054,60.853 185.969,60.853 173.067,60.853 160.71,60.853 148.716,60.853
		137.085,60.853 126,60.853 115.46,60.853 105.648,60.853 96.38,60.853 87.657,60.853 79.661,60.853 72.21,60.853 65.669,60.853
		59.671,60.853 54.583,60.853 50.222,60.853 46.587,60.853 43.68,60.853 41.68,60.853 40.59,60.853 40.045,60.853 	"/>

		<polyline stroke-width="20" stroke-linecap="round" stroke-linejoin="round" stroke-miterlimit="10" points="
		58.218,47.949 58.582,47.949 59.671,47.949 61.852,47.949 64.578,47.949 68.213,47.949 72.574,47.949 77.663,47.949 83.66,47.949
		90.201,47.949 97.47,47.949 105.466,47.949 114.188,47.949 123.456,47.949 133.27,47.949 143.628,47.949 154.713,47.949
		165.979,47.949 177.974,47.949 190.149,47.949 202.87,47.949 215.772,47.949 229.038,47.949 242.485,47.949 256.114,47.949
		269.926,47.949 283.736,47.949 297.729,47.949 311.541,47.949 325.531,47.949 339.345,47.949 352.973,47.949 366.42,47.949
		379.505,47.949 392.589,47.949 405.129,47.949 417.485,47.949 429.297,47.949 440.745,47.949 451.649,47.949 462.007,47.949
		471.82,47.949 481.088,47.949 489.811,47.949 497.809,47.949 505.076,47.949 511.798,47.949 517.613,47.949 522.702,47.949
		527.065,47.949 530.698,47.949 533.604,47.949 535.605,47.949 536.877,47.949 537.241,47.949 	"/>

		<polyline stroke-width="20" stroke-linecap="round" stroke-linejoin="round" stroke-miterlimit="10" points="
		68.031,557.139 68.394,557.864 68.939,558.411 69.303,558.956 70.029,559.501 70.756,559.865 71.483,560.228 72.21,560.41
		72.937,560.41 	"/>

		<polyline stroke-width="20" stroke-linecap="round" stroke-linejoin="round" stroke-miterlimit="10" points="
		522.341,560.41 523.249,560.41 523.974,560.228 524.703,559.865 525.428,559.501 525.975,558.956 526.52,558.411 526.883,557.864
		527.245,557.139 	"/>

		<line stroke-width="20" stroke-linecap="round" stroke-linejoin="round" stroke-miterlimit="10" x1="527.245" y1="557.139" x2="535.97" y2="533.151"/>

		<line stroke-width="20" stroke-linecap="round" stroke-linejoin="round" stroke-miterlimit="10" x1="59.49" y1="533.151" x2="68.031" y2="557.139"/>

		<polyline stroke-width="20" stroke-linecap="round" stroke-linejoin="round" stroke-miterlimit="10" points="
		127.455,562.955 128.908,563.863 133.451,566.042 138.358,567.497 143.264,568.042 148.171,568.042 153.259,567.313
		157.984,565.862 162.527,563.863 163.617,562.955 	"/>

		<polyline stroke-width="20" stroke-linecap="round" stroke-linejoin="round" stroke-miterlimit="10" points="
		431.658,562.955 433.112,563.863 437.656,566.042 442.381,567.497 447.469,568.042 452.376,568.042 457.281,567.313
		462.189,565.862 466.731,563.863 467.823,562.955 	"/>

		<line stroke-width="20" stroke-linecap="round" stroke-linejoin="round" stroke-miterlimit="10" x1="40.045" y1="60.853" x2="40.045" y2="524.429"/>

		<line stroke-width="20" stroke-linecap="round" stroke-linejoin="round" stroke-miterlimit="10" x1="555.231" y1="524.429" x2="555.231" y2="60.853"/>

		<line stroke-width="20" stroke-linecap="round" stroke-linejoin="round" stroke-miterlimit="10" x1="113.826" y1="533.151" x2="147.843" y2="533.151"/>

		<line stroke-width="20" stroke-linecap="round" stroke-linejoin="round" stroke-miterlimit="10" x1="40.045" y1="524.429" x2="59.49" y2="533.151"/>

		<line stroke-width="20" stroke-linecap="round" stroke-linejoin="round" stroke-miterlimit="10" x1="450.96" y1="533.151" x2="481.453" y2="533.151"/>

		<line stroke-width="20" stroke-linecap="round" stroke-linejoin="round" stroke-miterlimit="10" x1="535.97" y1="533.151" x2="555.231" y2="524.429"/>

		<line stroke-width="20" stroke-linecap="round" stroke-linejoin="round" stroke-miterlimit="10" x1="434.565" y1="560.41" x2="478.726" y2="560.41"/>

		<line stroke-width="20" stroke-linecap="round" stroke-linejoin="round" stroke-miterlimit="10" x1="116.551" y1="560.41" x2="164.417" y2="560.41"/>

		<line stroke-width="20" stroke-linecap="round" stroke-linejoin="round" stroke-miterlimit="10" x1="40.045" y1="60.853" x2="58.582" y2="47.949"/>

		<line stroke-width="20" stroke-linecap="round" stroke-linejoin="round" stroke-miterlimit="10" x1="537.241" y1="47.949" x2="555.231" y2="60.853"/>
</g>
</svg>
