<?xml version="1.0" encoding="utf-8"?>
<!-- Generator: Adobe Illustrator 15.0.0, SVG Export Plug-In . SVG Version: 6.00 Build 0)  -->
<!DOCTYPE svg PUBLIC "-//W3C//DTD SVG 1.1 Basic//EN" "http://www.w3.org/Graphics/SVG/1.1/DTD/svg11-basic.dtd">
<svg version="1.1" baseProfile="basic" id="Capa_1" xmlns="http://www.w3.org/2000/svg" xmlns:xlink="http://www.w3.org/1999/xlink" style="fill:#1C2833"
	 x="0px" y="0px"  viewBox="0 115.307 595.281 595.275" xml:space="preserve">
<g>
	<g>
		<rect x="212.396" y="606.371" width="170.514" height="30.289"/>
		<polygon points="125.119,647.777 116.394,682.029 478.912,682.029 470.187,647.777 		"/>
		<path d="M569.054,143.861H26.225C11.742,143.861,0,155.604,0,170.112v390.289c0,14.483,11.742,26.25,26.225,26.25h542.806
			c14.508,0,26.25-11.767,26.25-26.25V170.112C595.281,155.604,583.564,143.861,569.054,143.861z M572.131,554.338H23.198V176.15
			h548.933V554.338z"/>
	</g>
</g>
<g>
	<g>
		<path class="red" style="fill:red" stroke-width="12" stroke-miterlimit="10" d="M402.065,326.102h-65.257v-65.259
			c0-3.603-2.922-6.525-6.526-6.525h-65.258c-3.604,0-6.526,2.922-6.526,6.525v65.259H193.24c-3.604,0-6.526,2.921-6.526,6.526
			v65.257c0,3.604,2.921,6.526,6.526,6.526h65.258v65.258c0,3.605,2.922,6.525,6.526,6.525h65.258c3.604,0,6.526-2.921,6.526-6.525
			v-65.258h65.257c3.604,0,6.526-2.922,6.526-6.526v-65.257C408.591,329.024,405.669,326.102,402.065,326.102z M395.54,391.36
			h-65.258c-3.604,0-6.525,2.922-6.525,6.525v65.258h-52.207v-65.258c0-3.604-2.921-6.525-6.525-6.525h-65.258v-52.208h65.258
			c3.604,0,6.525-2.921,6.525-6.525v-65.258h52.207v65.258c0,3.604,2.922,6.525,6.525,6.525h65.258V391.36L395.54,391.36z"/>
	</g>
</g>
</svg>
