<?xml version="1.0" encoding="iso-8859-1"?>
<!-- Generator: Adobe Illustrator 19.0.0, SVG Export Plug-In . SVG Version: 6.00 Build 0)  -->
<svg version="1.1" id="Layer_1" xmlns="http://www.w3.org/2000/svg" xmlns:xlink="http://www.w3.org/1999/xlink" x="0px" y="0px"
	 viewBox="0 0 299.86 299.86" style="enable-background:new 0 0 299.86 299.86;fill:white" xml:space="preserve">
<g>
	<g>
		<g>
			<path d="M146.753,229.68c63.321,0,114.84-51.518,114.84-114.84S210.074,0,146.753,0S31.913,51.519,31.913,114.84
				S83.431,229.68,146.753,229.68z M146.753,12.76c57.241,0,102.08,44.839,102.08,102.08s-44.839,102.08-102.08,102.08
				c-57.241,0-102.08-44.839-102.08-102.08S89.511,12.76,146.753,12.76z"/>
			<path d="M146.753,159.5c24.62,0,44.66-20.04,44.66-44.66c0-24.62-20.04-44.66-44.66-44.66s-44.66,20.04-44.66,44.66
				C102.093,139.46,122.132,159.5,146.753,159.5z M146.753,82.94c17.59,0,31.9,14.31,31.9,31.9s-14.31,31.9-31.9,31.9
				s-31.9-14.31-31.9-31.9S129.163,82.94,146.753,82.94z"/>
			<path d="M253.158,205.87c-2.546-2.354-6.501-2.278-8.919,0.23c-21.775,22.413-59.13,36.34-97.499,36.34
				c-36.506,0-68.03-12.556-91.119-36.34c-2.412-2.488-6.386-2.584-8.913-0.23C20.339,230.401,6.393,260.7,6.393,293.48
				c0,3.528,2.852,6.38,6.38,6.38h274.34c3.528,0,6.38-2.852,6.354-6.38C293.467,260.719,279.54,230.42,253.158,205.87z
				 M19.35,287.1c1.582-24.882,12.435-48.061,31.683-67.654c25.054,23.421,58.007,35.754,95.719,35.754
				c39.773,0,77.383-13.277,102.067-35.773c19.268,19.593,30.133,42.778,31.715,67.673H19.35z"/>
			<path class="red" style="fill:red" d="M159.513,114.84c3.318,0,6.635-1.34,8.996-3.764c2.424-2.361,3.764-5.621,3.764-8.996c0-3.381-1.34-6.635-3.764-8.996
				c-4.721-4.785-13.27-4.785-18.055,0c-2.361,2.361-3.7,5.614-3.7,8.996c0,3.375,1.34,6.635,3.764,9.06
				C152.878,113.5,156.189,114.84,159.513,114.84z"/>
		</g>
	</g>
</g>
<g>
</g>
<g>
</g>
<g>
</g>
<g>
</g>
<g>
</g>
<g>
</g>
<g>
</g>
<g>
</g>
<g>
</g>
<g>
</g>
<g>
</g>
<g>
</g>
<g>
</g>
<g>
</g>
<g>
</g>
</svg>
